<?xml version="1.0" standalone="no"?>
<!DOCTYPE svg PUBLIC "-//W3C//DTD SVG 20010904//EN"
 "http://www.w3.org/TR/2001/REC-SVG-20010904/DTD/svg10.dtd">
<svg version="1.0" xmlns="http://www.w3.org/2000/svg"
 width="512.000000pt" height="512.000000pt" viewBox="0 0 512.000000 512.000000"
 preserveAspectRatio="xMidYMid meet">

<g transform="translate(0.000000,512.000000) scale(0.100000,-0.100000)"
fill="white" stroke="none">
<path d="M625 4772 c-178 -60 -303 -188 -367 -372 l-23 -65 0 -1145 0 -1145
22 -70 c53 -170 201 -319 372 -378 66 -22 67 -22 891 -25 l826 -3 44 -97 c222
-485 571 -863 1013 -1097 57 -30 111 -55 121 -55 22 0 161 70 260 132 578 361
976 999 1081 1730 32 220 29 610 -6 741 -11 42 -34 56 -195 123 -282 117 -597
193 -894 215 -80 6 -151 13 -157 15 -10 3 -13 115 -13 520 0 569 -1 580 -63
699 -43 82 -165 204 -244 244 -128 64 -58 61 -1383 61 l-1205 0 -80 -28z m535
-992 l0 -861 25 -24 c42 -43 77 -34 153 38 37 35 181 172 320 306 140 133 257
241 262 239 4 -2 110 -100 234 -218 l225 -215 -89 -42 c-105 -49 -103 -43
-121 -253 -15 -168 -6 -419 20 -595 18 -120 67 -338 91 -399 l10 -26 -768 0
c-608 0 -777 3 -817 14 -155 41 -273 165 -305 321 -7 34 -10 417 -8 1155 l3
1105 32 67 c52 111 151 201 258 234 27 8 112 13 258 13 l217 1 0 -860z m1360
110 c0 -412 -2 -750 -5 -750 -3 0 -129 118 -280 263 -151 144 -285 265 -297
268 -13 3 -34 2 -47 -3 -14 -5 -126 -106 -250 -225 -124 -119 -247 -237 -273
-262 l-48 -45 0 752 0 752 600 0 600 0 0 -750z m682 713 c88 -41 160 -113 201
-201 l32 -67 3 -532 3 -533 -50 0 c-136 0 -402 -40 -598 -89 l-113 -29 0 745
0 744 228 -3 227 -3 67 -32z m642 -1508 c161 -19 297 -46 454 -91 128 -36 364
-124 396 -147 40 -29 46 -429 11 -667 -77 -513 -300 -967 -644 -1311 -154
-153 -321 -278 -479 -358 l-59 -30 -100 55 c-197 108 -451 326 -596 510 -254
324 -418 710 -482 1134 -35 237 -28 638 12 667 27 20 257 107 374 142 137 40
323 78 463 95 155 19 492 19 650 1z"/>
<path d="M3379 2646 c-152 -32 -278 -105 -392 -226 -122 -130 -184 -275 -194
-456 -12 -218 59 -407 212 -560 83 -83 178 -142 290 -180 114 -39 286 -45 405
-15 272 69 476 275 541 549 17 71 20 107 16 197 -9 204 -69 338 -217 486 -78
78 -110 102 -180 136 -47 23 -112 49 -145 58 -84 22 -254 28 -336 11z m266
-161 c263 -55 455 -293 455 -563 0 -156 -56 -289 -170 -403 -117 -117 -242
-169 -412 -169 -428 0 -701 461 -500 844 117 224 375 344 627 291z"/>
<path d="M3476 2289 l-26 -20 0 -151 0 -151 -95 -98 c-79 -81 -95 -103 -95
-129 0 -42 39 -80 82 -80 28 0 47 15 145 113 l113 113 0 191 0 192 -26 20
c-15 12 -37 21 -49 21 -12 0 -34 -9 -49 -21z"/>
</g>
</svg>
