<?xml version="1.0" standalone="no"?>
<!DOCTYPE svg PUBLIC "-//W3C//DTD SVG 20010904//EN"
 "http://www.w3.org/TR/2001/REC-SVG-20010904/DTD/svg10.dtd">
<svg version="1.0" xmlns="http://www.w3.org/2000/svg"
 width="512.000000pt" height="512.000000pt" viewBox="0 0 512.000000 512.000000"
 preserveAspectRatio="xMidYMid meet">

<g transform="translate(0.000000,512.000000) scale(0.100000,-0.100000)"
fill="white" stroke="none">
<path d="M2118 4959 c-22 -12 -30 -43 -64 -249 -15 -91 -32 -170 -38 -176 -6
-6 -57 -25 -113 -44 -56 -18 -159 -61 -230 -95 l-128 -61 -167 118 c-97 69
-177 118 -190 118 -33 0 -638 -605 -638 -638 0 -13 50 -94 118 -190 l118 -167
-61 -128 c-34 -71 -77 -174 -95 -230 -19 -56 -38 -107 -44 -113 -6 -6 -85 -23
-176 -38 -209 -35 -237 -42 -250 -66 -14 -26 -14 -854 0 -880 13 -24 41 -31
250 -66 91 -15 170 -32 176 -38 6 -6 25 -57 44 -113 18 -56 61 -159 95 -230
l61 -128 -118 -167 c-69 -97 -118 -177 -118 -190 0 -33 605 -638 638 -638 13
0 94 50 190 118 l167 118 128 -61 c71 -34 174 -77 230 -95 56 -19 107 -38 113
-44 6 -6 23 -85 38 -176 35 -209 42 -237 66 -250 26 -14 854 -14 880 0 23 13
31 40 66 248 15 90 33 169 38 176 6 7 56 27 111 45 55 17 159 60 230 95 l130
62 167 -118 c96 -67 177 -118 190 -118 33 0 638 605 638 638 0 13 -50 94 -118
190 l-118 167 61 126 c34 70 77 175 96 234 24 77 40 110 54 116 11 5 101 22
200 39 187 33 209 39 219 66 3 8 6 207 6 440 0 400 -1 425 -19 443 -18 18 -53
26 -308 69 -57 10 -106 22 -111 27 -5 6 -23 56 -42 112 -18 56 -61 159 -95
230 l-61 128 118 167 c69 97 118 177 118 190 0 33 -605 638 -638 638 -13 0
-95 -51 -190 -118 l-167 -118 -130 62 c-71 35 -175 78 -230 95 -55 18 -105 37
-111 43 -6 6 -23 85 -38 176 -35 209 -42 237 -66 250 -25 14 -859 13 -882 -1z
m802 -111 c0 -2 16 -90 34 -196 21 -119 41 -201 50 -211 9 -9 39 -23 68 -30
96 -24 241 -82 371 -149 117 -59 130 -64 154 -53 15 7 94 60 176 118 l149 106
255 -255 255 -255 -116 -166 c-64 -91 -116 -171 -116 -179 0 -7 29 -69 64
-138 65 -127 123 -273 147 -368 7 -29 21 -59 30 -68 10 -9 92 -29 211 -50 106
-18 194 -34 196 -34 1 0 2 -162 2 -360 0 -198 -1 -360 -2 -360 -2 0 -90 -16
-196 -34 -119 -21 -201 -41 -211 -50 -9 -9 -23 -39 -30 -68 -24 -95 -82 -241
-147 -368 -35 -69 -64 -131 -64 -138 0 -8 52 -88 116 -179 l116 -166 -255
-254 -254 -255 -165 116 c-91 64 -171 116 -179 116 -8 0 -70 -29 -139 -64
-127 -65 -273 -123 -368 -147 -29 -7 -59 -21 -68 -30 -9 -10 -29 -92 -50 -211
-18 -106 -34 -194 -34 -195 0 -2 -162 -3 -360 -3 -198 0 -360 1 -360 3 0 1
-16 89 -34 195 -21 119 -41 201 -50 211 -9 9 -39 23 -68 30 -95 24 -241 82
-368 147 -69 35 -131 64 -138 64 -8 0 -88 -52 -179 -116 l-166 -116 -254 255
-255 254 116 166 c64 91 116 171 116 179 0 7 -29 69 -64 138 -65 127 -123 273
-147 368 -7 29 -21 59 -30 68 -10 9 -92 29 -211 50 -106 18 -194 34 -195 34
-4 0 -4 720 0 720 2 0 90 15 196 34 118 21 199 41 210 50 9 9 23 39 30 68 24
95 82 241 147 368 35 69 64 131 64 138 0 8 -52 88 -116 179 l-116 166 255 254
254 255 166 -116 c91 -64 171 -116 179 -116 7 0 69 29 138 64 127 65 273 123
368 147 29 7 59 21 68 30 9 10 29 92 50 211 18 106 34 194 34 196 0 1 162 2
360 2 198 0 360 -1 360 -2z"/>
<path d="M2325 4126 c-630 -104 -1125 -546 -1294 -1156 -68 -245 -68 -575 0
-820 78 -283 225 -528 438 -733 212 -203 477 -343 773 -408 122 -27 379 -36
514 -19 636 79 1170 547 1334 1165 50 192 65 444 35 635 -101 661 -590 1179
-1247 1322 -120 26 -433 34 -553 14z m525 -131 c294 -65 530 -194 741 -404
213 -214 342 -453 406 -751 26 -121 26 -439 0 -560 -64 -298 -193 -537 -406
-751 -214 -213 -453 -342 -751 -406 -121 -26 -439 -26 -560 0 -298 64 -537
193 -751 406 -213 214 -342 453 -406 751 -26 121 -26 439 0 560 64 298 193
537 406 751 228 227 478 357 801 415 103 18 418 12 520 -11z"/>
<path d="M1723 3455 c-12 -8 -123 -183 -247 -389 -170 -281 -226 -381 -226
-405 0 -41 31 -72 129 -131 96 -57 131 -59 177 -6 32 37 33 38 68 25 20 -7 47
-22 61 -33 l26 -21 -35 -41 c-44 -51 -56 -82 -56 -141 0 -84 79 -173 153 -173
21 0 30 -9 50 -53 27 -59 71 -94 131 -104 29 -4 36 -11 41 -35 8 -32 56 -92
89 -110 11 -7 36 -14 54 -17 29 -5 36 -12 47 -46 27 -78 126 -134 206 -116 20
5 42 12 48 15 6 4 32 0 56 -10 91 -34 194 1 232 81 14 30 20 33 69 37 68 6
125 43 150 97 18 38 22 40 62 41 23 0 60 9 82 20 37 19 90 81 90 106 0 6 17
14 39 17 64 8 111 37 143 86 25 40 29 54 25 101 -2 30 -6 62 -10 70 -5 10 4
22 28 39 19 13 51 48 71 78 43 64 56 71 83 44 38 -38 66 -37 170 5 111 45 141
69 141 115 0 41 -327 816 -357 847 -32 32 -69 28 -175 -18 -103 -44 -128 -66
-128 -115 0 -29 -4 -34 -32 -41 -65 -15 -183 -5 -323 26 -108 25 -156 31 -210
28 -76 -5 -107 -18 -180 -73 l-47 -37 -167 0 c-206 -1 -248 10 -243 64 4 47
-22 77 -122 138 -88 53 -126 61 -163 35z m144 -172 c5 -14 -384 -663 -398
-663 -5 0 -27 12 -49 26 l-40 27 27 46 c14 25 105 175 201 334 l174 287 40
-22 c22 -13 43 -28 45 -35z m1725 -299 c81 -192 148 -352 148 -356 0 -11 -93
-49 -101 -41 -7 9 -299 698 -299 708 0 8 82 44 94 41 5 -1 76 -159 158 -352z
m-769 201 c156 -36 249 -45 332 -34 39 5 78 10 88 12 15 2 39 -47 133 -268 63
-148 114 -272 114 -275 0 -3 -13 -14 -30 -23 -16 -10 -50 -46 -74 -80 -24 -34
-57 -69 -73 -78 l-28 -17 -210 186 c-451 397 -445 394 -528 378 -64 -12 -127
-104 -127 -186 0 -22 -9 -58 -20 -79 -19 -38 -72 -91 -91 -91 -6 0 -9 21 -8
48 1 26 -2 88 -6 139 -6 67 -4 100 5 123 16 39 246 237 301 259 41 16 106 12
222 -14z m-657 -89 l102 -1 -33 -36 c-56 -63 -69 -113 -60 -237 10 -139 9
-176 -10 -212 -38 -73 -4 -114 94 -113 136 2 261 123 277 270 7 64 28 106 50
101 8 -2 165 -135 349 -297 291 -256 335 -298 335 -323 0 -33 -31 -68 -60 -68
-11 0 -99 69 -205 162 -102 90 -193 166 -204 169 -32 13 -66 -12 -69 -52 -3
-34 2 -39 163 -179 91 -80 168 -155 171 -168 10 -36 -20 -72 -59 -72 -27 1
-59 25 -202 151 -183 161 -199 169 -237 118 -29 -38 -14 -58 139 -193 74 -65
137 -124 140 -132 9 -25 -7 -64 -32 -76 -34 -15 -53 -5 -157 86 -65 57 -93 76
-115 76 -35 0 -53 -16 -53 -47 0 -27 -1 -27 -34 -12 -23 11 -25 16 -19 55 3
23 2 59 -1 78 -8 44 -59 104 -103 123 -27 11 -33 19 -33 45 0 78 -73 162 -152
174 -32 6 -38 12 -53 51 -41 107 -187 144 -279 72 -24 -19 -29 -20 -44 -6 -9
9 -41 27 -70 42 -29 14 -51 29 -48 33 24 41 245 406 262 434 l23 36 63 -26
c53 -21 80 -26 164 -26z m-196 -586 c41 -41 26 -71 -99 -202 -49 -52 -86 -62
-115 -32 -28 28 -19 64 32 123 117 137 141 152 182 111z m190 -160 c35 -35 25
-60 -61 -158 -65 -74 -86 -92 -108 -92 -51 0 -81 45 -58 87 7 12 45 58 85 102
79 87 105 98 142 61z m142 -207 c32 -28 22 -65 -33 -129 -29 -32 -57 -62 -63
-66 -19 -13 -59 -9 -78 9 -36 32 -21 68 71 166 39 41 73 48 103 20z m296 -257
c51 -48 35 -116 -29 -116 -27 0 -28 0 -22 54 3 30 1 68 -6 86 -10 30 -9 31 7
19 9 -7 32 -26 50 -43z m-184 8 c33 -33 9 -98 -44 -116 -25 -9 -60 10 -70 37
-24 64 67 127 114 79z"/>
</g>
</svg>
