<svg xmlns="http://www.w3.org/2000/svg" xmlns:xlink="http://www.w3.org/1999/xlink" width="500" zoomAndPan="magnify" viewBox="0 0 375 374.999991" height="500" preserveAspectRatio="xMidYMid meet" version="1.0"><defs><g/><clipPath id="e30533c01f"><path d="M 68.011719 75.476562 L 292.0625 75.476562 L 292.0625 299.523438 L 68.011719 299.523438 Z M 68.011719 75.476562 " clip-rule="nonzero"/></clipPath><clipPath id="3e99241ba4"><path d="M 180.039062 75.476562 C 118.167969 75.476562 68.011719 125.628906 68.011719 187.5 C 68.011719 249.371094 118.167969 299.523438 180.039062 299.523438 C 241.90625 299.523438 292.0625 249.371094 292.0625 187.5 C 292.0625 125.628906 241.90625 75.476562 180.039062 75.476562 Z M 180.039062 75.476562 " clip-rule="nonzero"/></clipPath></defs><rect x="-37.5" width="450" fill="#ffffff" y="-37.499999" height="449.999989" fill-opacity="1"/><rect x="-37.5" width="450" fill="#001c73" y="-37.499999" height="449.999989" fill-opacity="1"/><g clip-path="url(#e30533c01f)"><g clip-path="url(#3e99241ba4)"><path fill="#ffffff" d="M 68.011719 75.476562 L 292.0625 75.476562 L 292.0625 299.523438 L 68.011719 299.523438 Z M 68.011719 75.476562 " fill-opacity="1" fill-rule="nonzero"/></g></g><g fill="#001c73" fill-opacity="1"><g transform="translate(130.192467, 145.438571)"><g><path d="M 13.390625 -10.765625 L 13.390625 -17.25 L 16.78125 -17.25 L 16.78125 0 L 13.390625 0 L 13.390625 -7.859375 L 5.65625 -7.859375 L 5.65625 0 L 2.25 0 L 2.25 -17.25 L 5.65625 -17.25 L 5.65625 -10.765625 Z M 13.390625 -10.765625 "/></g></g></g><g fill="#001c73" fill-opacity="1"><g transform="translate(149.234357, 145.438571)"><g><path d="M 7.5625 0.25 C 6.289062 0.25 5.171875 -0.0078125 4.203125 -0.53125 C 3.242188 -1.0625 2.5 -1.832031 1.96875 -2.84375 C 1.4375 -3.851562 1.171875 -5.070312 1.171875 -6.5 C 1.171875 -7.9375 1.4375 -9.160156 1.96875 -10.171875 C 2.5 -11.191406 3.242188 -11.960938 4.203125 -12.484375 C 5.171875 -13.003906 6.289062 -13.265625 7.5625 -13.265625 C 8.84375 -13.265625 9.960938 -13.003906 10.921875 -12.484375 C 11.890625 -11.960938 12.640625 -11.191406 13.171875 -10.171875 C 13.703125 -9.160156 13.96875 -7.9375 13.96875 -6.5 C 13.96875 -5.070312 13.703125 -3.851562 13.171875 -2.84375 C 12.640625 -1.832031 11.890625 -1.0625 10.921875 -0.53125 C 9.960938 -0.0078125 8.84375 0.25 7.5625 0.25 Z M 7.5625 -2.53125 C 9.582031 -2.53125 10.59375 -3.851562 10.59375 -6.5 C 10.59375 -7.875 10.332031 -8.882812 9.8125 -9.53125 C 9.300781 -10.175781 8.550781 -10.5 7.5625 -10.5 C 5.539062 -10.5 4.53125 -9.164062 4.53125 -6.5 C 4.53125 -3.851562 5.539062 -2.53125 7.5625 -2.53125 Z M 7.5625 -2.53125 "/></g></g></g><g fill="#001c73" fill-opacity="1"><g transform="translate(164.368702, 145.438571)"><g><path d="M 1.875 0 L 1.875 -13.015625 L 5.015625 -13.015625 L 5.015625 -11.109375 L 5.265625 -11.046875 C 6.078125 -12.523438 7.390625 -13.265625 9.203125 -13.265625 C 10.703125 -13.265625 11.804688 -12.851562 12.515625 -12.03125 C 13.222656 -11.21875 13.578125 -10.03125 13.578125 -8.46875 L 13.578125 0 L 10.296875 0 L 10.296875 -8.0625 C 10.296875 -8.925781 10.125 -9.546875 9.78125 -9.921875 C 9.4375 -10.304688 8.882812 -10.5 8.125 -10.5 C 7.1875 -10.5 6.453125 -10.195312 5.921875 -9.59375 C 5.398438 -8.988281 5.140625 -8.035156 5.140625 -6.734375 L 5.140625 0 Z M 1.875 0 "/></g></g></g><g fill="#001c73" fill-opacity="1"><g transform="translate(179.6211, 145.438571)"><g><path d="M 12.859375 -5.765625 L 4.5 -5.765625 C 4.59375 -4.640625 4.914062 -3.816406 5.46875 -3.296875 C 6.019531 -2.785156 6.769531 -2.53125 7.71875 -2.53125 C 8.46875 -2.53125 9.070312 -2.664062 9.53125 -2.9375 C 10 -3.21875 10.375 -3.644531 10.65625 -4.21875 L 10.90625 -4.21875 L 13.078125 -2.828125 C 12.648438 -1.910156 12.003906 -1.164062 11.140625 -0.59375 C 10.285156 -0.03125 9.144531 0.25 7.71875 0.25 C 6.375 0.25 5.210938 -0.00390625 4.234375 -0.515625 C 3.253906 -1.023438 2.5 -1.785156 1.96875 -2.796875 C 1.4375 -3.804688 1.171875 -5.039062 1.171875 -6.5 C 1.171875 -7.976562 1.445312 -9.222656 2 -10.234375 C 2.5625 -11.253906 3.316406 -12.015625 4.265625 -12.515625 C 5.222656 -13.015625 6.296875 -13.265625 7.484375 -13.265625 C 9.328125 -13.265625 10.738281 -12.773438 11.71875 -11.796875 C 12.695312 -10.828125 13.1875 -9.394531 13.1875 -7.5 C 13.1875 -6.820312 13.160156 -6.289062 13.109375 -5.90625 Z M 10.0625 -7.890625 C 10.03125 -8.878906 9.796875 -9.597656 9.359375 -10.046875 C 8.929688 -10.503906 8.304688 -10.734375 7.484375 -10.734375 C 5.828125 -10.734375 4.851562 -9.785156 4.5625 -7.890625 Z M 10.0625 -7.890625 "/></g></g></g><g fill="#001c73" fill-opacity="1"><g transform="translate(193.775611, 145.438571)"><g><path d="M 6.09375 0.25 C 5.195312 0.25 4.378906 0.144531 3.640625 -0.0625 C 2.898438 -0.269531 2.269531 -0.554688 1.75 -0.921875 C 1.226562 -1.285156 0.84375 -1.707031 0.59375 -2.1875 L 2.40625 -4.140625 L 2.65625 -4.140625 C 3.09375 -3.554688 3.601562 -3.117188 4.1875 -2.828125 C 4.78125 -2.535156 5.421875 -2.390625 6.109375 -2.390625 C 6.742188 -2.390625 7.222656 -2.503906 7.546875 -2.734375 C 7.867188 -2.960938 8.03125 -3.289062 8.03125 -3.71875 C 8.03125 -4.050781 7.914062 -4.328125 7.6875 -4.546875 C 7.457031 -4.773438 7.082031 -4.953125 6.5625 -5.078125 L 4.84375 -5.484375 C 3.550781 -5.796875 2.609375 -6.265625 2.015625 -6.890625 C 1.421875 -7.523438 1.125 -8.332031 1.125 -9.3125 C 1.125 -10.125 1.328125 -10.828125 1.734375 -11.421875 C 2.148438 -12.023438 2.734375 -12.484375 3.484375 -12.796875 C 4.234375 -13.109375 5.109375 -13.265625 6.109375 -13.265625 C 7.285156 -13.265625 8.257812 -13.09375 9.03125 -12.75 C 9.800781 -12.414062 10.398438 -11.96875 10.828125 -11.40625 L 9.09375 -9.515625 L 8.859375 -9.515625 C 8.492188 -9.921875 8.082031 -10.21875 7.625 -10.40625 C 7.175781 -10.59375 6.671875 -10.6875 6.109375 -10.6875 C 4.816406 -10.6875 4.171875 -10.285156 4.171875 -9.484375 C 4.171875 -9.148438 4.289062 -8.875 4.53125 -8.65625 C 4.769531 -8.445312 5.195312 -8.273438 5.8125 -8.140625 L 7.40625 -7.796875 C 8.726562 -7.503906 9.691406 -7.046875 10.296875 -6.421875 C 10.910156 -5.796875 11.21875 -4.957031 11.21875 -3.90625 C 11.21875 -3.082031 11.015625 -2.351562 10.609375 -1.71875 C 10.203125 -1.09375 9.613281 -0.609375 8.84375 -0.265625 C 8.070312 0.078125 7.15625 0.25 6.09375 0.25 Z M 6.09375 0.25 "/></g></g></g><g fill="#001c73" fill-opacity="1"><g transform="translate(205.781565, 145.438571)"><g><path d="M 8.984375 -3.109375 L 9.828125 -0.6875 C 9.472656 -0.394531 9.03125 -0.164062 8.5 0 C 7.96875 0.164062 7.363281 0.25 6.6875 0.25 C 5.269531 0.25 4.195312 -0.128906 3.46875 -0.890625 C 2.738281 -1.660156 2.375 -2.78125 2.375 -4.25 L 2.375 -10.4375 L 0.390625 -10.4375 L 0.390625 -13.03125 L 2.375 -13.03125 L 2.375 -15.5625 L 5.640625 -16.09375 L 5.640625 -13.03125 L 9.328125 -13.03125 L 9.328125 -10.4375 L 5.640625 -10.4375 L 5.640625 -4.484375 C 5.640625 -3.835938 5.769531 -3.363281 6.03125 -3.0625 C 6.300781 -2.769531 6.695312 -2.625 7.21875 -2.625 C 7.789062 -2.625 8.296875 -2.785156 8.734375 -3.109375 Z M 8.984375 -3.109375 "/></g></g></g><g fill="#001c73" fill-opacity="1"><g transform="translate(215.898678, 145.438571)"><g><path d="M 2.875 5.53125 C 2.320312 5.53125 1.816406 5.484375 1.359375 5.390625 C 0.910156 5.304688 0.546875 5.191406 0.265625 5.046875 L 0.78125 2.40625 L 0.984375 2.34375 C 1.179688 2.4375 1.425781 2.515625 1.71875 2.578125 C 2.007812 2.640625 2.3125 2.671875 2.625 2.671875 C 3.144531 2.671875 3.582031 2.601562 3.9375 2.46875 C 4.289062 2.332031 4.585938 2.101562 4.828125 1.78125 C 5.066406 1.46875 5.28125 1.023438 5.46875 0.453125 L 0.28125 -13.015625 L 3.703125 -13.015625 L 6.9375 -3.96875 L 7.21875 -3.96875 L 10.375 -13.015625 L 13.703125 -13.015625 L 8.46875 0.8125 C 8.050781 1.925781 7.59375 2.820312 7.09375 3.5 C 6.59375 4.1875 6.003906 4.695312 5.328125 5.03125 C 4.648438 5.363281 3.832031 5.53125 2.875 5.53125 Z M 2.875 5.53125 "/></g></g></g><g fill="#001c73" fill-opacity="1"><g transform="translate(118.447288, 174.634661)"><g><path d="M 7.328125 -9.140625 L 7.328125 -7.609375 L 4.6875 -7.609375 L 4.6875 0 L 2.890625 0 L 2.890625 -7.609375 L 0.25 -7.609375 L 0.25 -9.140625 Z M 7.328125 -9.140625 "/></g></g></g><g fill="#001c73" fill-opacity="1"><g transform="translate(126.020781, 174.634661)"><g><path d="M 1 0 L 1 -6.890625 L 2.671875 -6.890625 L 2.671875 -5.875 L 2.8125 -5.84375 C 2.976562 -6.226562 3.195312 -6.507812 3.46875 -6.6875 C 3.738281 -6.863281 4.066406 -6.953125 4.453125 -6.953125 C 4.835938 -6.953125 5.132812 -6.882812 5.34375 -6.75 L 5.046875 -5.265625 L 4.921875 -5.234375 C 4.804688 -5.285156 4.695312 -5.320312 4.59375 -5.34375 C 4.488281 -5.363281 4.363281 -5.375 4.21875 -5.375 C 3.726562 -5.375 3.351562 -5.203125 3.09375 -4.859375 C 2.84375 -4.515625 2.71875 -3.96875 2.71875 -3.21875 L 2.71875 0 Z M 1 0 "/></g></g></g><g fill="#001c73" fill-opacity="1"><g transform="translate(131.425958, 174.634661)"><g><path d="M 2.6875 0.125 C 2.25 0.125 1.863281 0.046875 1.53125 -0.109375 C 1.207031 -0.273438 0.957031 -0.515625 0.78125 -0.828125 C 0.613281 -1.140625 0.53125 -1.519531 0.53125 -1.96875 C 0.53125 -2.375 0.613281 -2.710938 0.78125 -2.984375 C 0.957031 -3.265625 1.226562 -3.492188 1.59375 -3.671875 C 1.96875 -3.847656 2.445312 -3.984375 3.03125 -4.078125 C 3.445312 -4.148438 3.757812 -4.222656 3.96875 -4.296875 C 4.1875 -4.378906 4.332031 -4.46875 4.40625 -4.5625 C 4.488281 -4.664062 4.53125 -4.796875 4.53125 -4.953125 C 4.53125 -5.171875 4.453125 -5.335938 4.296875 -5.453125 C 4.140625 -5.566406 3.882812 -5.625 3.53125 -5.625 C 3.144531 -5.625 2.773438 -5.539062 2.421875 -5.375 C 2.078125 -5.207031 1.78125 -4.984375 1.53125 -4.703125 L 1.40625 -4.703125 L 0.6875 -5.796875 C 1.03125 -6.179688 1.453125 -6.476562 1.953125 -6.6875 C 2.460938 -6.90625 3.015625 -7.015625 3.609375 -7.015625 C 4.523438 -7.015625 5.1875 -6.820312 5.59375 -6.4375 C 6 -6.050781 6.203125 -5.503906 6.203125 -4.796875 L 6.203125 -1.796875 C 6.203125 -1.492188 6.335938 -1.34375 6.609375 -1.34375 C 6.710938 -1.34375 6.816406 -1.359375 6.921875 -1.390625 L 7 -1.375 L 7.125 -0.15625 C 7.03125 -0.09375 6.894531 -0.0390625 6.71875 0 C 6.550781 0.03125 6.367188 0.046875 6.171875 0.046875 C 5.753906 0.046875 5.429688 -0.03125 5.203125 -0.1875 C 4.972656 -0.34375 4.804688 -0.59375 4.703125 -0.9375 L 4.578125 -0.9375 C 4.234375 -0.226562 3.601562 0.125 2.6875 0.125 Z M 3.234375 -1.15625 C 3.640625 -1.15625 3.960938 -1.289062 4.203125 -1.5625 C 4.441406 -1.832031 4.5625 -2.207031 4.5625 -2.6875 L 4.5625 -3.390625 L 4.4375 -3.40625 C 4.332031 -3.320312 4.195312 -3.253906 4.03125 -3.203125 C 3.863281 -3.148438 3.617188 -3.09375 3.296875 -3.03125 C 2.921875 -2.96875 2.648438 -2.859375 2.484375 -2.703125 C 2.328125 -2.554688 2.25 -2.34375 2.25 -2.0625 C 2.25 -1.769531 2.332031 -1.546875 2.5 -1.390625 C 2.675781 -1.234375 2.921875 -1.15625 3.234375 -1.15625 Z M 3.234375 -1.15625 "/></g></g></g><g fill="#001c73" fill-opacity="1"><g transform="translate(138.693265, 174.634661)"><g><path d="M 1 0 L 1 -6.890625 L 2.65625 -6.890625 L 2.65625 -5.875 L 2.78125 -5.84375 C 3.21875 -6.625 3.914062 -7.015625 4.875 -7.015625 C 5.664062 -7.015625 6.25 -6.796875 6.625 -6.359375 C 7 -5.929688 7.1875 -5.304688 7.1875 -4.484375 L 7.1875 0 L 5.453125 0 L 5.453125 -4.265625 C 5.453125 -4.722656 5.359375 -5.050781 5.171875 -5.25 C 4.992188 -5.457031 4.703125 -5.5625 4.296875 -5.5625 C 3.804688 -5.5625 3.421875 -5.398438 3.140625 -5.078125 C 2.859375 -4.753906 2.71875 -4.25 2.71875 -3.5625 L 2.71875 0 Z M 1 0 "/></g></g></g><g fill="#001c73" fill-opacity="1"><g transform="translate(146.766658, 174.634661)"><g><path d="M 3.21875 0.125 C 2.75 0.125 2.316406 0.0703125 1.921875 -0.03125 C 1.535156 -0.144531 1.203125 -0.296875 0.921875 -0.484375 C 0.648438 -0.679688 0.445312 -0.90625 0.3125 -1.15625 L 1.28125 -2.1875 L 1.40625 -2.1875 C 1.632812 -1.882812 1.90625 -1.65625 2.21875 -1.5 C 2.53125 -1.34375 2.867188 -1.265625 3.234375 -1.265625 C 3.578125 -1.265625 3.832031 -1.320312 4 -1.4375 C 4.164062 -1.5625 4.25 -1.738281 4.25 -1.96875 C 4.25 -2.144531 4.1875 -2.289062 4.0625 -2.40625 C 3.945312 -2.53125 3.75 -2.625 3.46875 -2.6875 L 2.5625 -2.90625 C 1.875 -3.070312 1.375 -3.320312 1.0625 -3.65625 C 0.75 -3.988281 0.59375 -4.414062 0.59375 -4.9375 C 0.59375 -5.363281 0.703125 -5.734375 0.921875 -6.046875 C 1.140625 -6.359375 1.445312 -6.597656 1.84375 -6.765625 C 2.238281 -6.929688 2.703125 -7.015625 3.234375 -7.015625 C 3.859375 -7.015625 4.375 -6.925781 4.78125 -6.75 C 5.1875 -6.570312 5.503906 -6.332031 5.734375 -6.03125 L 4.8125 -5.03125 L 4.6875 -5.03125 C 4.5 -5.25 4.285156 -5.40625 4.046875 -5.5 C 3.804688 -5.601562 3.535156 -5.65625 3.234375 -5.65625 C 2.554688 -5.65625 2.21875 -5.445312 2.21875 -5.03125 C 2.21875 -4.84375 2.28125 -4.691406 2.40625 -4.578125 C 2.53125 -4.472656 2.753906 -4.382812 3.078125 -4.3125 L 3.921875 -4.125 C 4.617188 -3.976562 5.128906 -3.738281 5.453125 -3.40625 C 5.773438 -3.070312 5.9375 -2.625 5.9375 -2.0625 C 5.9375 -1.625 5.828125 -1.238281 5.609375 -0.90625 C 5.398438 -0.570312 5.085938 -0.316406 4.671875 -0.140625 C 4.265625 0.0351562 3.78125 0.125 3.21875 0.125 Z M 3.21875 0.125 "/></g></g></g><g fill="#001c73" fill-opacity="1"><g transform="translate(153.121646, 174.634661)"><g><path d="M 1 2.796875 L 1 -6.890625 L 2.71875 -6.890625 L 2.71875 -6 L 2.859375 -5.96875 C 3.054688 -6.3125 3.328125 -6.570312 3.671875 -6.75 C 4.015625 -6.925781 4.414062 -7.015625 4.875 -7.015625 C 5.425781 -7.015625 5.910156 -6.882812 6.328125 -6.625 C 6.742188 -6.363281 7.066406 -5.960938 7.296875 -5.421875 C 7.523438 -4.890625 7.640625 -4.226562 7.640625 -3.4375 C 7.640625 -2.65625 7.515625 -1.992188 7.265625 -1.453125 C 7.023438 -0.921875 6.6875 -0.523438 6.25 -0.265625 C 5.820312 -0.00390625 5.328125 0.125 4.765625 0.125 C 4.335938 0.125 3.96875 0.0546875 3.65625 -0.078125 C 3.34375 -0.222656 3.078125 -0.445312 2.859375 -0.75 L 2.71875 -0.734375 L 2.71875 2.796875 Z M 4.28125 -1.34375 C 4.800781 -1.34375 5.191406 -1.507812 5.453125 -1.84375 C 5.722656 -2.175781 5.859375 -2.707031 5.859375 -3.4375 C 5.859375 -4.164062 5.722656 -4.703125 5.453125 -5.046875 C 5.191406 -5.390625 4.800781 -5.5625 4.28125 -5.5625 C 3.800781 -5.5625 3.414062 -5.382812 3.125 -5.03125 C 2.84375 -4.675781 2.703125 -4.144531 2.703125 -3.4375 C 2.703125 -2.738281 2.84375 -2.210938 3.125 -1.859375 C 3.414062 -1.515625 3.800781 -1.34375 4.28125 -1.34375 Z M 4.28125 -1.34375 "/></g></g></g><g fill="#001c73" fill-opacity="1"><g transform="translate(161.376256, 174.634661)"><g><path d="M 2.6875 0.125 C 2.25 0.125 1.863281 0.046875 1.53125 -0.109375 C 1.207031 -0.273438 0.957031 -0.515625 0.78125 -0.828125 C 0.613281 -1.140625 0.53125 -1.519531 0.53125 -1.96875 C 0.53125 -2.375 0.613281 -2.710938 0.78125 -2.984375 C 0.957031 -3.265625 1.226562 -3.492188 1.59375 -3.671875 C 1.96875 -3.847656 2.445312 -3.984375 3.03125 -4.078125 C 3.445312 -4.148438 3.757812 -4.222656 3.96875 -4.296875 C 4.1875 -4.378906 4.332031 -4.46875 4.40625 -4.5625 C 4.488281 -4.664062 4.53125 -4.796875 4.53125 -4.953125 C 4.53125 -5.171875 4.453125 -5.335938 4.296875 -5.453125 C 4.140625 -5.566406 3.882812 -5.625 3.53125 -5.625 C 3.144531 -5.625 2.773438 -5.539062 2.421875 -5.375 C 2.078125 -5.207031 1.78125 -4.984375 1.53125 -4.703125 L 1.40625 -4.703125 L 0.6875 -5.796875 C 1.03125 -6.179688 1.453125 -6.476562 1.953125 -6.6875 C 2.460938 -6.90625 3.015625 -7.015625 3.609375 -7.015625 C 4.523438 -7.015625 5.1875 -6.820312 5.59375 -6.4375 C 6 -6.050781 6.203125 -5.503906 6.203125 -4.796875 L 6.203125 -1.796875 C 6.203125 -1.492188 6.335938 -1.34375 6.609375 -1.34375 C 6.710938 -1.34375 6.816406 -1.359375 6.921875 -1.390625 L 7 -1.375 L 7.125 -0.15625 C 7.03125 -0.09375 6.894531 -0.0390625 6.71875 0 C 6.550781 0.03125 6.367188 0.046875 6.171875 0.046875 C 5.753906 0.046875 5.429688 -0.03125 5.203125 -0.1875 C 4.972656 -0.34375 4.804688 -0.59375 4.703125 -0.9375 L 4.578125 -0.9375 C 4.234375 -0.226562 3.601562 0.125 2.6875 0.125 Z M 3.234375 -1.15625 C 3.640625 -1.15625 3.960938 -1.289062 4.203125 -1.5625 C 4.441406 -1.832031 4.5625 -2.207031 4.5625 -2.6875 L 4.5625 -3.390625 L 4.4375 -3.40625 C 4.332031 -3.320312 4.195312 -3.253906 4.03125 -3.203125 C 3.863281 -3.148438 3.617188 -3.09375 3.296875 -3.03125 C 2.921875 -2.96875 2.648438 -2.859375 2.484375 -2.703125 C 2.328125 -2.554688 2.25 -2.34375 2.25 -2.0625 C 2.25 -1.769531 2.332031 -1.546875 2.5 -1.390625 C 2.675781 -1.234375 2.921875 -1.15625 3.234375 -1.15625 Z M 3.234375 -1.15625 "/></g></g></g><g fill="#001c73" fill-opacity="1"><g transform="translate(168.643563, 174.634661)"><g><path d="M 1 0 L 1 -6.890625 L 2.671875 -6.890625 L 2.671875 -5.875 L 2.8125 -5.84375 C 2.976562 -6.226562 3.195312 -6.507812 3.46875 -6.6875 C 3.738281 -6.863281 4.066406 -6.953125 4.453125 -6.953125 C 4.835938 -6.953125 5.132812 -6.882812 5.34375 -6.75 L 5.046875 -5.265625 L 4.921875 -5.234375 C 4.804688 -5.285156 4.695312 -5.320312 4.59375 -5.34375 C 4.488281 -5.363281 4.363281 -5.375 4.21875 -5.375 C 3.726562 -5.375 3.351562 -5.203125 3.09375 -4.859375 C 2.84375 -4.515625 2.71875 -3.96875 2.71875 -3.21875 L 2.71875 0 Z M 1 0 "/></g></g></g><g fill="#001c73" fill-opacity="1"><g transform="translate(174.04874, 174.634661)"><g><path d="M 6.8125 -3.0625 L 2.375 -3.0625 C 2.425781 -2.457031 2.597656 -2.019531 2.890625 -1.75 C 3.179688 -1.476562 3.582031 -1.34375 4.09375 -1.34375 C 4.488281 -1.34375 4.804688 -1.414062 5.046875 -1.5625 C 5.296875 -1.707031 5.492188 -1.929688 5.640625 -2.234375 L 5.78125 -2.234375 L 6.921875 -1.5 C 6.691406 -1.007812 6.347656 -0.613281 5.890625 -0.3125 C 5.441406 -0.0195312 4.84375 0.125 4.09375 0.125 C 3.375 0.125 2.753906 -0.0078125 2.234375 -0.28125 C 1.722656 -0.550781 1.328125 -0.953125 1.046875 -1.484375 C 0.765625 -2.015625 0.625 -2.664062 0.625 -3.4375 C 0.625 -4.226562 0.769531 -4.890625 1.0625 -5.421875 C 1.351562 -5.960938 1.75 -6.363281 2.25 -6.625 C 2.757812 -6.882812 3.332031 -7.015625 3.96875 -7.015625 C 4.9375 -7.015625 5.679688 -6.753906 6.203125 -6.234375 C 6.722656 -5.722656 6.984375 -4.96875 6.984375 -3.96875 C 6.984375 -3.613281 6.96875 -3.332031 6.9375 -3.125 Z M 5.328125 -4.171875 C 5.304688 -4.703125 5.179688 -5.085938 4.953125 -5.328125 C 4.734375 -5.566406 4.40625 -5.6875 3.96875 -5.6875 C 3.09375 -5.6875 2.578125 -5.179688 2.421875 -4.171875 Z M 5.328125 -4.171875 "/></g></g></g><g fill="#001c73" fill-opacity="1"><g transform="translate(181.541002, 174.634661)"><g><path d="M 1 0 L 1 -6.890625 L 2.65625 -6.890625 L 2.65625 -5.875 L 2.78125 -5.84375 C 3.21875 -6.625 3.914062 -7.015625 4.875 -7.015625 C 5.664062 -7.015625 6.25 -6.796875 6.625 -6.359375 C 7 -5.929688 7.1875 -5.304688 7.1875 -4.484375 L 7.1875 0 L 5.453125 0 L 5.453125 -4.265625 C 5.453125 -4.722656 5.359375 -5.050781 5.171875 -5.25 C 4.992188 -5.457031 4.703125 -5.5625 4.296875 -5.5625 C 3.804688 -5.5625 3.421875 -5.398438 3.140625 -5.078125 C 2.859375 -4.753906 2.71875 -4.25 2.71875 -3.5625 L 2.71875 0 Z M 1 0 "/></g></g></g><g fill="#001c73" fill-opacity="1"><g transform="translate(189.614395, 174.634661)"><g><path d="M 4.015625 0.125 C 3.347656 0.125 2.757812 -0.0078125 2.25 -0.28125 C 1.738281 -0.5625 1.335938 -0.96875 1.046875 -1.5 C 0.765625 -2.039062 0.625 -2.6875 0.625 -3.4375 C 0.625 -4.195312 0.765625 -4.84375 1.046875 -5.375 C 1.335938 -5.914062 1.734375 -6.320312 2.234375 -6.59375 C 2.742188 -6.875 3.328125 -7.015625 3.984375 -7.015625 C 5.441406 -7.015625 6.375 -6.488281 6.78125 -5.4375 L 5.59375 -4.59375 L 5.46875 -4.59375 C 5.320312 -4.914062 5.132812 -5.15625 4.90625 -5.3125 C 4.675781 -5.476562 4.367188 -5.5625 3.984375 -5.5625 C 3.484375 -5.5625 3.09375 -5.382812 2.8125 -5.03125 C 2.539062 -4.6875 2.40625 -4.15625 2.40625 -3.4375 C 2.40625 -2.726562 2.546875 -2.203125 2.828125 -1.859375 C 3.109375 -1.515625 3.503906 -1.34375 4.015625 -1.34375 C 4.390625 -1.34375 4.707031 -1.441406 4.96875 -1.640625 C 5.226562 -1.835938 5.414062 -2.128906 5.53125 -2.515625 L 5.65625 -2.53125 L 6.890625 -1.84375 C 6.710938 -1.257812 6.390625 -0.785156 5.921875 -0.421875 C 5.453125 -0.0546875 4.816406 0.125 4.015625 0.125 Z M 4.015625 0.125 "/></g></g></g><g fill="#001c73" fill-opacity="1"><g transform="translate(196.719234, 174.634661)"><g><path d="M 1.53125 2.921875 C 1.226562 2.921875 0.957031 2.894531 0.71875 2.84375 C 0.476562 2.800781 0.285156 2.742188 0.140625 2.671875 L 0.40625 1.28125 L 0.53125 1.234375 C 0.632812 1.285156 0.757812 1.328125 0.90625 1.359375 C 1.0625 1.398438 1.222656 1.421875 1.390625 1.421875 C 1.671875 1.421875 1.898438 1.382812 2.078125 1.3125 C 2.265625 1.238281 2.421875 1.113281 2.546875 0.9375 C 2.679688 0.769531 2.800781 0.539062 2.90625 0.25 L 0.15625 -6.890625 L 1.96875 -6.890625 L 3.671875 -2.09375 L 3.828125 -2.09375 L 5.5 -6.890625 L 7.25 -6.890625 L 4.484375 0.4375 C 4.265625 1.019531 4.019531 1.492188 3.75 1.859375 C 3.488281 2.222656 3.175781 2.488281 2.8125 2.65625 C 2.457031 2.832031 2.03125 2.921875 1.53125 2.921875 Z M 1.53125 2.921875 "/></g></g></g><g fill="#001c73" fill-opacity="1"><g transform="translate(204.117761, 174.634661)"><g/></g></g><g fill="#001c73" fill-opacity="1"><g transform="translate(207.135914, 174.634661)"><g><path d="M 1.859375 -7.71875 C 1.546875 -7.71875 1.289062 -7.8125 1.09375 -8 C 0.894531 -8.1875 0.796875 -8.429688 0.796875 -8.734375 C 0.796875 -9.023438 0.894531 -9.265625 1.09375 -9.453125 C 1.289062 -9.648438 1.546875 -9.75 1.859375 -9.75 C 2.066406 -9.75 2.25 -9.703125 2.40625 -9.609375 C 2.570312 -9.523438 2.695312 -9.40625 2.78125 -9.25 C 2.875 -9.101562 2.921875 -8.929688 2.921875 -8.734375 C 2.921875 -8.535156 2.875 -8.359375 2.78125 -8.203125 C 2.695312 -8.054688 2.570312 -7.9375 2.40625 -7.84375 C 2.25 -7.757812 2.066406 -7.71875 1.859375 -7.71875 Z M 1 0 L 1 -6.890625 L 2.71875 -6.890625 L 2.71875 0 Z M 1 0 "/></g></g></g><g fill="#001c73" fill-opacity="1"><g transform="translate(210.847675, 174.634661)"><g><path d="M 3.21875 0.125 C 2.75 0.125 2.316406 0.0703125 1.921875 -0.03125 C 1.535156 -0.144531 1.203125 -0.296875 0.921875 -0.484375 C 0.648438 -0.679688 0.445312 -0.90625 0.3125 -1.15625 L 1.28125 -2.1875 L 1.40625 -2.1875 C 1.632812 -1.882812 1.90625 -1.65625 2.21875 -1.5 C 2.53125 -1.34375 2.867188 -1.265625 3.234375 -1.265625 C 3.578125 -1.265625 3.832031 -1.320312 4 -1.4375 C 4.164062 -1.5625 4.25 -1.738281 4.25 -1.96875 C 4.25 -2.144531 4.1875 -2.289062 4.0625 -2.40625 C 3.945312 -2.53125 3.75 -2.625 3.46875 -2.6875 L 2.5625 -2.90625 C 1.875 -3.070312 1.375 -3.320312 1.0625 -3.65625 C 0.75 -3.988281 0.59375 -4.414062 0.59375 -4.9375 C 0.59375 -5.363281 0.703125 -5.734375 0.921875 -6.046875 C 1.140625 -6.359375 1.445312 -6.597656 1.84375 -6.765625 C 2.238281 -6.929688 2.703125 -7.015625 3.234375 -7.015625 C 3.859375 -7.015625 4.375 -6.925781 4.78125 -6.75 C 5.1875 -6.570312 5.503906 -6.332031 5.734375 -6.03125 L 4.8125 -5.03125 L 4.6875 -5.03125 C 4.5 -5.25 4.285156 -5.40625 4.046875 -5.5 C 3.804688 -5.601562 3.535156 -5.65625 3.234375 -5.65625 C 2.554688 -5.65625 2.21875 -5.445312 2.21875 -5.03125 C 2.21875 -4.84375 2.28125 -4.691406 2.40625 -4.578125 C 2.53125 -4.472656 2.753906 -4.382812 3.078125 -4.3125 L 3.921875 -4.125 C 4.617188 -3.976562 5.128906 -3.738281 5.453125 -3.40625 C 5.773438 -3.070312 5.9375 -2.625 5.9375 -2.0625 C 5.9375 -1.625 5.828125 -1.238281 5.609375 -0.90625 C 5.398438 -0.570312 5.085938 -0.316406 4.671875 -0.140625 C 4.265625 0.0351562 3.78125 0.125 3.21875 0.125 Z M 3.21875 0.125 "/></g></g></g><g fill="#001c73" fill-opacity="1"><g transform="translate(217.202663, 174.634661)"><g/></g></g><g fill="#001c73" fill-opacity="1"><g transform="translate(220.220816, 174.634661)"><g><path d="M 4 0.125 C 3.332031 0.125 2.742188 -0.0078125 2.234375 -0.28125 C 1.722656 -0.5625 1.328125 -0.96875 1.046875 -1.5 C 0.765625 -2.039062 0.625 -2.6875 0.625 -3.4375 C 0.625 -4.195312 0.765625 -4.84375 1.046875 -5.375 C 1.328125 -5.914062 1.722656 -6.320312 2.234375 -6.59375 C 2.742188 -6.875 3.332031 -7.015625 4 -7.015625 C 4.675781 -7.015625 5.269531 -6.875 5.78125 -6.59375 C 6.289062 -6.320312 6.6875 -5.914062 6.96875 -5.375 C 7.25 -4.84375 7.390625 -4.195312 7.390625 -3.4375 C 7.390625 -2.6875 7.25 -2.039062 6.96875 -1.5 C 6.6875 -0.96875 6.289062 -0.5625 5.78125 -0.28125 C 5.269531 -0.0078125 4.675781 0.125 4 0.125 Z M 4 -1.34375 C 5.070312 -1.34375 5.609375 -2.039062 5.609375 -3.4375 C 5.609375 -4.164062 5.46875 -4.703125 5.1875 -5.046875 C 4.914062 -5.390625 4.519531 -5.5625 4 -5.5625 C 2.9375 -5.5625 2.40625 -4.851562 2.40625 -3.4375 C 2.40625 -2.039062 2.9375 -1.34375 4 -1.34375 Z M 4 -1.34375 "/></g></g></g><g fill="#001c73" fill-opacity="1"><g transform="translate(228.231721, 174.634661)"><g><path d="M 3.15625 0.125 C 2.382812 0.125 1.8125 -0.0820312 1.4375 -0.5 C 1.070312 -0.925781 0.890625 -1.535156 0.890625 -2.328125 L 0.890625 -6.890625 L 2.625 -6.890625 L 2.625 -2.546875 C 2.625 -2.117188 2.710938 -1.804688 2.890625 -1.609375 C 3.066406 -1.421875 3.347656 -1.328125 3.734375 -1.328125 C 4.210938 -1.328125 4.582031 -1.484375 4.84375 -1.796875 C 5.113281 -2.117188 5.25 -2.613281 5.25 -3.28125 L 5.25 -6.890625 L 6.984375 -6.890625 L 6.984375 0 L 5.3125 0 L 5.3125 -1.015625 L 5.1875 -1.046875 C 4.96875 -0.648438 4.695312 -0.351562 4.375 -0.15625 C 4.0625 0.03125 3.65625 0.125 3.15625 0.125 Z M 3.15625 0.125 "/></g></g></g><g fill="#001c73" fill-opacity="1"><g transform="translate(236.205134, 174.634661)"><g><path d="M 1 0 L 1 -6.890625 L 2.671875 -6.890625 L 2.671875 -5.875 L 2.8125 -5.84375 C 2.976562 -6.226562 3.195312 -6.507812 3.46875 -6.6875 C 3.738281 -6.863281 4.066406 -6.953125 4.453125 -6.953125 C 4.835938 -6.953125 5.132812 -6.882812 5.34375 -6.75 L 5.046875 -5.265625 L 4.921875 -5.234375 C 4.804688 -5.285156 4.695312 -5.320312 4.59375 -5.34375 C 4.488281 -5.363281 4.363281 -5.375 4.21875 -5.375 C 3.726562 -5.375 3.351562 -5.203125 3.09375 -4.859375 C 2.84375 -4.515625 2.71875 -3.96875 2.71875 -3.21875 L 2.71875 0 Z M 1 0 "/></g></g></g><g fill="#001c73" fill-opacity="1"><g transform="translate(132.171994, 192.525186)"><g><path d="M 1.203125 0 L 1.203125 -5.53125 L 0.234375 -5.53125 L 0.234375 -6.890625 L 1.203125 -6.890625 C 1.128906 -7.179688 1.09375 -7.457031 1.09375 -7.71875 C 1.09375 -8.15625 1.191406 -8.523438 1.390625 -8.828125 C 1.597656 -9.140625 1.890625 -9.378906 2.265625 -9.546875 C 2.640625 -9.710938 3.082031 -9.796875 3.59375 -9.796875 C 4.363281 -9.796875 4.9375 -9.660156 5.3125 -9.390625 L 4.90625 -8.125 L 4.765625 -8.09375 C 4.503906 -8.28125 4.175781 -8.375 3.78125 -8.375 C 3.46875 -8.375 3.234375 -8.296875 3.078125 -8.140625 C 2.921875 -7.992188 2.84375 -7.785156 2.84375 -7.515625 C 2.84375 -7.410156 2.847656 -7.3125 2.859375 -7.21875 C 2.867188 -7.125 2.894531 -7.015625 2.9375 -6.890625 L 4.90625 -6.890625 L 4.90625 -5.53125 L 2.9375 -5.53125 L 2.9375 0 Z M 1.203125 0 "/></g></g></g><g fill="#001c73" fill-opacity="1"><g transform="translate(137.146004, 192.525186)"><g><path d="M 4 0.125 C 3.332031 0.125 2.742188 -0.0078125 2.234375 -0.28125 C 1.722656 -0.5625 1.328125 -0.96875 1.046875 -1.5 C 0.765625 -2.039062 0.625 -2.6875 0.625 -3.4375 C 0.625 -4.195312 0.765625 -4.84375 1.046875 -5.375 C 1.328125 -5.914062 1.722656 -6.320312 2.234375 -6.59375 C 2.742188 -6.875 3.332031 -7.015625 4 -7.015625 C 4.675781 -7.015625 5.269531 -6.875 5.78125 -6.59375 C 6.289062 -6.320312 6.6875 -5.914062 6.96875 -5.375 C 7.25 -4.84375 7.390625 -4.195312 7.390625 -3.4375 C 7.390625 -2.6875 7.25 -2.039062 6.96875 -1.5 C 6.6875 -0.96875 6.289062 -0.5625 5.78125 -0.28125 C 5.269531 -0.0078125 4.675781 0.125 4 0.125 Z M 4 -1.34375 C 5.070312 -1.34375 5.609375 -2.039062 5.609375 -3.4375 C 5.609375 -4.164062 5.46875 -4.703125 5.1875 -5.046875 C 4.914062 -5.390625 4.519531 -5.5625 4 -5.5625 C 2.9375 -5.5625 2.40625 -4.851562 2.40625 -3.4375 C 2.40625 -2.039062 2.9375 -1.34375 4 -1.34375 Z M 4 -1.34375 "/></g></g></g><g fill="#001c73" fill-opacity="1"><g transform="translate(145.156909, 192.525186)"><g><path d="M 3.15625 0.125 C 2.382812 0.125 1.8125 -0.0820312 1.4375 -0.5 C 1.070312 -0.925781 0.890625 -1.535156 0.890625 -2.328125 L 0.890625 -6.890625 L 2.625 -6.890625 L 2.625 -2.546875 C 2.625 -2.117188 2.710938 -1.804688 2.890625 -1.609375 C 3.066406 -1.421875 3.347656 -1.328125 3.734375 -1.328125 C 4.210938 -1.328125 4.582031 -1.484375 4.84375 -1.796875 C 5.113281 -2.117188 5.25 -2.613281 5.25 -3.28125 L 5.25 -6.890625 L 6.984375 -6.890625 L 6.984375 0 L 5.3125 0 L 5.3125 -1.015625 L 5.1875 -1.046875 C 4.96875 -0.648438 4.695312 -0.351562 4.375 -0.15625 C 4.0625 0.03125 3.65625 0.125 3.15625 0.125 Z M 3.15625 0.125 "/></g></g></g><g fill="#001c73" fill-opacity="1"><g transform="translate(153.130322, 192.525186)"><g><path d="M 1 0 L 1 -6.890625 L 2.65625 -6.890625 L 2.65625 -5.875 L 2.78125 -5.84375 C 3.21875 -6.625 3.914062 -7.015625 4.875 -7.015625 C 5.664062 -7.015625 6.25 -6.796875 6.625 -6.359375 C 7 -5.929688 7.1875 -5.304688 7.1875 -4.484375 L 7.1875 0 L 5.453125 0 L 5.453125 -4.265625 C 5.453125 -4.722656 5.359375 -5.050781 5.171875 -5.25 C 4.992188 -5.457031 4.703125 -5.5625 4.296875 -5.5625 C 3.804688 -5.5625 3.421875 -5.398438 3.140625 -5.078125 C 2.859375 -4.753906 2.71875 -4.25 2.71875 -3.5625 L 2.71875 0 Z M 1 0 "/></g></g></g><g fill="#001c73" fill-opacity="1"><g transform="translate(161.203715, 192.525186)"><g><path d="M 3.40625 0.125 C 2.863281 0.125 2.378906 -0.00390625 1.953125 -0.265625 C 1.535156 -0.523438 1.207031 -0.921875 0.96875 -1.453125 C 0.738281 -1.992188 0.625 -2.65625 0.625 -3.4375 C 0.625 -4.226562 0.742188 -4.890625 0.984375 -5.421875 C 1.222656 -5.960938 1.554688 -6.363281 1.984375 -6.625 C 2.421875 -6.882812 2.925781 -7.015625 3.5 -7.015625 C 3.925781 -7.015625 4.296875 -6.941406 4.609375 -6.796875 C 4.921875 -6.648438 5.1875 -6.421875 5.40625 -6.109375 L 5.53125 -6.140625 L 5.53125 -9.65625 L 7.265625 -9.65625 L 7.265625 0 L 5.53125 0 L 5.53125 -0.890625 L 5.40625 -0.921875 C 5.21875 -0.597656 4.957031 -0.34375 4.625 -0.15625 C 4.289062 0.03125 3.882812 0.125 3.40625 0.125 Z M 3.96875 -1.34375 C 4.457031 -1.34375 4.84375 -1.515625 5.125 -1.859375 C 5.40625 -2.203125 5.546875 -2.726562 5.546875 -3.4375 C 5.546875 -4.144531 5.40625 -4.675781 5.125 -5.03125 C 4.84375 -5.382812 4.457031 -5.5625 3.96875 -5.5625 C 3.457031 -5.5625 3.066406 -5.390625 2.796875 -5.046875 C 2.535156 -4.703125 2.40625 -4.164062 2.40625 -3.4375 C 2.40625 -2.71875 2.535156 -2.1875 2.796875 -1.84375 C 3.066406 -1.507812 3.457031 -1.34375 3.96875 -1.34375 Z M 3.96875 -1.34375 "/></g></g></g><g fill="#001c73" fill-opacity="1"><g transform="translate(169.464571, 192.525186)"><g><path d="M 2.6875 0.125 C 2.25 0.125 1.863281 0.046875 1.53125 -0.109375 C 1.207031 -0.273438 0.957031 -0.515625 0.78125 -0.828125 C 0.613281 -1.140625 0.53125 -1.519531 0.53125 -1.96875 C 0.53125 -2.375 0.613281 -2.710938 0.78125 -2.984375 C 0.957031 -3.265625 1.226562 -3.492188 1.59375 -3.671875 C 1.96875 -3.847656 2.445312 -3.984375 3.03125 -4.078125 C 3.445312 -4.148438 3.757812 -4.222656 3.96875 -4.296875 C 4.1875 -4.378906 4.332031 -4.46875 4.40625 -4.5625 C 4.488281 -4.664062 4.53125 -4.796875 4.53125 -4.953125 C 4.53125 -5.171875 4.453125 -5.335938 4.296875 -5.453125 C 4.140625 -5.566406 3.882812 -5.625 3.53125 -5.625 C 3.144531 -5.625 2.773438 -5.539062 2.421875 -5.375 C 2.078125 -5.207031 1.78125 -4.984375 1.53125 -4.703125 L 1.40625 -4.703125 L 0.6875 -5.796875 C 1.03125 -6.179688 1.453125 -6.476562 1.953125 -6.6875 C 2.460938 -6.90625 3.015625 -7.015625 3.609375 -7.015625 C 4.523438 -7.015625 5.1875 -6.820312 5.59375 -6.4375 C 6 -6.050781 6.203125 -5.503906 6.203125 -4.796875 L 6.203125 -1.796875 C 6.203125 -1.492188 6.335938 -1.34375 6.609375 -1.34375 C 6.710938 -1.34375 6.816406 -1.359375 6.921875 -1.390625 L 7 -1.375 L 7.125 -0.15625 C 7.03125 -0.09375 6.894531 -0.0390625 6.71875 0 C 6.550781 0.03125 6.367188 0.046875 6.171875 0.046875 C 5.753906 0.046875 5.429688 -0.03125 5.203125 -0.1875 C 4.972656 -0.34375 4.804688 -0.59375 4.703125 -0.9375 L 4.578125 -0.9375 C 4.234375 -0.226562 3.601562 0.125 2.6875 0.125 Z M 3.234375 -1.15625 C 3.640625 -1.15625 3.960938 -1.289062 4.203125 -1.5625 C 4.441406 -1.832031 4.5625 -2.207031 4.5625 -2.6875 L 4.5625 -3.390625 L 4.4375 -3.40625 C 4.332031 -3.320312 4.195312 -3.253906 4.03125 -3.203125 C 3.863281 -3.148438 3.617188 -3.09375 3.296875 -3.03125 C 2.921875 -2.96875 2.648438 -2.859375 2.484375 -2.703125 C 2.328125 -2.554688 2.25 -2.34375 2.25 -2.0625 C 2.25 -1.769531 2.332031 -1.546875 2.5 -1.390625 C 2.675781 -1.234375 2.921875 -1.15625 3.234375 -1.15625 Z M 3.234375 -1.15625 "/></g></g></g><g fill="#001c73" fill-opacity="1"><g transform="translate(176.731877, 192.525186)"><g><path d="M 4.75 -1.640625 L 5.203125 -0.359375 C 5.015625 -0.203125 4.78125 -0.0820312 4.5 0 C 4.21875 0.0820312 3.894531 0.125 3.53125 0.125 C 2.789062 0.125 2.222656 -0.078125 1.828125 -0.484375 C 1.441406 -0.890625 1.25 -1.476562 1.25 -2.25 L 1.25 -5.53125 L 0.203125 -5.53125 L 0.203125 -6.890625 L 1.25 -6.890625 L 1.25 -8.234375 L 2.984375 -8.515625 L 2.984375 -6.890625 L 4.9375 -6.890625 L 4.9375 -5.53125 L 2.984375 -5.53125 L 2.984375 -2.375 C 2.984375 -2.03125 3.050781 -1.78125 3.1875 -1.625 C 3.332031 -1.46875 3.539062 -1.390625 3.8125 -1.390625 C 4.125 -1.390625 4.394531 -1.472656 4.625 -1.640625 Z M 4.75 -1.640625 "/></g></g></g><g fill="#001c73" fill-opacity="1"><g transform="translate(182.087065, 192.525186)"><g><path d="M 1.859375 -7.71875 C 1.546875 -7.71875 1.289062 -7.8125 1.09375 -8 C 0.894531 -8.1875 0.796875 -8.429688 0.796875 -8.734375 C 0.796875 -9.023438 0.894531 -9.265625 1.09375 -9.453125 C 1.289062 -9.648438 1.546875 -9.75 1.859375 -9.75 C 2.066406 -9.75 2.25 -9.703125 2.40625 -9.609375 C 2.570312 -9.523438 2.695312 -9.40625 2.78125 -9.25 C 2.875 -9.101562 2.921875 -8.929688 2.921875 -8.734375 C 2.921875 -8.535156 2.875 -8.359375 2.78125 -8.203125 C 2.695312 -8.054688 2.570312 -7.9375 2.40625 -7.84375 C 2.25 -7.757812 2.066406 -7.71875 1.859375 -7.71875 Z M 1 0 L 1 -6.890625 L 2.71875 -6.890625 L 2.71875 0 Z M 1 0 "/></g></g></g><g fill="#001c73" fill-opacity="1"><g transform="translate(185.798826, 192.525186)"><g><path d="M 4 0.125 C 3.332031 0.125 2.742188 -0.0078125 2.234375 -0.28125 C 1.722656 -0.5625 1.328125 -0.96875 1.046875 -1.5 C 0.765625 -2.039062 0.625 -2.6875 0.625 -3.4375 C 0.625 -4.195312 0.765625 -4.84375 1.046875 -5.375 C 1.328125 -5.914062 1.722656 -6.320312 2.234375 -6.59375 C 2.742188 -6.875 3.332031 -7.015625 4 -7.015625 C 4.675781 -7.015625 5.269531 -6.875 5.78125 -6.59375 C 6.289062 -6.320312 6.6875 -5.914062 6.96875 -5.375 C 7.25 -4.84375 7.390625 -4.195312 7.390625 -3.4375 C 7.390625 -2.6875 7.25 -2.039062 6.96875 -1.5 C 6.6875 -0.96875 6.289062 -0.5625 5.78125 -0.28125 C 5.269531 -0.0078125 4.675781 0.125 4 0.125 Z M 4 -1.34375 C 5.070312 -1.34375 5.609375 -2.039062 5.609375 -3.4375 C 5.609375 -4.164062 5.46875 -4.703125 5.1875 -5.046875 C 4.914062 -5.390625 4.519531 -5.5625 4 -5.5625 C 2.9375 -5.5625 2.40625 -4.851562 2.40625 -3.4375 C 2.40625 -2.039062 2.9375 -1.34375 4 -1.34375 Z M 4 -1.34375 "/></g></g></g><g fill="#001c73" fill-opacity="1"><g transform="translate(193.809731, 192.525186)"><g><path d="M 1 0 L 1 -6.890625 L 2.65625 -6.890625 L 2.65625 -5.875 L 2.78125 -5.84375 C 3.21875 -6.625 3.914062 -7.015625 4.875 -7.015625 C 5.664062 -7.015625 6.25 -6.796875 6.625 -6.359375 C 7 -5.929688 7.1875 -5.304688 7.1875 -4.484375 L 7.1875 0 L 5.453125 0 L 5.453125 -4.265625 C 5.453125 -4.722656 5.359375 -5.050781 5.171875 -5.25 C 4.992188 -5.457031 4.703125 -5.5625 4.296875 -5.5625 C 3.804688 -5.5625 3.421875 -5.398438 3.140625 -5.078125 C 2.859375 -4.753906 2.71875 -4.25 2.71875 -3.5625 L 2.71875 0 Z M 1 0 "/></g></g></g><g fill="#001c73" fill-opacity="1"><g transform="translate(201.883124, 192.525186)"><g><path d="M 1.765625 0.0625 C 1.546875 0.0625 1.347656 0.015625 1.171875 -0.078125 C 1.003906 -0.171875 0.875 -0.296875 0.78125 -0.453125 C 0.695312 -0.609375 0.65625 -0.785156 0.65625 -0.984375 C 0.65625 -1.179688 0.695312 -1.359375 0.78125 -1.515625 C 0.875 -1.679688 1.003906 -1.804688 1.171875 -1.890625 C 1.347656 -1.984375 1.546875 -2.03125 1.765625 -2.03125 C 1.984375 -2.03125 2.175781 -1.984375 2.34375 -1.890625 C 2.519531 -1.804688 2.648438 -1.6875 2.734375 -1.53125 C 2.828125 -1.375 2.875 -1.195312 2.875 -1 C 2.875 -0.6875 2.769531 -0.429688 2.5625 -0.234375 C 2.363281 -0.0351562 2.097656 0.0625 1.765625 0.0625 Z M 1.765625 0.0625 "/></g></g></g><g fill="#001c73" fill-opacity="1"><g transform="translate(205.413675, 192.525186)"><g/></g></g><g fill="#001c73" fill-opacity="1"><g transform="translate(208.431827, 192.525186)"><g><path d="M 4.359375 0 L 2.34375 0 L 0.25 -9.140625 L 2.046875 -9.140625 L 3.4375 -2.71875 L 3.59375 -2.71875 L 5.21875 -9.140625 L 6.765625 -9.140625 L 8.4375 -2.71875 L 8.59375 -2.71875 L 9.984375 -9.140625 L 11.71875 -9.140625 L 9.625 0 L 7.609375 0 L 6 -5.890625 L 5.875 -5.890625 Z M 4.359375 0 "/></g></g></g><g fill="#001c73" fill-opacity="1"><g transform="translate(220.391946, 192.525186)"><g><path d="M 6.8125 -3.0625 L 2.375 -3.0625 C 2.425781 -2.457031 2.597656 -2.019531 2.890625 -1.75 C 3.179688 -1.476562 3.582031 -1.34375 4.09375 -1.34375 C 4.488281 -1.34375 4.804688 -1.414062 5.046875 -1.5625 C 5.296875 -1.707031 5.492188 -1.929688 5.640625 -2.234375 L 5.78125 -2.234375 L 6.921875 -1.5 C 6.691406 -1.007812 6.347656 -0.613281 5.890625 -0.3125 C 5.441406 -0.0195312 4.84375 0.125 4.09375 0.125 C 3.375 0.125 2.753906 -0.0078125 2.234375 -0.28125 C 1.722656 -0.550781 1.328125 -0.953125 1.046875 -1.484375 C 0.765625 -2.015625 0.625 -2.664062 0.625 -3.4375 C 0.625 -4.226562 0.769531 -4.890625 1.0625 -5.421875 C 1.351562 -5.960938 1.75 -6.363281 2.25 -6.625 C 2.757812 -6.882812 3.332031 -7.015625 3.96875 -7.015625 C 4.9375 -7.015625 5.679688 -6.753906 6.203125 -6.234375 C 6.722656 -5.722656 6.984375 -4.96875 6.984375 -3.96875 C 6.984375 -3.613281 6.96875 -3.332031 6.9375 -3.125 Z M 5.328125 -4.171875 C 5.304688 -4.703125 5.179688 -5.085938 4.953125 -5.328125 C 4.734375 -5.566406 4.40625 -5.6875 3.96875 -5.6875 C 3.09375 -5.6875 2.578125 -5.179688 2.421875 -4.171875 Z M 5.328125 -4.171875 "/></g></g></g><g fill="#001c73" fill-opacity="1"><g transform="translate(115.815527, 210.415711)"><g><path d="M 4.015625 0.125 C 3.347656 0.125 2.757812 -0.0078125 2.25 -0.28125 C 1.738281 -0.5625 1.335938 -0.96875 1.046875 -1.5 C 0.765625 -2.039062 0.625 -2.6875 0.625 -3.4375 C 0.625 -4.195312 0.765625 -4.84375 1.046875 -5.375 C 1.335938 -5.914062 1.734375 -6.320312 2.234375 -6.59375 C 2.742188 -6.875 3.328125 -7.015625 3.984375 -7.015625 C 5.441406 -7.015625 6.375 -6.488281 6.78125 -5.4375 L 5.59375 -4.59375 L 5.46875 -4.59375 C 5.320312 -4.914062 5.132812 -5.15625 4.90625 -5.3125 C 4.675781 -5.476562 4.367188 -5.5625 3.984375 -5.5625 C 3.484375 -5.5625 3.09375 -5.382812 2.8125 -5.03125 C 2.539062 -4.6875 2.40625 -4.15625 2.40625 -3.4375 C 2.40625 -2.726562 2.546875 -2.203125 2.828125 -1.859375 C 3.109375 -1.515625 3.503906 -1.34375 4.015625 -1.34375 C 4.390625 -1.34375 4.707031 -1.441406 4.96875 -1.640625 C 5.226562 -1.835938 5.414062 -2.128906 5.53125 -2.515625 L 5.65625 -2.53125 L 6.890625 -1.84375 C 6.710938 -1.257812 6.390625 -0.785156 5.921875 -0.421875 C 5.453125 -0.0546875 4.816406 0.125 4.015625 0.125 Z M 4.015625 0.125 "/></g></g></g><g fill="#001c73" fill-opacity="1"><g transform="translate(122.920366, 210.415711)"><g><path d="M 4 0.125 C 3.332031 0.125 2.742188 -0.0078125 2.234375 -0.28125 C 1.722656 -0.5625 1.328125 -0.96875 1.046875 -1.5 C 0.765625 -2.039062 0.625 -2.6875 0.625 -3.4375 C 0.625 -4.195312 0.765625 -4.84375 1.046875 -5.375 C 1.328125 -5.914062 1.722656 -6.320312 2.234375 -6.59375 C 2.742188 -6.875 3.332031 -7.015625 4 -7.015625 C 4.675781 -7.015625 5.269531 -6.875 5.78125 -6.59375 C 6.289062 -6.320312 6.6875 -5.914062 6.96875 -5.375 C 7.25 -4.84375 7.390625 -4.195312 7.390625 -3.4375 C 7.390625 -2.6875 7.25 -2.039062 6.96875 -1.5 C 6.6875 -0.96875 6.289062 -0.5625 5.78125 -0.28125 C 5.269531 -0.0078125 4.675781 0.125 4 0.125 Z M 4 -1.34375 C 5.070312 -1.34375 5.609375 -2.039062 5.609375 -3.4375 C 5.609375 -4.164062 5.46875 -4.703125 5.1875 -5.046875 C 4.914062 -5.390625 4.519531 -5.5625 4 -5.5625 C 2.9375 -5.5625 2.40625 -4.851562 2.40625 -3.4375 C 2.40625 -2.039062 2.9375 -1.34375 4 -1.34375 Z M 4 -1.34375 "/></g></g></g><g fill="#001c73" fill-opacity="1"><g transform="translate(130.931271, 210.415711)"><g><path d="M 1 0 L 1 -6.890625 L 2.65625 -6.890625 L 2.65625 -5.96875 L 2.78125 -5.9375 C 3.007812 -6.3125 3.273438 -6.582031 3.578125 -6.75 C 3.878906 -6.925781 4.265625 -7.015625 4.734375 -7.015625 C 5.253906 -7.015625 5.671875 -6.910156 5.984375 -6.703125 C 6.304688 -6.503906 6.539062 -6.207031 6.6875 -5.8125 L 6.8125 -5.8125 C 7.03125 -6.21875 7.304688 -6.519531 7.640625 -6.71875 C 7.972656 -6.914062 8.390625 -7.015625 8.890625 -7.015625 C 10.316406 -7.015625 11.03125 -6.222656 11.03125 -4.640625 L 11.03125 0 L 9.296875 0 L 9.296875 -4.421875 C 9.296875 -4.828125 9.21875 -5.117188 9.0625 -5.296875 C 8.90625 -5.472656 8.648438 -5.5625 8.296875 -5.5625 C 7.347656 -5.5625 6.875 -4.925781 6.875 -3.65625 L 6.875 0 L 5.15625 0 L 5.15625 -4.421875 C 5.15625 -4.828125 5.070312 -5.117188 4.90625 -5.296875 C 4.75 -5.472656 4.492188 -5.5625 4.140625 -5.5625 C 3.691406 -5.5625 3.34375 -5.410156 3.09375 -5.109375 C 2.84375 -4.816406 2.71875 -4.34375 2.71875 -3.6875 L 2.71875 0 Z M 1 0 "/></g></g></g><g fill="#001c73" fill-opacity="1"><g transform="translate(142.853898, 210.415711)"><g><path d="M 1 0 L 1 -6.890625 L 2.65625 -6.890625 L 2.65625 -5.96875 L 2.78125 -5.9375 C 3.007812 -6.3125 3.273438 -6.582031 3.578125 -6.75 C 3.878906 -6.925781 4.265625 -7.015625 4.734375 -7.015625 C 5.253906 -7.015625 5.671875 -6.910156 5.984375 -6.703125 C 6.304688 -6.503906 6.539062 -6.207031 6.6875 -5.8125 L 6.8125 -5.8125 C 7.03125 -6.21875 7.304688 -6.519531 7.640625 -6.71875 C 7.972656 -6.914062 8.390625 -7.015625 8.890625 -7.015625 C 10.316406 -7.015625 11.03125 -6.222656 11.03125 -4.640625 L 11.03125 0 L 9.296875 0 L 9.296875 -4.421875 C 9.296875 -4.828125 9.21875 -5.117188 9.0625 -5.296875 C 8.90625 -5.472656 8.648438 -5.5625 8.296875 -5.5625 C 7.347656 -5.5625 6.875 -4.925781 6.875 -3.65625 L 6.875 0 L 5.15625 0 L 5.15625 -4.421875 C 5.15625 -4.828125 5.070312 -5.117188 4.90625 -5.296875 C 4.75 -5.472656 4.492188 -5.5625 4.140625 -5.5625 C 3.691406 -5.5625 3.34375 -5.410156 3.09375 -5.109375 C 2.84375 -4.816406 2.71875 -4.34375 2.71875 -3.6875 L 2.71875 0 Z M 1 0 "/></g></g></g><g fill="#001c73" fill-opacity="1"><g transform="translate(154.776525, 210.415711)"><g><path d="M 3.15625 0.125 C 2.382812 0.125 1.8125 -0.0820312 1.4375 -0.5 C 1.070312 -0.925781 0.890625 -1.535156 0.890625 -2.328125 L 0.890625 -6.890625 L 2.625 -6.890625 L 2.625 -2.546875 C 2.625 -2.117188 2.710938 -1.804688 2.890625 -1.609375 C 3.066406 -1.421875 3.347656 -1.328125 3.734375 -1.328125 C 4.210938 -1.328125 4.582031 -1.484375 4.84375 -1.796875 C 5.113281 -2.117188 5.25 -2.613281 5.25 -3.28125 L 5.25 -6.890625 L 6.984375 -6.890625 L 6.984375 0 L 5.3125 0 L 5.3125 -1.015625 L 5.1875 -1.046875 C 4.96875 -0.648438 4.695312 -0.351562 4.375 -0.15625 C 4.0625 0.03125 3.65625 0.125 3.15625 0.125 Z M 3.15625 0.125 "/></g></g></g><g fill="#001c73" fill-opacity="1"><g transform="translate(162.749938, 210.415711)"><g><path d="M 1 0 L 1 -6.890625 L 2.65625 -6.890625 L 2.65625 -5.875 L 2.78125 -5.84375 C 3.21875 -6.625 3.914062 -7.015625 4.875 -7.015625 C 5.664062 -7.015625 6.25 -6.796875 6.625 -6.359375 C 7 -5.929688 7.1875 -5.304688 7.1875 -4.484375 L 7.1875 0 L 5.453125 0 L 5.453125 -4.265625 C 5.453125 -4.722656 5.359375 -5.050781 5.171875 -5.25 C 4.992188 -5.457031 4.703125 -5.5625 4.296875 -5.5625 C 3.804688 -5.5625 3.421875 -5.398438 3.140625 -5.078125 C 2.859375 -4.753906 2.71875 -4.25 2.71875 -3.5625 L 2.71875 0 Z M 1 0 "/></g></g></g><g fill="#001c73" fill-opacity="1"><g transform="translate(170.823331, 210.415711)"><g><path d="M 4.015625 0.125 C 3.347656 0.125 2.757812 -0.0078125 2.25 -0.28125 C 1.738281 -0.5625 1.335938 -0.96875 1.046875 -1.5 C 0.765625 -2.039062 0.625 -2.6875 0.625 -3.4375 C 0.625 -4.195312 0.765625 -4.84375 1.046875 -5.375 C 1.335938 -5.914062 1.734375 -6.320312 2.234375 -6.59375 C 2.742188 -6.875 3.328125 -7.015625 3.984375 -7.015625 C 5.441406 -7.015625 6.375 -6.488281 6.78125 -5.4375 L 5.59375 -4.59375 L 5.46875 -4.59375 C 5.320312 -4.914062 5.132812 -5.15625 4.90625 -5.3125 C 4.675781 -5.476562 4.367188 -5.5625 3.984375 -5.5625 C 3.484375 -5.5625 3.09375 -5.382812 2.8125 -5.03125 C 2.539062 -4.6875 2.40625 -4.15625 2.40625 -3.4375 C 2.40625 -2.726562 2.546875 -2.203125 2.828125 -1.859375 C 3.109375 -1.515625 3.503906 -1.34375 4.015625 -1.34375 C 4.390625 -1.34375 4.707031 -1.441406 4.96875 -1.640625 C 5.226562 -1.835938 5.414062 -2.128906 5.53125 -2.515625 L 5.65625 -2.53125 L 6.890625 -1.84375 C 6.710938 -1.257812 6.390625 -0.785156 5.921875 -0.421875 C 5.453125 -0.0546875 4.816406 0.125 4.015625 0.125 Z M 4.015625 0.125 "/></g></g></g><g fill="#001c73" fill-opacity="1"><g transform="translate(177.92817, 210.415711)"><g><path d="M 2.6875 0.125 C 2.25 0.125 1.863281 0.046875 1.53125 -0.109375 C 1.207031 -0.273438 0.957031 -0.515625 0.78125 -0.828125 C 0.613281 -1.140625 0.53125 -1.519531 0.53125 -1.96875 C 0.53125 -2.375 0.613281 -2.710938 0.78125 -2.984375 C 0.957031 -3.265625 1.226562 -3.492188 1.59375 -3.671875 C 1.96875 -3.847656 2.445312 -3.984375 3.03125 -4.078125 C 3.445312 -4.148438 3.757812 -4.222656 3.96875 -4.296875 C 4.1875 -4.378906 4.332031 -4.46875 4.40625 -4.5625 C 4.488281 -4.664062 4.53125 -4.796875 4.53125 -4.953125 C 4.53125 -5.171875 4.453125 -5.335938 4.296875 -5.453125 C 4.140625 -5.566406 3.882812 -5.625 3.53125 -5.625 C 3.144531 -5.625 2.773438 -5.539062 2.421875 -5.375 C 2.078125 -5.207031 1.78125 -4.984375 1.53125 -4.703125 L 1.40625 -4.703125 L 0.6875 -5.796875 C 1.03125 -6.179688 1.453125 -6.476562 1.953125 -6.6875 C 2.460938 -6.90625 3.015625 -7.015625 3.609375 -7.015625 C 4.523438 -7.015625 5.1875 -6.820312 5.59375 -6.4375 C 6 -6.050781 6.203125 -5.503906 6.203125 -4.796875 L 6.203125 -1.796875 C 6.203125 -1.492188 6.335938 -1.34375 6.609375 -1.34375 C 6.710938 -1.34375 6.816406 -1.359375 6.921875 -1.390625 L 7 -1.375 L 7.125 -0.15625 C 7.03125 -0.09375 6.894531 -0.0390625 6.71875 0 C 6.550781 0.03125 6.367188 0.046875 6.171875 0.046875 C 5.753906 0.046875 5.429688 -0.03125 5.203125 -0.1875 C 4.972656 -0.34375 4.804688 -0.59375 4.703125 -0.9375 L 4.578125 -0.9375 C 4.234375 -0.226562 3.601562 0.125 2.6875 0.125 Z M 3.234375 -1.15625 C 3.640625 -1.15625 3.960938 -1.289062 4.203125 -1.5625 C 4.441406 -1.832031 4.5625 -2.207031 4.5625 -2.6875 L 4.5625 -3.390625 L 4.4375 -3.40625 C 4.332031 -3.320312 4.195312 -3.253906 4.03125 -3.203125 C 3.863281 -3.148438 3.617188 -3.09375 3.296875 -3.03125 C 2.921875 -2.96875 2.648438 -2.859375 2.484375 -2.703125 C 2.328125 -2.554688 2.25 -2.34375 2.25 -2.0625 C 2.25 -1.769531 2.332031 -1.546875 2.5 -1.390625 C 2.675781 -1.234375 2.921875 -1.15625 3.234375 -1.15625 Z M 3.234375 -1.15625 "/></g></g></g><g fill="#001c73" fill-opacity="1"><g transform="translate(185.195476, 210.415711)"><g><path d="M 4.75 -1.640625 L 5.203125 -0.359375 C 5.015625 -0.203125 4.78125 -0.0820312 4.5 0 C 4.21875 0.0820312 3.894531 0.125 3.53125 0.125 C 2.789062 0.125 2.222656 -0.078125 1.828125 -0.484375 C 1.441406 -0.890625 1.25 -1.476562 1.25 -2.25 L 1.25 -5.53125 L 0.203125 -5.53125 L 0.203125 -6.890625 L 1.25 -6.890625 L 1.25 -8.234375 L 2.984375 -8.515625 L 2.984375 -6.890625 L 4.9375 -6.890625 L 4.9375 -5.53125 L 2.984375 -5.53125 L 2.984375 -2.375 C 2.984375 -2.03125 3.050781 -1.78125 3.1875 -1.625 C 3.332031 -1.46875 3.539062 -1.390625 3.8125 -1.390625 C 4.125 -1.390625 4.394531 -1.472656 4.625 -1.640625 Z M 4.75 -1.640625 "/></g></g></g><g fill="#001c73" fill-opacity="1"><g transform="translate(190.550664, 210.415711)"><g><path d="M 6.8125 -3.0625 L 2.375 -3.0625 C 2.425781 -2.457031 2.597656 -2.019531 2.890625 -1.75 C 3.179688 -1.476562 3.582031 -1.34375 4.09375 -1.34375 C 4.488281 -1.34375 4.804688 -1.414062 5.046875 -1.5625 C 5.296875 -1.707031 5.492188 -1.929688 5.640625 -2.234375 L 5.78125 -2.234375 L 6.921875 -1.5 C 6.691406 -1.007812 6.347656 -0.613281 5.890625 -0.3125 C 5.441406 -0.0195312 4.84375 0.125 4.09375 0.125 C 3.375 0.125 2.753906 -0.0078125 2.234375 -0.28125 C 1.722656 -0.550781 1.328125 -0.953125 1.046875 -1.484375 C 0.765625 -2.015625 0.625 -2.664062 0.625 -3.4375 C 0.625 -4.226562 0.769531 -4.890625 1.0625 -5.421875 C 1.351562 -5.960938 1.75 -6.363281 2.25 -6.625 C 2.757812 -6.882812 3.332031 -7.015625 3.96875 -7.015625 C 4.9375 -7.015625 5.679688 -6.753906 6.203125 -6.234375 C 6.722656 -5.722656 6.984375 -4.96875 6.984375 -3.96875 C 6.984375 -3.613281 6.96875 -3.332031 6.9375 -3.125 Z M 5.328125 -4.171875 C 5.304688 -4.703125 5.179688 -5.085938 4.953125 -5.328125 C 4.734375 -5.566406 4.40625 -5.6875 3.96875 -5.6875 C 3.09375 -5.6875 2.578125 -5.179688 2.421875 -4.171875 Z M 5.328125 -4.171875 "/></g></g></g><g fill="#001c73" fill-opacity="1"><g transform="translate(198.042925, 210.415711)"><g/></g></g><g fill="#001c73" fill-opacity="1"><g transform="translate(201.061078, 210.415711)"><g><path d="M 4 0.125 C 3.332031 0.125 2.742188 -0.0078125 2.234375 -0.28125 C 1.722656 -0.5625 1.328125 -0.96875 1.046875 -1.5 C 0.765625 -2.039062 0.625 -2.6875 0.625 -3.4375 C 0.625 -4.195312 0.765625 -4.84375 1.046875 -5.375 C 1.328125 -5.914062 1.722656 -6.320312 2.234375 -6.59375 C 2.742188 -6.875 3.332031 -7.015625 4 -7.015625 C 4.675781 -7.015625 5.269531 -6.875 5.78125 -6.59375 C 6.289062 -6.320312 6.6875 -5.914062 6.96875 -5.375 C 7.25 -4.84375 7.390625 -4.195312 7.390625 -3.4375 C 7.390625 -2.6875 7.25 -2.039062 6.96875 -1.5 C 6.6875 -0.96875 6.289062 -0.5625 5.78125 -0.28125 C 5.269531 -0.0078125 4.675781 0.125 4 0.125 Z M 4 -1.34375 C 5.070312 -1.34375 5.609375 -2.039062 5.609375 -3.4375 C 5.609375 -4.164062 5.46875 -4.703125 5.1875 -5.046875 C 4.914062 -5.390625 4.519531 -5.5625 4 -5.5625 C 2.9375 -5.5625 2.40625 -4.851562 2.40625 -3.4375 C 2.40625 -2.039062 2.9375 -1.34375 4 -1.34375 Z M 4 -1.34375 "/></g></g></g><g fill="#001c73" fill-opacity="1"><g transform="translate(209.071983, 210.415711)"><g><path d="M 1 2.796875 L 1 -6.890625 L 2.71875 -6.890625 L 2.71875 -6 L 2.859375 -5.96875 C 3.054688 -6.3125 3.328125 -6.570312 3.671875 -6.75 C 4.015625 -6.925781 4.414062 -7.015625 4.875 -7.015625 C 5.425781 -7.015625 5.910156 -6.882812 6.328125 -6.625 C 6.742188 -6.363281 7.066406 -5.960938 7.296875 -5.421875 C 7.523438 -4.890625 7.640625 -4.226562 7.640625 -3.4375 C 7.640625 -2.65625 7.515625 -1.992188 7.265625 -1.453125 C 7.023438 -0.921875 6.6875 -0.523438 6.25 -0.265625 C 5.820312 -0.00390625 5.328125 0.125 4.765625 0.125 C 4.335938 0.125 3.96875 0.0546875 3.65625 -0.078125 C 3.34375 -0.222656 3.078125 -0.445312 2.859375 -0.75 L 2.71875 -0.734375 L 2.71875 2.796875 Z M 4.28125 -1.34375 C 4.800781 -1.34375 5.191406 -1.507812 5.453125 -1.84375 C 5.722656 -2.175781 5.859375 -2.707031 5.859375 -3.4375 C 5.859375 -4.164062 5.722656 -4.703125 5.453125 -5.046875 C 5.191406 -5.390625 4.800781 -5.5625 4.28125 -5.5625 C 3.800781 -5.5625 3.414062 -5.382812 3.125 -5.03125 C 2.84375 -4.675781 2.703125 -4.144531 2.703125 -3.4375 C 2.703125 -2.738281 2.84375 -2.210938 3.125 -1.859375 C 3.414062 -1.515625 3.800781 -1.34375 4.28125 -1.34375 Z M 4.28125 -1.34375 "/></g></g></g><g fill="#001c73" fill-opacity="1"><g transform="translate(217.326593, 210.415711)"><g><path d="M 6.8125 -3.0625 L 2.375 -3.0625 C 2.425781 -2.457031 2.597656 -2.019531 2.890625 -1.75 C 3.179688 -1.476562 3.582031 -1.34375 4.09375 -1.34375 C 4.488281 -1.34375 4.804688 -1.414062 5.046875 -1.5625 C 5.296875 -1.707031 5.492188 -1.929688 5.640625 -2.234375 L 5.78125 -2.234375 L 6.921875 -1.5 C 6.691406 -1.007812 6.347656 -0.613281 5.890625 -0.3125 C 5.441406 -0.0195312 4.84375 0.125 4.09375 0.125 C 3.375 0.125 2.753906 -0.0078125 2.234375 -0.28125 C 1.722656 -0.550781 1.328125 -0.953125 1.046875 -1.484375 C 0.765625 -2.015625 0.625 -2.664062 0.625 -3.4375 C 0.625 -4.226562 0.769531 -4.890625 1.0625 -5.421875 C 1.351562 -5.960938 1.75 -6.363281 2.25 -6.625 C 2.757812 -6.882812 3.332031 -7.015625 3.96875 -7.015625 C 4.9375 -7.015625 5.679688 -6.753906 6.203125 -6.234375 C 6.722656 -5.722656 6.984375 -4.96875 6.984375 -3.96875 C 6.984375 -3.613281 6.96875 -3.332031 6.9375 -3.125 Z M 5.328125 -4.171875 C 5.304688 -4.703125 5.179688 -5.085938 4.953125 -5.328125 C 4.734375 -5.566406 4.40625 -5.6875 3.96875 -5.6875 C 3.09375 -5.6875 2.578125 -5.179688 2.421875 -4.171875 Z M 5.328125 -4.171875 "/></g></g></g><g fill="#001c73" fill-opacity="1"><g transform="translate(224.818855, 210.415711)"><g><path d="M 1 0 L 1 -6.890625 L 2.65625 -6.890625 L 2.65625 -5.875 L 2.78125 -5.84375 C 3.21875 -6.625 3.914062 -7.015625 4.875 -7.015625 C 5.664062 -7.015625 6.25 -6.796875 6.625 -6.359375 C 7 -5.929688 7.1875 -5.304688 7.1875 -4.484375 L 7.1875 0 L 5.453125 0 L 5.453125 -4.265625 C 5.453125 -4.722656 5.359375 -5.050781 5.171875 -5.25 C 4.992188 -5.457031 4.703125 -5.5625 4.296875 -5.5625 C 3.804688 -5.5625 3.421875 -5.398438 3.140625 -5.078125 C 2.859375 -4.753906 2.71875 -4.25 2.71875 -3.5625 L 2.71875 0 Z M 1 0 "/></g></g></g><g fill="#001c73" fill-opacity="1"><g transform="translate(232.892248, 210.415711)"><g><path d="M 2.859375 0.125 C 2.242188 0.125 1.769531 -0.0390625 1.4375 -0.375 C 1.113281 -0.707031 0.953125 -1.21875 0.953125 -1.90625 L 0.953125 -9.65625 L 2.6875 -9.65625 L 2.6875 -1.96875 C 2.6875 -1.550781 2.859375 -1.34375 3.203125 -1.34375 C 3.304688 -1.34375 3.414062 -1.359375 3.53125 -1.390625 L 3.609375 -1.359375 L 3.765625 -0.03125 C 3.671875 0.0195312 3.546875 0.0546875 3.390625 0.078125 C 3.234375 0.109375 3.054688 0.125 2.859375 0.125 Z M 2.859375 0.125 "/></g></g></g><g fill="#001c73" fill-opacity="1"><g transform="translate(236.853953, 210.415711)"><g><path d="M 1.53125 2.921875 C 1.226562 2.921875 0.957031 2.894531 0.71875 2.84375 C 0.476562 2.800781 0.285156 2.742188 0.140625 2.671875 L 0.40625 1.28125 L 0.53125 1.234375 C 0.632812 1.285156 0.757812 1.328125 0.90625 1.359375 C 1.0625 1.398438 1.222656 1.421875 1.390625 1.421875 C 1.671875 1.421875 1.898438 1.382812 2.078125 1.3125 C 2.265625 1.238281 2.421875 1.113281 2.546875 0.9375 C 2.679688 0.769531 2.800781 0.539062 2.90625 0.25 L 0.15625 -6.890625 L 1.96875 -6.890625 L 3.671875 -2.09375 L 3.828125 -2.09375 L 5.5 -6.890625 L 7.25 -6.890625 L 4.484375 0.4375 C 4.265625 1.019531 4.019531 1.492188 3.75 1.859375 C 3.488281 2.222656 3.175781 2.488281 2.8125 2.65625 C 2.457031 2.832031 2.03125 2.921875 1.53125 2.921875 Z M 1.53125 2.921875 "/></g></g></g><g fill="#001c73" fill-opacity="1"><g transform="translate(130.576573, 228.306236)"><g><path d="M 3.703125 0 L 1.890625 0 L 0.25 -6.890625 L 1.859375 -6.890625 L 2.875 -2.234375 L 3 -2.234375 L 4.3125 -6.890625 L 5.8125 -6.890625 L 7.171875 -2.234375 L 7.296875 -2.234375 L 8.265625 -6.890625 L 9.828125 -6.890625 L 8.21875 0 L 6.40625 0 L 5.09375 -4.6875 L 4.96875 -4.6875 Z M 3.703125 0 "/></g></g></g><g fill="#001c73" fill-opacity="1"><g transform="translate(140.65582, 228.306236)"><g><path d="M 1.859375 -7.71875 C 1.546875 -7.71875 1.289062 -7.8125 1.09375 -8 C 0.894531 -8.1875 0.796875 -8.429688 0.796875 -8.734375 C 0.796875 -9.023438 0.894531 -9.265625 1.09375 -9.453125 C 1.289062 -9.648438 1.546875 -9.75 1.859375 -9.75 C 2.066406 -9.75 2.25 -9.703125 2.40625 -9.609375 C 2.570312 -9.523438 2.695312 -9.40625 2.78125 -9.25 C 2.875 -9.101562 2.921875 -8.929688 2.921875 -8.734375 C 2.921875 -8.535156 2.875 -8.359375 2.78125 -8.203125 C 2.695312 -8.054688 2.570312 -7.9375 2.40625 -7.84375 C 2.25 -7.757812 2.066406 -7.71875 1.859375 -7.71875 Z M 1 0 L 1 -6.890625 L 2.71875 -6.890625 L 2.71875 0 Z M 1 0 "/></g></g></g><g fill="#001c73" fill-opacity="1"><g transform="translate(144.367581, 228.306236)"><g><path d="M 4.75 -1.640625 L 5.203125 -0.359375 C 5.015625 -0.203125 4.78125 -0.0820312 4.5 0 C 4.21875 0.0820312 3.894531 0.125 3.53125 0.125 C 2.789062 0.125 2.222656 -0.078125 1.828125 -0.484375 C 1.441406 -0.890625 1.25 -1.476562 1.25 -2.25 L 1.25 -5.53125 L 0.203125 -5.53125 L 0.203125 -6.890625 L 1.25 -6.890625 L 1.25 -8.234375 L 2.984375 -8.515625 L 2.984375 -6.890625 L 4.9375 -6.890625 L 4.9375 -5.53125 L 2.984375 -5.53125 L 2.984375 -2.375 C 2.984375 -2.03125 3.050781 -1.78125 3.1875 -1.625 C 3.332031 -1.46875 3.539062 -1.390625 3.8125 -1.390625 C 4.125 -1.390625 4.394531 -1.472656 4.625 -1.640625 Z M 4.75 -1.640625 "/></g></g></g><g fill="#001c73" fill-opacity="1"><g transform="translate(149.722769, 228.306236)"><g><path d="M 1 0 L 1 -9.65625 L 2.71875 -9.65625 L 2.71875 -6 L 2.859375 -5.96875 C 3.085938 -6.300781 3.367188 -6.554688 3.703125 -6.734375 C 4.035156 -6.921875 4.4375 -7.015625 4.90625 -7.015625 C 6.425781 -7.015625 7.1875 -6.15625 7.1875 -4.4375 L 7.1875 0 L 5.453125 0 L 5.453125 -4.21875 C 5.453125 -4.6875 5.359375 -5.023438 5.171875 -5.234375 C 4.984375 -5.453125 4.691406 -5.5625 4.296875 -5.5625 C 3.816406 -5.5625 3.429688 -5.398438 3.140625 -5.078125 C 2.859375 -4.753906 2.71875 -4.25 2.71875 -3.5625 L 2.71875 0 Z M 1 0 "/></g></g></g><g fill="#001c73" fill-opacity="1"><g transform="translate(157.796162, 228.306236)"><g/></g></g><g fill="#001c73" fill-opacity="1"><g transform="translate(160.814314, 228.306236)"><g><path d="M 4.015625 0.125 C 3.347656 0.125 2.757812 -0.0078125 2.25 -0.28125 C 1.738281 -0.5625 1.335938 -0.96875 1.046875 -1.5 C 0.765625 -2.039062 0.625 -2.6875 0.625 -3.4375 C 0.625 -4.195312 0.765625 -4.84375 1.046875 -5.375 C 1.335938 -5.914062 1.734375 -6.320312 2.234375 -6.59375 C 2.742188 -6.875 3.328125 -7.015625 3.984375 -7.015625 C 5.441406 -7.015625 6.375 -6.488281 6.78125 -5.4375 L 5.59375 -4.59375 L 5.46875 -4.59375 C 5.320312 -4.914062 5.132812 -5.15625 4.90625 -5.3125 C 4.675781 -5.476562 4.367188 -5.5625 3.984375 -5.5625 C 3.484375 -5.5625 3.09375 -5.382812 2.8125 -5.03125 C 2.539062 -4.6875 2.40625 -4.15625 2.40625 -3.4375 C 2.40625 -2.726562 2.546875 -2.203125 2.828125 -1.859375 C 3.109375 -1.515625 3.503906 -1.34375 4.015625 -1.34375 C 4.390625 -1.34375 4.707031 -1.441406 4.96875 -1.640625 C 5.226562 -1.835938 5.414062 -2.128906 5.53125 -2.515625 L 5.65625 -2.53125 L 6.890625 -1.84375 C 6.710938 -1.257812 6.390625 -0.785156 5.921875 -0.421875 C 5.453125 -0.0546875 4.816406 0.125 4.015625 0.125 Z M 4.015625 0.125 "/></g></g></g><g fill="#001c73" fill-opacity="1"><g transform="translate(167.919153, 228.306236)"><g><path d="M 2.859375 0.125 C 2.242188 0.125 1.769531 -0.0390625 1.4375 -0.375 C 1.113281 -0.707031 0.953125 -1.21875 0.953125 -1.90625 L 0.953125 -9.65625 L 2.6875 -9.65625 L 2.6875 -1.96875 C 2.6875 -1.550781 2.859375 -1.34375 3.203125 -1.34375 C 3.304688 -1.34375 3.414062 -1.359375 3.53125 -1.390625 L 3.609375 -1.359375 L 3.765625 -0.03125 C 3.671875 0.0195312 3.546875 0.0546875 3.390625 0.078125 C 3.234375 0.109375 3.054688 0.125 2.859375 0.125 Z M 2.859375 0.125 "/></g></g></g><g fill="#001c73" fill-opacity="1"><g transform="translate(171.880865, 228.306236)"><g><path d="M 1.859375 -7.71875 C 1.546875 -7.71875 1.289062 -7.8125 1.09375 -8 C 0.894531 -8.1875 0.796875 -8.429688 0.796875 -8.734375 C 0.796875 -9.023438 0.894531 -9.265625 1.09375 -9.453125 C 1.289062 -9.648438 1.546875 -9.75 1.859375 -9.75 C 2.066406 -9.75 2.25 -9.703125 2.40625 -9.609375 C 2.570312 -9.523438 2.695312 -9.40625 2.78125 -9.25 C 2.875 -9.101562 2.921875 -8.929688 2.921875 -8.734375 C 2.921875 -8.535156 2.875 -8.359375 2.78125 -8.203125 C 2.695312 -8.054688 2.570312 -7.9375 2.40625 -7.84375 C 2.25 -7.757812 2.066406 -7.71875 1.859375 -7.71875 Z M 1 0 L 1 -6.890625 L 2.71875 -6.890625 L 2.71875 0 Z M 1 0 "/></g></g></g><g fill="#001c73" fill-opacity="1"><g transform="translate(175.592626, 228.306236)"><g><path d="M 6.8125 -3.0625 L 2.375 -3.0625 C 2.425781 -2.457031 2.597656 -2.019531 2.890625 -1.75 C 3.179688 -1.476562 3.582031 -1.34375 4.09375 -1.34375 C 4.488281 -1.34375 4.804688 -1.414062 5.046875 -1.5625 C 5.296875 -1.707031 5.492188 -1.929688 5.640625 -2.234375 L 5.78125 -2.234375 L 6.921875 -1.5 C 6.691406 -1.007812 6.347656 -0.613281 5.890625 -0.3125 C 5.441406 -0.0195312 4.84375 0.125 4.09375 0.125 C 3.375 0.125 2.753906 -0.0078125 2.234375 -0.28125 C 1.722656 -0.550781 1.328125 -0.953125 1.046875 -1.484375 C 0.765625 -2.015625 0.625 -2.664062 0.625 -3.4375 C 0.625 -4.226562 0.769531 -4.890625 1.0625 -5.421875 C 1.351562 -5.960938 1.75 -6.363281 2.25 -6.625 C 2.757812 -6.882812 3.332031 -7.015625 3.96875 -7.015625 C 4.9375 -7.015625 5.679688 -6.753906 6.203125 -6.234375 C 6.722656 -5.722656 6.984375 -4.96875 6.984375 -3.96875 C 6.984375 -3.613281 6.96875 -3.332031 6.9375 -3.125 Z M 5.328125 -4.171875 C 5.304688 -4.703125 5.179688 -5.085938 4.953125 -5.328125 C 4.734375 -5.566406 4.40625 -5.6875 3.96875 -5.6875 C 3.09375 -5.6875 2.578125 -5.179688 2.421875 -4.171875 Z M 5.328125 -4.171875 "/></g></g></g><g fill="#001c73" fill-opacity="1"><g transform="translate(183.084887, 228.306236)"><g><path d="M 1 0 L 1 -6.890625 L 2.65625 -6.890625 L 2.65625 -5.875 L 2.78125 -5.84375 C 3.21875 -6.625 3.914062 -7.015625 4.875 -7.015625 C 5.664062 -7.015625 6.25 -6.796875 6.625 -6.359375 C 7 -5.929688 7.1875 -5.304688 7.1875 -4.484375 L 7.1875 0 L 5.453125 0 L 5.453125 -4.265625 C 5.453125 -4.722656 5.359375 -5.050781 5.171875 -5.25 C 4.992188 -5.457031 4.703125 -5.5625 4.296875 -5.5625 C 3.804688 -5.5625 3.421875 -5.398438 3.140625 -5.078125 C 2.859375 -4.753906 2.71875 -4.25 2.71875 -3.5625 L 2.71875 0 Z M 1 0 "/></g></g></g><g fill="#001c73" fill-opacity="1"><g transform="translate(191.15828, 228.306236)"><g><path d="M 4.75 -1.640625 L 5.203125 -0.359375 C 5.015625 -0.203125 4.78125 -0.0820312 4.5 0 C 4.21875 0.0820312 3.894531 0.125 3.53125 0.125 C 2.789062 0.125 2.222656 -0.078125 1.828125 -0.484375 C 1.441406 -0.890625 1.25 -1.476562 1.25 -2.25 L 1.25 -5.53125 L 0.203125 -5.53125 L 0.203125 -6.890625 L 1.25 -6.890625 L 1.25 -8.234375 L 2.984375 -8.515625 L 2.984375 -6.890625 L 4.9375 -6.890625 L 4.9375 -5.53125 L 2.984375 -5.53125 L 2.984375 -2.375 C 2.984375 -2.03125 3.050781 -1.78125 3.1875 -1.625 C 3.332031 -1.46875 3.539062 -1.390625 3.8125 -1.390625 C 4.125 -1.390625 4.394531 -1.472656 4.625 -1.640625 Z M 4.75 -1.640625 "/></g></g></g><g fill="#001c73" fill-opacity="1"><g transform="translate(196.513468, 228.306236)"><g><path d="M 3.21875 0.125 C 2.75 0.125 2.316406 0.0703125 1.921875 -0.03125 C 1.535156 -0.144531 1.203125 -0.296875 0.921875 -0.484375 C 0.648438 -0.679688 0.445312 -0.90625 0.3125 -1.15625 L 1.28125 -2.1875 L 1.40625 -2.1875 C 1.632812 -1.882812 1.90625 -1.65625 2.21875 -1.5 C 2.53125 -1.34375 2.867188 -1.265625 3.234375 -1.265625 C 3.578125 -1.265625 3.832031 -1.320312 4 -1.4375 C 4.164062 -1.5625 4.25 -1.738281 4.25 -1.96875 C 4.25 -2.144531 4.1875 -2.289062 4.0625 -2.40625 C 3.945312 -2.53125 3.75 -2.625 3.46875 -2.6875 L 2.5625 -2.90625 C 1.875 -3.070312 1.375 -3.320312 1.0625 -3.65625 C 0.75 -3.988281 0.59375 -4.414062 0.59375 -4.9375 C 0.59375 -5.363281 0.703125 -5.734375 0.921875 -6.046875 C 1.140625 -6.359375 1.445312 -6.597656 1.84375 -6.765625 C 2.238281 -6.929688 2.703125 -7.015625 3.234375 -7.015625 C 3.859375 -7.015625 4.375 -6.925781 4.78125 -6.75 C 5.1875 -6.570312 5.503906 -6.332031 5.734375 -6.03125 L 4.8125 -5.03125 L 4.6875 -5.03125 C 4.5 -5.25 4.285156 -5.40625 4.046875 -5.5 C 3.804688 -5.601562 3.535156 -5.65625 3.234375 -5.65625 C 2.554688 -5.65625 2.21875 -5.445312 2.21875 -5.03125 C 2.21875 -4.84375 2.28125 -4.691406 2.40625 -4.578125 C 2.53125 -4.472656 2.753906 -4.382812 3.078125 -4.3125 L 3.921875 -4.125 C 4.617188 -3.976562 5.128906 -3.738281 5.453125 -3.40625 C 5.773438 -3.070312 5.9375 -2.625 5.9375 -2.0625 C 5.9375 -1.625 5.828125 -1.238281 5.609375 -0.90625 C 5.398438 -0.570312 5.085938 -0.316406 4.671875 -0.140625 C 4.265625 0.0351562 3.78125 0.125 3.21875 0.125 Z M 3.21875 0.125 "/></g></g></g><g fill="#001c73" fill-opacity="1"><g transform="translate(202.868456, 228.306236)"><g/></g></g><g fill="#001c73" fill-opacity="1"><g transform="translate(205.886609, 228.306236)"><g><path d="M 2.6875 0.125 C 2.25 0.125 1.863281 0.046875 1.53125 -0.109375 C 1.207031 -0.273438 0.957031 -0.515625 0.78125 -0.828125 C 0.613281 -1.140625 0.53125 -1.519531 0.53125 -1.96875 C 0.53125 -2.375 0.613281 -2.710938 0.78125 -2.984375 C 0.957031 -3.265625 1.226562 -3.492188 1.59375 -3.671875 C 1.96875 -3.847656 2.445312 -3.984375 3.03125 -4.078125 C 3.445312 -4.148438 3.757812 -4.222656 3.96875 -4.296875 C 4.1875 -4.378906 4.332031 -4.46875 4.40625 -4.5625 C 4.488281 -4.664062 4.53125 -4.796875 4.53125 -4.953125 C 4.53125 -5.171875 4.453125 -5.335938 4.296875 -5.453125 C 4.140625 -5.566406 3.882812 -5.625 3.53125 -5.625 C 3.144531 -5.625 2.773438 -5.539062 2.421875 -5.375 C 2.078125 -5.207031 1.78125 -4.984375 1.53125 -4.703125 L 1.40625 -4.703125 L 0.6875 -5.796875 C 1.03125 -6.179688 1.453125 -6.476562 1.953125 -6.6875 C 2.460938 -6.90625 3.015625 -7.015625 3.609375 -7.015625 C 4.523438 -7.015625 5.1875 -6.820312 5.59375 -6.4375 C 6 -6.050781 6.203125 -5.503906 6.203125 -4.796875 L 6.203125 -1.796875 C 6.203125 -1.492188 6.335938 -1.34375 6.609375 -1.34375 C 6.710938 -1.34375 6.816406 -1.359375 6.921875 -1.390625 L 7 -1.375 L 7.125 -0.15625 C 7.03125 -0.09375 6.894531 -0.0390625 6.71875 0 C 6.550781 0.03125 6.367188 0.046875 6.171875 0.046875 C 5.753906 0.046875 5.429688 -0.03125 5.203125 -0.1875 C 4.972656 -0.34375 4.804688 -0.59375 4.703125 -0.9375 L 4.578125 -0.9375 C 4.234375 -0.226562 3.601562 0.125 2.6875 0.125 Z M 3.234375 -1.15625 C 3.640625 -1.15625 3.960938 -1.289062 4.203125 -1.5625 C 4.441406 -1.832031 4.5625 -2.207031 4.5625 -2.6875 L 4.5625 -3.390625 L 4.4375 -3.40625 C 4.332031 -3.320312 4.195312 -3.253906 4.03125 -3.203125 C 3.863281 -3.148438 3.617188 -3.09375 3.296875 -3.03125 C 2.921875 -2.96875 2.648438 -2.859375 2.484375 -2.703125 C 2.328125 -2.554688 2.25 -2.34375 2.25 -2.0625 C 2.25 -1.769531 2.332031 -1.546875 2.5 -1.390625 C 2.675781 -1.234375 2.921875 -1.15625 3.234375 -1.15625 Z M 3.234375 -1.15625 "/></g></g></g><g fill="#001c73" fill-opacity="1"><g transform="translate(213.153915, 228.306236)"><g><path d="M 1 0 L 1 -6.890625 L 2.65625 -6.890625 L 2.65625 -5.875 L 2.78125 -5.84375 C 3.21875 -6.625 3.914062 -7.015625 4.875 -7.015625 C 5.664062 -7.015625 6.25 -6.796875 6.625 -6.359375 C 7 -5.929688 7.1875 -5.304688 7.1875 -4.484375 L 7.1875 0 L 5.453125 0 L 5.453125 -4.265625 C 5.453125 -4.722656 5.359375 -5.050781 5.171875 -5.25 C 4.992188 -5.457031 4.703125 -5.5625 4.296875 -5.5625 C 3.804688 -5.5625 3.421875 -5.398438 3.140625 -5.078125 C 2.859375 -4.753906 2.71875 -4.25 2.71875 -3.5625 L 2.71875 0 Z M 1 0 "/></g></g></g><g fill="#001c73" fill-opacity="1"><g transform="translate(221.227308, 228.306236)"><g><path d="M 3.40625 0.125 C 2.863281 0.125 2.378906 -0.00390625 1.953125 -0.265625 C 1.535156 -0.523438 1.207031 -0.921875 0.96875 -1.453125 C 0.738281 -1.992188 0.625 -2.65625 0.625 -3.4375 C 0.625 -4.226562 0.742188 -4.890625 0.984375 -5.421875 C 1.222656 -5.960938 1.554688 -6.363281 1.984375 -6.625 C 2.421875 -6.882812 2.925781 -7.015625 3.5 -7.015625 C 3.925781 -7.015625 4.296875 -6.941406 4.609375 -6.796875 C 4.921875 -6.648438 5.1875 -6.421875 5.40625 -6.109375 L 5.53125 -6.140625 L 5.53125 -9.65625 L 7.265625 -9.65625 L 7.265625 0 L 5.53125 0 L 5.53125 -0.890625 L 5.40625 -0.921875 C 5.21875 -0.597656 4.957031 -0.34375 4.625 -0.15625 C 4.289062 0.03125 3.882812 0.125 3.40625 0.125 Z M 3.96875 -1.34375 C 4.457031 -1.34375 4.84375 -1.515625 5.125 -1.859375 C 5.40625 -2.203125 5.546875 -2.726562 5.546875 -3.4375 C 5.546875 -4.144531 5.40625 -4.675781 5.125 -5.03125 C 4.84375 -5.382812 4.457031 -5.5625 3.96875 -5.5625 C 3.457031 -5.5625 3.066406 -5.390625 2.796875 -5.046875 C 2.535156 -4.703125 2.40625 -4.164062 2.40625 -3.4375 C 2.40625 -2.71875 2.535156 -2.1875 2.796875 -1.84375 C 3.066406 -1.507812 3.457031 -1.34375 3.96875 -1.34375 Z M 3.96875 -1.34375 "/></g></g></g><g fill="#001c73" fill-opacity="1"><g transform="translate(154.166976, 246.196761)"><g><path d="M 1 2.796875 L 1 -6.890625 L 2.71875 -6.890625 L 2.71875 -6 L 2.859375 -5.96875 C 3.054688 -6.3125 3.328125 -6.570312 3.671875 -6.75 C 4.015625 -6.925781 4.414062 -7.015625 4.875 -7.015625 C 5.425781 -7.015625 5.910156 -6.882812 6.328125 -6.625 C 6.742188 -6.363281 7.066406 -5.960938 7.296875 -5.421875 C 7.523438 -4.890625 7.640625 -4.226562 7.640625 -3.4375 C 7.640625 -2.65625 7.515625 -1.992188 7.265625 -1.453125 C 7.023438 -0.921875 6.6875 -0.523438 6.25 -0.265625 C 5.820312 -0.00390625 5.328125 0.125 4.765625 0.125 C 4.335938 0.125 3.96875 0.0546875 3.65625 -0.078125 C 3.34375 -0.222656 3.078125 -0.445312 2.859375 -0.75 L 2.71875 -0.734375 L 2.71875 2.796875 Z M 4.28125 -1.34375 C 4.800781 -1.34375 5.191406 -1.507812 5.453125 -1.84375 C 5.722656 -2.175781 5.859375 -2.707031 5.859375 -3.4375 C 5.859375 -4.164062 5.722656 -4.703125 5.453125 -5.046875 C 5.191406 -5.390625 4.800781 -5.5625 4.28125 -5.5625 C 3.800781 -5.5625 3.414062 -5.382812 3.125 -5.03125 C 2.84375 -4.675781 2.703125 -4.144531 2.703125 -3.4375 C 2.703125 -2.738281 2.84375 -2.210938 3.125 -1.859375 C 3.414062 -1.515625 3.800781 -1.34375 4.28125 -1.34375 Z M 4.28125 -1.34375 "/></g></g></g><g fill="#001c73" fill-opacity="1"><g transform="translate(162.421586, 246.196761)"><g><path d="M 2.6875 0.125 C 2.25 0.125 1.863281 0.046875 1.53125 -0.109375 C 1.207031 -0.273438 0.957031 -0.515625 0.78125 -0.828125 C 0.613281 -1.140625 0.53125 -1.519531 0.53125 -1.96875 C 0.53125 -2.375 0.613281 -2.710938 0.78125 -2.984375 C 0.957031 -3.265625 1.226562 -3.492188 1.59375 -3.671875 C 1.96875 -3.847656 2.445312 -3.984375 3.03125 -4.078125 C 3.445312 -4.148438 3.757812 -4.222656 3.96875 -4.296875 C 4.1875 -4.378906 4.332031 -4.46875 4.40625 -4.5625 C 4.488281 -4.664062 4.53125 -4.796875 4.53125 -4.953125 C 4.53125 -5.171875 4.453125 -5.335938 4.296875 -5.453125 C 4.140625 -5.566406 3.882812 -5.625 3.53125 -5.625 C 3.144531 -5.625 2.773438 -5.539062 2.421875 -5.375 C 2.078125 -5.207031 1.78125 -4.984375 1.53125 -4.703125 L 1.40625 -4.703125 L 0.6875 -5.796875 C 1.03125 -6.179688 1.453125 -6.476562 1.953125 -6.6875 C 2.460938 -6.90625 3.015625 -7.015625 3.609375 -7.015625 C 4.523438 -7.015625 5.1875 -6.820312 5.59375 -6.4375 C 6 -6.050781 6.203125 -5.503906 6.203125 -4.796875 L 6.203125 -1.796875 C 6.203125 -1.492188 6.335938 -1.34375 6.609375 -1.34375 C 6.710938 -1.34375 6.816406 -1.359375 6.921875 -1.390625 L 7 -1.375 L 7.125 -0.15625 C 7.03125 -0.09375 6.894531 -0.0390625 6.71875 0 C 6.550781 0.03125 6.367188 0.046875 6.171875 0.046875 C 5.753906 0.046875 5.429688 -0.03125 5.203125 -0.1875 C 4.972656 -0.34375 4.804688 -0.59375 4.703125 -0.9375 L 4.578125 -0.9375 C 4.234375 -0.226562 3.601562 0.125 2.6875 0.125 Z M 3.234375 -1.15625 C 3.640625 -1.15625 3.960938 -1.289062 4.203125 -1.5625 C 4.441406 -1.832031 4.5625 -2.207031 4.5625 -2.6875 L 4.5625 -3.390625 L 4.4375 -3.40625 C 4.332031 -3.320312 4.195312 -3.253906 4.03125 -3.203125 C 3.863281 -3.148438 3.617188 -3.09375 3.296875 -3.03125 C 2.921875 -2.96875 2.648438 -2.859375 2.484375 -2.703125 C 2.328125 -2.554688 2.25 -2.34375 2.25 -2.0625 C 2.25 -1.769531 2.332031 -1.546875 2.5 -1.390625 C 2.675781 -1.234375 2.921875 -1.15625 3.234375 -1.15625 Z M 3.234375 -1.15625 "/></g></g></g><g fill="#001c73" fill-opacity="1"><g transform="translate(169.688893, 246.196761)"><g><path d="M 4.75 -1.640625 L 5.203125 -0.359375 C 5.015625 -0.203125 4.78125 -0.0820312 4.5 0 C 4.21875 0.0820312 3.894531 0.125 3.53125 0.125 C 2.789062 0.125 2.222656 -0.078125 1.828125 -0.484375 C 1.441406 -0.890625 1.25 -1.476562 1.25 -2.25 L 1.25 -5.53125 L 0.203125 -5.53125 L 0.203125 -6.890625 L 1.25 -6.890625 L 1.25 -8.234375 L 2.984375 -8.515625 L 2.984375 -6.890625 L 4.9375 -6.890625 L 4.9375 -5.53125 L 2.984375 -5.53125 L 2.984375 -2.375 C 2.984375 -2.03125 3.050781 -1.78125 3.1875 -1.625 C 3.332031 -1.46875 3.539062 -1.390625 3.8125 -1.390625 C 4.125 -1.390625 4.394531 -1.472656 4.625 -1.640625 Z M 4.75 -1.640625 "/></g></g></g><g fill="#001c73" fill-opacity="1"><g transform="translate(175.04408, 246.196761)"><g><path d="M 1 0 L 1 -6.890625 L 2.65625 -6.890625 L 2.65625 -5.875 L 2.78125 -5.84375 C 3.21875 -6.625 3.914062 -7.015625 4.875 -7.015625 C 5.664062 -7.015625 6.25 -6.796875 6.625 -6.359375 C 7 -5.929688 7.1875 -5.304688 7.1875 -4.484375 L 7.1875 0 L 5.453125 0 L 5.453125 -4.265625 C 5.453125 -4.722656 5.359375 -5.050781 5.171875 -5.25 C 4.992188 -5.457031 4.703125 -5.5625 4.296875 -5.5625 C 3.804688 -5.5625 3.421875 -5.398438 3.140625 -5.078125 C 2.859375 -4.753906 2.71875 -4.25 2.71875 -3.5625 L 2.71875 0 Z M 1 0 "/></g></g></g><g fill="#001c73" fill-opacity="1"><g transform="translate(183.117473, 246.196761)"><g><path d="M 6.8125 -3.0625 L 2.375 -3.0625 C 2.425781 -2.457031 2.597656 -2.019531 2.890625 -1.75 C 3.179688 -1.476562 3.582031 -1.34375 4.09375 -1.34375 C 4.488281 -1.34375 4.804688 -1.414062 5.046875 -1.5625 C 5.296875 -1.707031 5.492188 -1.929688 5.640625 -2.234375 L 5.78125 -2.234375 L 6.921875 -1.5 C 6.691406 -1.007812 6.347656 -0.613281 5.890625 -0.3125 C 5.441406 -0.0195312 4.84375 0.125 4.09375 0.125 C 3.375 0.125 2.753906 -0.0078125 2.234375 -0.28125 C 1.722656 -0.550781 1.328125 -0.953125 1.046875 -1.484375 C 0.765625 -2.015625 0.625 -2.664062 0.625 -3.4375 C 0.625 -4.226562 0.769531 -4.890625 1.0625 -5.421875 C 1.351562 -5.960938 1.75 -6.363281 2.25 -6.625 C 2.757812 -6.882812 3.332031 -7.015625 3.96875 -7.015625 C 4.9375 -7.015625 5.679688 -6.753906 6.203125 -6.234375 C 6.722656 -5.722656 6.984375 -4.96875 6.984375 -3.96875 C 6.984375 -3.613281 6.96875 -3.332031 6.9375 -3.125 Z M 5.328125 -4.171875 C 5.304688 -4.703125 5.179688 -5.085938 4.953125 -5.328125 C 4.734375 -5.566406 4.40625 -5.6875 3.96875 -5.6875 C 3.09375 -5.6875 2.578125 -5.179688 2.421875 -4.171875 Z M 5.328125 -4.171875 "/></g></g></g><g fill="#001c73" fill-opacity="1"><g transform="translate(190.609735, 246.196761)"><g><path d="M 1 0 L 1 -6.890625 L 2.671875 -6.890625 L 2.671875 -5.875 L 2.8125 -5.84375 C 2.976562 -6.226562 3.195312 -6.507812 3.46875 -6.6875 C 3.738281 -6.863281 4.066406 -6.953125 4.453125 -6.953125 C 4.835938 -6.953125 5.132812 -6.882812 5.34375 -6.75 L 5.046875 -5.265625 L 4.921875 -5.234375 C 4.804688 -5.285156 4.695312 -5.320312 4.59375 -5.34375 C 4.488281 -5.363281 4.363281 -5.375 4.21875 -5.375 C 3.726562 -5.375 3.351562 -5.203125 3.09375 -4.859375 C 2.84375 -4.515625 2.71875 -3.96875 2.71875 -3.21875 L 2.71875 0 Z M 1 0 "/></g></g></g><g fill="#001c73" fill-opacity="1"><g transform="translate(196.014912, 246.196761)"><g><path d="M 3.21875 0.125 C 2.75 0.125 2.316406 0.0703125 1.921875 -0.03125 C 1.535156 -0.144531 1.203125 -0.296875 0.921875 -0.484375 C 0.648438 -0.679688 0.445312 -0.90625 0.3125 -1.15625 L 1.28125 -2.1875 L 1.40625 -2.1875 C 1.632812 -1.882812 1.90625 -1.65625 2.21875 -1.5 C 2.53125 -1.34375 2.867188 -1.265625 3.234375 -1.265625 C 3.578125 -1.265625 3.832031 -1.320312 4 -1.4375 C 4.164062 -1.5625 4.25 -1.738281 4.25 -1.96875 C 4.25 -2.144531 4.1875 -2.289062 4.0625 -2.40625 C 3.945312 -2.53125 3.75 -2.625 3.46875 -2.6875 L 2.5625 -2.90625 C 1.875 -3.070312 1.375 -3.320312 1.0625 -3.65625 C 0.75 -3.988281 0.59375 -4.414062 0.59375 -4.9375 C 0.59375 -5.363281 0.703125 -5.734375 0.921875 -6.046875 C 1.140625 -6.359375 1.445312 -6.597656 1.84375 -6.765625 C 2.238281 -6.929688 2.703125 -7.015625 3.234375 -7.015625 C 3.859375 -7.015625 4.375 -6.925781 4.78125 -6.75 C 5.1875 -6.570312 5.503906 -6.332031 5.734375 -6.03125 L 4.8125 -5.03125 L 4.6875 -5.03125 C 4.5 -5.25 4.285156 -5.40625 4.046875 -5.5 C 3.804688 -5.601562 3.535156 -5.65625 3.234375 -5.65625 C 2.554688 -5.65625 2.21875 -5.445312 2.21875 -5.03125 C 2.21875 -4.84375 2.28125 -4.691406 2.40625 -4.578125 C 2.53125 -4.472656 2.753906 -4.382812 3.078125 -4.3125 L 3.921875 -4.125 C 4.617188 -3.976562 5.128906 -3.738281 5.453125 -3.40625 C 5.773438 -3.070312 5.9375 -2.625 5.9375 -2.0625 C 5.9375 -1.625 5.828125 -1.238281 5.609375 -0.90625 C 5.398438 -0.570312 5.085938 -0.316406 4.671875 -0.140625 C 4.265625 0.0351562 3.78125 0.125 3.21875 0.125 Z M 3.21875 0.125 "/></g></g></g><g fill="#001c73" fill-opacity="1"><g transform="translate(202.3699, 246.196761)"><g><path d="M 1.765625 0.0625 C 1.546875 0.0625 1.347656 0.015625 1.171875 -0.078125 C 1.003906 -0.171875 0.875 -0.296875 0.78125 -0.453125 C 0.695312 -0.609375 0.65625 -0.785156 0.65625 -0.984375 C 0.65625 -1.179688 0.695312 -1.359375 0.78125 -1.515625 C 0.875 -1.679688 1.003906 -1.804688 1.171875 -1.890625 C 1.347656 -1.984375 1.546875 -2.03125 1.765625 -2.03125 C 1.984375 -2.03125 2.175781 -1.984375 2.34375 -1.890625 C 2.519531 -1.804688 2.648438 -1.6875 2.734375 -1.53125 C 2.828125 -1.375 2.875 -1.195312 2.875 -1 C 2.875 -0.6875 2.769531 -0.429688 2.5625 -0.234375 C 2.363281 -0.0351562 2.097656 0.0625 1.765625 0.0625 Z M 1.765625 0.0625 "/></g></g></g></svg>