<svg xmlns="http://www.w3.org/2000/svg" xmlns:xlink="http://www.w3.org/1999/xlink" width="500" zoomAndPan="magnify" viewBox="0 0 375 374.999991" height="500" preserveAspectRatio="xMidYMid meet" version="1.0"><defs><filter x="0%" y="0%" width="100%" height="100%" id="3840524017"><feColorMatrix values="0 0 0 0 1 0 0 0 0 1 0 0 0 0 1 0 0 0 1 0" color-interpolation-filters="sRGB"/></filter><mask id="30025b53b3"><g filter="url(#3840524017)"><rect x="-37.5" width="450" fill="#000000" y="-37.499999" height="449.999989" fill-opacity="0.64"/></g></mask><clipPath id="1868673a12"><path d="M 22 71 L 29 71 L 29 229.921875 L 22 229.921875 Z M 22 71 " clip-rule="nonzero"/></clipPath><clipPath id="4cc94b55ff"><path d="M 86 0.960938 L 93 0.960938 L 93 229.921875 L 86 229.921875 Z M 86 0.960938 " clip-rule="nonzero"/></clipPath><clipPath id="c5c9af3c77"><path d="M 57 0.960938 L 198 0.960938 L 198 91 L 57 91 Z M 57 0.960938 " clip-rule="nonzero"/></clipPath><clipPath id="6b77af5199"><path d="M 53 189 L 169 189 L 169 229.921875 L 53 229.921875 Z M 53 189 " clip-rule="nonzero"/></clipPath><clipPath id="02712fa657"><path d="M 131 118 L 138 118 L 138 229.921875 L 131 229.921875 Z M 131 118 " clip-rule="nonzero"/></clipPath><clipPath id="0ea3a391aa"><path d="M 182 121 L 189 121 L 189 229.921875 L 182 229.921875 Z M 182 121 " clip-rule="nonzero"/></clipPath><clipPath id="fa58f0ee85"><path d="M 0.800781 189 L 59 189 L 59 229.921875 L 0.800781 229.921875 Z M 0.800781 189 " clip-rule="nonzero"/></clipPath><mask id="dc517ef9cb"><g filter="url(#3840524017)"><rect x="-164.5" width="540" fill="#000000" y="-154.499998" height="539.999987" fill-opacity="0.76"/></g></mask><clipPath id="7f12e775ba"><path d="M 0.121094 0.398438 L 1.800781 0.398438 L 1.800781 81 L 0.121094 81 Z M 0.121094 0.398438 " clip-rule="nonzero"/></clipPath><clipPath id="0f61b26d27"><rect x="0" width="2" y="0" height="82"/></clipPath><mask id="9b02ae8dda"><g filter="url(#3840524017)"><rect x="-164.5" width="540" fill="#000000" y="-154.499998" height="539.999987" fill-opacity="0.76"/></g></mask><clipPath id="9ab3d376b0"><path d="M 0.0390625 0.398438 L 1.71875 0.398438 L 1.71875 81 L 0.0390625 81 Z M 0.0390625 0.398438 " clip-rule="nonzero"/></clipPath><clipPath id="2e2eb4a59d"><rect x="0" width="2" y="0" height="82"/></clipPath><mask id="b2f0d5b473"><g filter="url(#3840524017)"><rect x="-164.5" width="540" fill="#000000" y="-154.499998" height="539.999987" fill-opacity="0.76"/></g></mask><clipPath id="d1a3d65597"><path d="M 1 0.398438 L 22 0.398438 L 22 2 L 1 2 Z M 1 0.398438 " clip-rule="nonzero"/></clipPath><clipPath id="5b6b9b71e2"><rect x="0" width="22" y="0" height="3"/></clipPath><mask id="93a40f3ade"><g filter="url(#3840524017)"><rect x="-164.5" width="540" fill="#000000" y="-154.499998" height="539.999987" fill-opacity="0.76"/></g></mask><clipPath id="952d6412ad"><path d="M 1 0.359375 L 22 0.359375 L 22 2.039062 L 1 2.039062 Z M 1 0.359375 " clip-rule="nonzero"/></clipPath><clipPath id="b9ea41748e"><rect x="0" width="22" y="0" height="3"/></clipPath><clipPath id="5ae17faa82"><path d="M 36 0.960938 L 90 0.960938 L 90 39 L 36 39 Z M 36 0.960938 " clip-rule="nonzero"/></clipPath><clipPath id="15d0a42d2b"><rect x="0" width="211" y="0" height="230"/></clipPath></defs><rect x="-37.5" width="450" fill="#ffffff" y="-37.499999" height="449.999989" fill-opacity="1"/><rect x="-37.5" width="450" fill="#ffffff" y="-37.499999" height="449.999989" fill-opacity="1"/><g mask="url(#30025b53b3)"><g transform="matrix(1, 0, 0, 1, 82, 72)"><g clip-path="url(#15d0a42d2b)"><g clip-path="url(#1868673a12)"><path stroke-linecap="butt" transform="matrix(0.000000001309, 0.75, -0.75, 0.000000001309, 28.25497, 74.10371)" fill="none" stroke-linejoin="miter" d="M 0.00234445 4.001419 L 202.919024 4.001419 " stroke="#163670" stroke-width="8" stroke-opacity="1" stroke-miterlimit="4"/></g><path stroke-linecap="butt" transform="matrix(0.618835, 0.423725, -0.423725, 0.618835, 91.210384, 35.842112)" fill="none" stroke-linejoin="miter" d="M -0.00165972 1.001121 L 99.333408 0.999621 " stroke="#737373" stroke-width="2" stroke-opacity="1" stroke-miterlimit="4"/><g clip-path="url(#4cc94b55ff)"><path stroke-linecap="butt" transform="matrix(0, 0.75, -0.75, 0, 92.814123, 3.964309)" fill="none" stroke-linejoin="miter" d="M 0.000713016 4.002165 L 296.464274 4.002165 " stroke="#1b2e50" stroke-width="8" stroke-opacity="1" stroke-miterlimit="4"/></g><path stroke-linecap="butt" transform="matrix(0.617577, 0.425557, -0.425557, 0.617577, 163.384314, 84.574502)" fill="none" stroke-linejoin="miter" d="M -0.00240321 1.000567 L 28.757266 0.999595 " stroke="#737373" stroke-width="2" stroke-opacity="1" stroke-miterlimit="4"/><path stroke-linecap="butt" transform="matrix(0, 0.75, -0.75, 0, 165.300419, 53.88364)" fill="none" stroke-linejoin="miter" d="M -0.00110298 3.999517 L 92.316611 3.999517 " stroke="#163670" stroke-width="8" stroke-opacity="1" stroke-miterlimit="4"/><path stroke-linecap="butt" transform="matrix(-0.75, 0, 0, -0.75, 92.359086, 77.090762)" fill="none" stroke-linejoin="miter" d="M -0.000385533 4.001225 L 91.999621 4.001225 " stroke="#163670" stroke-width="8" stroke-opacity="1" stroke-miterlimit="4"/><g clip-path="url(#c5c9af3c77)"><path stroke-linecap="butt" transform="matrix(0.618685, 0.423945, -0.423945, 0.618685, 92.873142, 3.955505)" fill="none" stroke-linejoin="miter" d="M -0.00215938 4.00058 L 117.710721 3.998307 " stroke="#1b2e50" stroke-width="8" stroke-opacity="1" stroke-miterlimit="4"/></g><g clip-path="url(#6b77af5199)"><path stroke-linecap="butt" transform="matrix(-0.75, -0.0000465217, 0.0000465217, -0.75, 134.642677, 226.300528)" fill="none" stroke-linejoin="miter" d="M -0.00222467 3.999663 L 63.008196 4.000963 " stroke="#163670" stroke-width="8" stroke-opacity="1" stroke-miterlimit="4"/></g><g clip-path="url(#02712fa657)"><path stroke-linecap="butt" transform="matrix(0, 0.75, -0.75, 0, 137.648535, 121.618274)" fill="none" stroke-linejoin="miter" d="M -0.00144825 4.00013 L 139.550644 4.00013 " stroke="#163670" stroke-width="8" stroke-opacity="1" stroke-miterlimit="4"/></g><path stroke-linecap="butt" transform="matrix(-0.75, 0.000000001309, -0.000000001309, -0.75, 188.227624, 127.601999)" fill="none" stroke-linejoin="miter" d="M 0.0014158 4.000582 L 71.444129 4.000582 " stroke="#163670" stroke-width="8" stroke-opacity="1" stroke-miterlimit="4"/><g clip-path="url(#0ea3a391aa)"><path stroke-linecap="butt" transform="matrix(0, -0.75, 0.75, 0, 182.243503, 226.276622)" fill="none" stroke-linejoin="miter" d="M -0.000962316 3.998246 L 135.571963 3.998246 " stroke="#163670" stroke-width="8" stroke-opacity="1" stroke-miterlimit="4"/></g><path stroke-linecap="butt" transform="matrix(0.75, 0, 0, 0.75, 186.909909, 220.550546)" fill="none" stroke-linejoin="miter" d="M 0.000329345 4.000313 L 26.703456 4.000313 " stroke="#163670" stroke-width="8" stroke-opacity="1" stroke-miterlimit="4"/><g clip-path="url(#fa58f0ee85)"><path stroke-linecap="butt" transform="matrix(0.749761, -0.0189455, 0.0189455, 0.749761, 3.991022, 221.057266)" fill="none" stroke-linejoin="miter" d="M -0.000475497 3.997827 L 26.70069 4.000443 " stroke="#163670" stroke-width="8" stroke-opacity="1" stroke-miterlimit="4"/></g><path stroke-linecap="butt" transform="matrix(0.000000001309, 0.75, -0.75, 0.000000001309, 113.655333, 38.477688)" fill="none" stroke-linejoin="miter" d="M -0.0015006 0.998778 L 232.13914 0.998778 " stroke="#737373" stroke-width="2" stroke-opacity="1" stroke-miterlimit="4"/><path stroke-linecap="butt" transform="matrix(0.000000001309, 0.75, -0.75, 0.000000001309, 66.106332, 109.695324)" fill="none" stroke-linejoin="miter" d="M -0.0000154266 1.001152 L 156.442703 1.001152 " stroke="#737373" stroke-width="2" stroke-opacity="1" stroke-miterlimit="4"/><path stroke-linecap="butt" transform="matrix(0.000000001309, 0.75, -0.75, 0.000000001309, 46.810562, 109.695324)" fill="none" stroke-linejoin="miter" d="M -0.0000154266 0.997416 L 156.442703 0.997416 " stroke="#737373" stroke-width="2" stroke-opacity="1" stroke-miterlimit="4"/><path stroke-linecap="butt" transform="matrix(-0.75, 0, 0, -0.75, 66.371235, 111.189422)" fill="none" stroke-linejoin="miter" d="M 0.000188009 1.002563 L 27.083523 1.002563 " stroke="#737373" stroke-width="2" stroke-opacity="1" stroke-miterlimit="4"/><path stroke-linecap="butt" transform="matrix(-0.75, 0, 0, -0.75, 66.371235, 227.029346)" fill="none" stroke-linejoin="miter" d="M 0.000188009 0.997461 L 27.083523 0.997461 " stroke="#737373" stroke-width="2" stroke-opacity="1" stroke-miterlimit="4"/><g mask="url(#dc517ef9cb)"><g transform="matrix(1, 0, 0, 1, 149, 146)"><g clip-path="url(#0f61b26d27)"><g clip-path="url(#7f12e775ba)"><path stroke-linecap="butt" transform="matrix(0, 0.75, -0.75, 0, 1.78871, 1.190606)" fill="none" stroke-linejoin="miter" d="M 0.00106736 0.99953 L 105.214616 0.99953 " stroke="#737373" stroke-width="2" stroke-opacity="1" stroke-miterlimit="4"/></g></g></g></g><g mask="url(#9b02ae8dda)"><g transform="matrix(1, 0, 0, 1, 169, 146)"><g clip-path="url(#2e2eb4a59d)"><g clip-path="url(#9ab3d376b0)"><path stroke-linecap="butt" transform="matrix(0, 0.75, -0.75, 0, 1.60031, 1.180381)" fill="none" stroke-linejoin="miter" d="M -0.000924804 0.99833 L 105.22304 0.99833 " stroke="#737373" stroke-width="2" stroke-opacity="1" stroke-miterlimit="4"/></g></g></g></g><g mask="url(#b2f0d5b473)"><g transform="matrix(1, 0, 0, 1, 148, 146)"><g clip-path="url(#5b6b9b71e2)"><g clip-path="url(#d1a3d65597)"><path stroke-linecap="butt" transform="matrix(-0.75, -0.000000001309, 0.000000001309, -0.75, 21.094714, 1.935655)" fill="none" stroke-linejoin="miter" d="M 0.00128599 0.997539 L 25.110663 0.997539 " stroke="#737373" stroke-width="2" stroke-opacity="1" stroke-miterlimit="4"/></g></g></g></g><g mask="url(#93a40f3ade)"><g transform="matrix(1, 0, 0, 1, 148, 225)"><g clip-path="url(#b9ea41748e)"><g clip-path="url(#952d6412ad)"><path stroke-linecap="butt" transform="matrix(-0.75, -0.000000001309, 0.000000001309, -0.75, 21.110008, 2.029346)" fill="none" stroke-linejoin="miter" d="M 0.000843376 0.997461 L 25.115428 0.997461 " stroke="#737373" stroke-width="2" stroke-opacity="1" stroke-miterlimit="4"/></g></g></g></g><g clip-path="url(#5ae17faa82)"><path stroke-linecap="butt" transform="matrix(0.618835, 0.423725, -0.423725, 0.618835, 44.907818, 4.511589)" fill="none" stroke-linejoin="miter" d="M -0.000832767 0.998117 L 59.561794 0.998271 " stroke="#737373" stroke-width="2" stroke-opacity="1" stroke-miterlimit="4"/></g></g></g></g></svg>