<?xml version="1.0" standalone="no"?>
<!DOCTYPE svg PUBLIC "-//W3C//DTD SVG 20010904//EN"
 "http://www.w3.org/TR/2001/REC-SVG-20010904/DTD/svg10.dtd">
<svg version="1.0" xmlns="http://www.w3.org/2000/svg"
 width="150.000000pt" height="150.000000pt" viewBox="0 0 150.000000 150.000000"
 preserveAspectRatio="xMidYMid meet">

<g transform="translate(0.000000,150.000000) scale(0.100000,-0.100000)"
fill="#000000" stroke="none">
<path d="M630 1145 l0 -154 -127 -3 -128 -3 -3 -392 -2 -393 -55 0 c-42 0 -55
-3 -55 -15 0 -12 14 -15 70 -15 l70 0 0 395 0 395 115 0 115 0 0 -395 0 -395
110 0 110 0 0 270 0 270 115 0 115 0 0 -270 0 -270 70 0 c56 0 70 3 70 15 0
12 -13 15 -55 15 l-55 0 0 270 0 270 -66 0 -65 0 1 48 c1 26 1 88 1 137 l-1
91 -175 142 -175 142 0 -155z m320 -272 l0 -133 -60 0 -60 0 -2 -267 -3 -268
-85 0 -85 0 -2 505 c-2 278 0 511 2 518 3 8 58 -30 150 -105 l145 -117 0 -133z"/>
</g>
</svg>
