<?xml version="1.0" encoding="UTF-8"?> <svg xmlns="http://www.w3.org/2000/svg" width="50" height="50" viewBox="0 0 50 50" fill="none"><g clip-path="url(#clip0_27_161)"><path d="M50 25C50 11.2 38.8 0 25 0C11.2 0 0 11.2 0 25C0 38.8 11.2 50 25 50C38.8 50 50 38.8 50 25Z" fill="#0970B9"></path><path d="M30.8825 12H20.0191C17.8955 12 15.8586 12.8423 14.3552 14.3423C12.8519 15.8422 12.0049 17.8771 12 20.0008V30.8642C12.0097 32.9846 12.8589 35.0149 14.3617 36.5108C15.8645 38.0068 17.8987 38.8466 20.0191 38.8466H30.8825C31.9348 38.8514 32.9776 38.6487 33.9513 38.2499C34.9251 37.8511 35.8106 37.2642 36.5572 36.5227C37.3038 35.7812 37.8968 34.8998 38.3022 33.9288C38.7077 32.9578 38.9176 31.9164 38.92 30.8642V20.0008C38.9152 17.8803 38.0707 15.8481 36.5713 14.3487C35.0719 12.8493 33.0397 12.0048 30.9192 12H30.8825ZM36.1674 30.8642C36.1699 31.5598 36.0349 32.249 35.7704 32.8923C35.5059 33.5356 35.117 34.1204 34.626 34.6131C34.135 35.1057 33.5516 35.4967 32.9092 35.7634C32.2668 36.0301 31.5781 36.1675 30.8825 36.1674H20.0191C18.6126 36.1674 17.2637 35.6087 16.2691 34.6142C15.2746 33.6196 14.7159 32.2707 14.7159 30.8642V20.0008C14.7159 18.5943 15.2746 17.2453 16.2691 16.2508C17.2637 15.2562 18.6126 14.6975 20.0191 14.6975H30.8825C32.2859 14.7024 33.6301 15.2632 34.6206 16.2573C35.6112 17.2513 36.1675 18.5974 36.1674 20.0008V30.8642Z" fill="white"></path><path d="M25.4508 18.4961C24.0737 18.4925 22.7265 18.8978 21.58 19.6606C20.4335 20.4234 19.5392 21.5094 19.0106 22.7809C18.4819 24.0525 18.3426 25.4524 18.6104 26.8032C18.8782 28.154 19.5409 29.3949 20.5147 30.3687C21.4884 31.3424 22.7293 32.0052 24.0801 32.2729C25.4309 32.5407 26.8308 32.4014 28.1024 31.8728C29.374 31.3441 30.46 30.4498 31.2228 29.3033C31.9856 28.1568 32.3909 26.8096 32.3872 25.4326C32.3824 23.5944 31.65 21.8329 30.3502 20.5331C29.0504 19.2333 27.289 18.501 25.4508 18.4961ZM25.4508 29.6898C24.6104 29.6826 23.7909 29.4268 23.0956 28.9546C22.4004 28.4824 21.8604 27.815 21.5438 27.0365C21.2272 26.258 21.1481 25.4031 21.3165 24.5797C21.4849 23.7563 21.8932 23.0012 22.4901 22.4095C23.0869 21.8177 23.8455 21.4159 24.6703 21.2546C25.4951 21.0933 26.3493 21.1797 27.125 21.503C27.9008 21.8262 28.5636 22.3719 29.0298 23.0712C29.496 23.7705 29.7447 24.5921 29.7448 25.4326C29.7424 25.9932 29.6293 26.5478 29.4119 27.0646C29.1946 27.5814 28.8774 28.0502 28.4784 28.4441C28.0794 28.8379 27.6066 29.1491 27.087 29.3598C26.5674 29.5704 26.0114 29.6763 25.4508 29.6715V29.6898Z" fill="white"></path><path d="M34.0754 18.5329C34.079 18.8639 33.9842 19.1886 33.8029 19.4656C33.6217 19.7426 33.3621 19.9595 33.0574 20.0887C32.7526 20.2179 32.4162 20.2536 32.0911 20.1912C31.766 20.1289 31.4667 19.9713 31.2314 19.7385C30.996 19.5057 30.8351 19.2082 30.7692 18.8838C30.7032 18.5594 30.7352 18.2227 30.8611 17.9165C30.9869 17.6103 31.2009 17.3484 31.4759 17.1641C31.7509 16.9798 32.0745 16.8814 32.4055 16.8813C32.8452 16.8813 33.2672 17.0547 33.5798 17.3639C33.8925 17.6731 34.0706 18.0932 34.0754 18.5329Z" fill="white"></path></g><defs><clipPath id="clip0_27_161"><rect width="50" height="50" fill="white"></rect></clipPath></defs></svg> 