<?xml version="1.0" encoding="UTF-8"?> <svg xmlns="http://www.w3.org/2000/svg" width="50" height="50" viewBox="0 0 50 50" fill="none"><g clip-path="url(#clip0_27_155)"><path d="M50 25C50 11.2 38.8 0 25 0C11.2 0 0 11.2 0 25C0 38.8 11.2 50 25 50C38.8 50 50 38.8 50 25Z" fill="#0970B9"></path><path d="M16.4444 20.1086C17.7945 20.1086 18.8889 19.0142 18.8889 17.6642C18.8889 16.3141 17.7945 15.2197 16.4444 15.2197C15.0944 15.2197 14 16.3141 14 17.6642C14 19.0142 15.0944 20.1086 16.4444 20.1086Z" fill="white"></path><path d="M18.8889 22.5532H14V37.2199H18.8889V22.5532Z" fill="white"></path><path d="M26.2223 22.5529H21.3334V37.2196H26.2223V30.1307C26.2223 25.9751 31.1111 25.4862 31.1111 30.1307V37.2196H36V28.9085C36 20.8418 28.4223 21.0862 26.2223 25.2418V22.5529Z" fill="white"></path></g><defs><clipPath id="clip0_27_155"><rect width="50" height="50" fill="white"></rect></clipPath></defs></svg> 