<svg xmlns="http://www.w3.org/2000/svg" xmlns:xlink="http://www.w3.org/1999/xlink" width="500" zoomAndPan="magnify" viewBox="0 0 375 374.999991" height="500" preserveAspectRatio="xMidYMid meet" version="1.0"><defs><g/><clipPath id="3acc494d9f"><path d="M 68.011719 75.476562 L 292.0625 75.476562 L 292.0625 299.523438 L 68.011719 299.523438 Z M 68.011719 75.476562 " clip-rule="nonzero"/></clipPath><clipPath id="cd4a5516e9"><path d="M 180.039062 75.476562 C 118.167969 75.476562 68.011719 125.628906 68.011719 187.5 C 68.011719 249.371094 118.167969 299.523438 180.039062 299.523438 C 241.90625 299.523438 292.0625 249.371094 292.0625 187.5 C 292.0625 125.628906 241.90625 75.476562 180.039062 75.476562 Z M 180.039062 75.476562 " clip-rule="nonzero"/></clipPath></defs><rect x="-37.5" width="450" fill="#ffffff" y="-37.499999" height="449.999989" fill-opacity="1"/><rect x="-37.5" width="450" fill="#ffffff" y="-37.499999" height="449.999989" fill-opacity="1"/><g clip-path="url(#3acc494d9f)"><g clip-path="url(#cd4a5516e9)"><path fill="#001c73" d="M 68.011719 75.476562 L 292.0625 75.476562 L 292.0625 299.523438 L 68.011719 299.523438 Z M 68.011719 75.476562 " fill-opacity="1" fill-rule="nonzero"/></g></g><g fill="#ffffff" fill-opacity="1"><g transform="translate(98.566632, 145.438571)"><g><path d="M 7.640625 0.25 C 6.453125 0.25 5.390625 0.101562 4.453125 -0.1875 C 3.523438 -0.488281 2.75 -0.878906 2.125 -1.359375 C 1.5 -1.835938 1.023438 -2.363281 0.703125 -2.9375 L 2.578125 -5.234375 L 2.875 -5.234375 C 3.382812 -4.460938 4.039062 -3.847656 4.84375 -3.390625 C 5.644531 -2.929688 6.578125 -2.703125 7.640625 -2.703125 C 8.554688 -2.703125 9.242188 -2.894531 9.703125 -3.28125 C 10.171875 -3.664062 10.40625 -4.195312 10.40625 -4.875 C 10.40625 -5.28125 10.332031 -5.617188 10.1875 -5.890625 C 10.039062 -6.171875 9.789062 -6.410156 9.4375 -6.609375 C 9.09375 -6.804688 8.625 -6.972656 8.03125 -7.109375 L 5.8125 -7.625 C 4.269531 -7.976562 3.117188 -8.566406 2.359375 -9.390625 C 1.597656 -10.210938 1.21875 -11.28125 1.21875 -12.59375 C 1.21875 -13.570312 1.457031 -14.429688 1.9375 -15.171875 C 2.425781 -15.910156 3.132812 -16.484375 4.0625 -16.890625 C 5 -17.296875 6.117188 -17.5 7.421875 -17.5 C 8.753906 -17.5 9.894531 -17.320312 10.84375 -16.96875 C 11.789062 -16.625 12.59375 -16.085938 13.25 -15.359375 L 11.5625 -13.046875 L 11.265625 -13.046875 C 10.773438 -13.566406 10.210938 -13.953125 9.578125 -14.203125 C 8.953125 -14.460938 8.234375 -14.59375 7.421875 -14.59375 C 6.484375 -14.59375 5.769531 -14.425781 5.28125 -14.09375 C 4.800781 -13.757812 4.5625 -13.300781 4.5625 -12.71875 C 4.5625 -12.175781 4.726562 -11.742188 5.0625 -11.421875 C 5.40625 -11.097656 6 -10.847656 6.84375 -10.671875 L 9.109375 -10.203125 C 10.785156 -9.847656 12 -9.242188 12.75 -8.390625 C 13.507812 -7.546875 13.890625 -6.445312 13.890625 -5.09375 C 13.890625 -4.007812 13.65625 -3.066406 13.1875 -2.265625 C 12.726562 -1.472656 12.03125 -0.851562 11.09375 -0.40625 C 10.15625 0.03125 9.003906 0.25 7.640625 0.25 Z M 7.640625 0.25 "/></g></g></g><g fill="#ffffff" fill-opacity="1"><g transform="translate(113.39404, 145.438571)"><g><path d="M 5.953125 0.25 C 4.492188 0.25 3.414062 -0.144531 2.71875 -0.9375 C 2.019531 -1.738281 1.671875 -2.890625 1.671875 -4.390625 L 1.671875 -13.015625 L 4.953125 -13.015625 L 4.953125 -4.796875 C 4.953125 -4.003906 5.117188 -3.425781 5.453125 -3.0625 C 5.796875 -2.695312 6.328125 -2.515625 7.046875 -2.515625 C 7.953125 -2.515625 8.65625 -2.8125 9.15625 -3.40625 C 9.664062 -4 9.921875 -4.929688 9.921875 -6.203125 L 9.921875 -13.015625 L 13.1875 -13.015625 L 13.1875 0 L 10.046875 0 L 10.046875 -1.90625 L 9.796875 -1.96875 C 9.378906 -1.21875 8.867188 -0.660156 8.265625 -0.296875 C 7.660156 0.0664062 6.890625 0.25 5.953125 0.25 Z M 5.953125 0.25 "/></g></g></g><g fill="#ffffff" fill-opacity="1"><g transform="translate(128.457554, 145.438571)"><g><path d="M 6.09375 0.25 C 5.195312 0.25 4.378906 0.144531 3.640625 -0.0625 C 2.898438 -0.269531 2.269531 -0.554688 1.75 -0.921875 C 1.226562 -1.285156 0.84375 -1.707031 0.59375 -2.1875 L 2.40625 -4.140625 L 2.65625 -4.140625 C 3.09375 -3.554688 3.601562 -3.117188 4.1875 -2.828125 C 4.78125 -2.535156 5.421875 -2.390625 6.109375 -2.390625 C 6.742188 -2.390625 7.222656 -2.503906 7.546875 -2.734375 C 7.867188 -2.960938 8.03125 -3.289062 8.03125 -3.71875 C 8.03125 -4.050781 7.914062 -4.328125 7.6875 -4.546875 C 7.457031 -4.773438 7.082031 -4.953125 6.5625 -5.078125 L 4.84375 -5.484375 C 3.550781 -5.796875 2.609375 -6.265625 2.015625 -6.890625 C 1.421875 -7.523438 1.125 -8.332031 1.125 -9.3125 C 1.125 -10.125 1.328125 -10.828125 1.734375 -11.421875 C 2.148438 -12.023438 2.734375 -12.484375 3.484375 -12.796875 C 4.234375 -13.109375 5.109375 -13.265625 6.109375 -13.265625 C 7.285156 -13.265625 8.257812 -13.09375 9.03125 -12.75 C 9.800781 -12.414062 10.398438 -11.96875 10.828125 -11.40625 L 9.09375 -9.515625 L 8.859375 -9.515625 C 8.492188 -9.921875 8.082031 -10.21875 7.625 -10.40625 C 7.175781 -10.59375 6.671875 -10.6875 6.109375 -10.6875 C 4.816406 -10.6875 4.171875 -10.285156 4.171875 -9.484375 C 4.171875 -9.148438 4.289062 -8.875 4.53125 -8.65625 C 4.769531 -8.445312 5.195312 -8.273438 5.8125 -8.140625 L 7.40625 -7.796875 C 8.726562 -7.503906 9.691406 -7.046875 10.296875 -6.421875 C 10.910156 -5.796875 11.21875 -4.957031 11.21875 -3.90625 C 11.21875 -3.082031 11.015625 -2.351562 10.609375 -1.71875 C 10.203125 -1.09375 9.613281 -0.609375 8.84375 -0.265625 C 8.070312 0.078125 7.15625 0.25 6.09375 0.25 Z M 6.09375 0.25 "/></g></g></g><g fill="#ffffff" fill-opacity="1"><g transform="translate(140.463508, 145.438571)"><g><path d="M 8.984375 -3.109375 L 9.828125 -0.6875 C 9.472656 -0.394531 9.03125 -0.164062 8.5 0 C 7.96875 0.164062 7.363281 0.25 6.6875 0.25 C 5.269531 0.25 4.195312 -0.128906 3.46875 -0.890625 C 2.738281 -1.660156 2.375 -2.78125 2.375 -4.25 L 2.375 -10.4375 L 0.390625 -10.4375 L 0.390625 -13.03125 L 2.375 -13.03125 L 2.375 -15.5625 L 5.640625 -16.09375 L 5.640625 -13.03125 L 9.328125 -13.03125 L 9.328125 -10.4375 L 5.640625 -10.4375 L 5.640625 -4.484375 C 5.640625 -3.835938 5.769531 -3.363281 6.03125 -3.0625 C 6.300781 -2.769531 6.695312 -2.625 7.21875 -2.625 C 7.789062 -2.625 8.296875 -2.785156 8.734375 -3.109375 Z M 8.984375 -3.109375 "/></g></g></g><g fill="#ffffff" fill-opacity="1"><g transform="translate(150.58062, 145.438571)"><g><path d="M 5.078125 0.25 C 4.242188 0.25 3.519531 0.0976562 2.90625 -0.203125 C 2.289062 -0.515625 1.816406 -0.96875 1.484375 -1.5625 C 1.148438 -2.15625 0.984375 -2.867188 0.984375 -3.703125 C 0.984375 -4.472656 1.148438 -5.117188 1.484375 -5.640625 C 1.816406 -6.171875 2.328125 -6.601562 3.015625 -6.9375 C 3.710938 -7.269531 4.617188 -7.523438 5.734375 -7.703125 C 6.515625 -7.828125 7.109375 -7.960938 7.515625 -8.109375 C 7.921875 -8.265625 8.191406 -8.4375 8.328125 -8.625 C 8.472656 -8.8125 8.546875 -9.050781 8.546875 -9.34375 C 8.546875 -9.757812 8.398438 -10.078125 8.109375 -10.296875 C 7.816406 -10.523438 7.332031 -10.640625 6.65625 -10.640625 C 5.9375 -10.640625 5.25 -10.476562 4.59375 -10.15625 C 3.9375 -9.832031 3.367188 -9.40625 2.890625 -8.875 L 2.65625 -8.875 L 1.28125 -10.9375 C 1.945312 -11.664062 2.753906 -12.234375 3.703125 -12.640625 C 4.660156 -13.054688 5.703125 -13.265625 6.828125 -13.265625 C 8.546875 -13.265625 9.789062 -12.898438 10.5625 -12.171875 C 11.332031 -11.441406 11.71875 -10.398438 11.71875 -9.046875 L 11.71875 -3.40625 C 11.71875 -2.820312 11.972656 -2.53125 12.484375 -2.53125 C 12.679688 -2.53125 12.875 -2.5625 13.0625 -2.625 L 13.234375 -2.578125 L 13.46875 -0.3125 C 13.289062 -0.1875 13.039062 -0.0859375 12.71875 -0.015625 C 12.394531 0.0546875 12.039062 0.09375 11.65625 0.09375 C 10.875 0.09375 10.265625 -0.0507812 9.828125 -0.34375 C 9.390625 -0.644531 9.078125 -1.117188 8.890625 -1.765625 L 8.640625 -1.78125 C 8.003906 -0.425781 6.816406 0.25 5.078125 0.25 Z M 6.109375 -2.1875 C 6.867188 -2.1875 7.472656 -2.441406 7.921875 -2.953125 C 8.378906 -3.460938 8.609375 -4.171875 8.609375 -5.078125 L 8.609375 -6.390625 L 8.375 -6.4375 C 8.175781 -6.28125 7.914062 -6.148438 7.59375 -6.046875 C 7.28125 -5.941406 6.828125 -5.835938 6.234375 -5.734375 C 5.523438 -5.617188 5.015625 -5.414062 4.703125 -5.125 C 4.390625 -4.84375 4.234375 -4.4375 4.234375 -3.90625 C 4.234375 -3.34375 4.398438 -2.914062 4.734375 -2.625 C 5.066406 -2.332031 5.523438 -2.1875 6.109375 -2.1875 Z M 6.109375 -2.1875 "/></g></g></g><g fill="#ffffff" fill-opacity="1"><g transform="translate(164.310142, 145.438571)"><g><path d="M 3.5 -14.578125 C 2.914062 -14.578125 2.4375 -14.753906 2.0625 -15.109375 C 1.695312 -15.472656 1.515625 -15.9375 1.515625 -16.5 C 1.515625 -17.0625 1.695312 -17.519531 2.0625 -17.875 C 2.4375 -18.226562 2.914062 -18.40625 3.5 -18.40625 C 3.894531 -18.40625 4.242188 -18.320312 4.546875 -18.15625 C 4.859375 -18 5.097656 -17.773438 5.265625 -17.484375 C 5.441406 -17.203125 5.53125 -16.875 5.53125 -16.5 C 5.53125 -16.132812 5.441406 -15.804688 5.265625 -15.515625 C 5.097656 -15.222656 4.859375 -14.992188 4.546875 -14.828125 C 4.242188 -14.660156 3.894531 -14.578125 3.5 -14.578125 Z M 1.875 0 L 1.875 -13.015625 L 5.140625 -13.015625 L 5.140625 0 Z M 1.875 0 "/></g></g></g><g fill="#ffffff" fill-opacity="1"><g transform="translate(171.322468, 145.438571)"><g><path d="M 1.875 0 L 1.875 -13.015625 L 5.015625 -13.015625 L 5.015625 -11.109375 L 5.265625 -11.046875 C 6.078125 -12.523438 7.390625 -13.265625 9.203125 -13.265625 C 10.703125 -13.265625 11.804688 -12.851562 12.515625 -12.03125 C 13.222656 -11.21875 13.578125 -10.03125 13.578125 -8.46875 L 13.578125 0 L 10.296875 0 L 10.296875 -8.0625 C 10.296875 -8.925781 10.125 -9.546875 9.78125 -9.921875 C 9.4375 -10.304688 8.882812 -10.5 8.125 -10.5 C 7.1875 -10.5 6.453125 -10.195312 5.921875 -9.59375 C 5.398438 -8.988281 5.140625 -8.035156 5.140625 -6.734375 L 5.140625 0 Z M 1.875 0 "/></g></g></g><g fill="#ffffff" fill-opacity="1"><g transform="translate(186.574865, 145.438571)"><g><path d="M 5.078125 0.25 C 4.242188 0.25 3.519531 0.0976562 2.90625 -0.203125 C 2.289062 -0.515625 1.816406 -0.96875 1.484375 -1.5625 C 1.148438 -2.15625 0.984375 -2.867188 0.984375 -3.703125 C 0.984375 -4.472656 1.148438 -5.117188 1.484375 -5.640625 C 1.816406 -6.171875 2.328125 -6.601562 3.015625 -6.9375 C 3.710938 -7.269531 4.617188 -7.523438 5.734375 -7.703125 C 6.515625 -7.828125 7.109375 -7.960938 7.515625 -8.109375 C 7.921875 -8.265625 8.191406 -8.4375 8.328125 -8.625 C 8.472656 -8.8125 8.546875 -9.050781 8.546875 -9.34375 C 8.546875 -9.757812 8.398438 -10.078125 8.109375 -10.296875 C 7.816406 -10.523438 7.332031 -10.640625 6.65625 -10.640625 C 5.9375 -10.640625 5.25 -10.476562 4.59375 -10.15625 C 3.9375 -9.832031 3.367188 -9.40625 2.890625 -8.875 L 2.65625 -8.875 L 1.28125 -10.9375 C 1.945312 -11.664062 2.753906 -12.234375 3.703125 -12.640625 C 4.660156 -13.054688 5.703125 -13.265625 6.828125 -13.265625 C 8.546875 -13.265625 9.789062 -12.898438 10.5625 -12.171875 C 11.332031 -11.441406 11.71875 -10.398438 11.71875 -9.046875 L 11.71875 -3.40625 C 11.71875 -2.820312 11.972656 -2.53125 12.484375 -2.53125 C 12.679688 -2.53125 12.875 -2.5625 13.0625 -2.625 L 13.234375 -2.578125 L 13.46875 -0.3125 C 13.289062 -0.1875 13.039062 -0.0859375 12.71875 -0.015625 C 12.394531 0.0546875 12.039062 0.09375 11.65625 0.09375 C 10.875 0.09375 10.265625 -0.0507812 9.828125 -0.34375 C 9.390625 -0.644531 9.078125 -1.117188 8.890625 -1.765625 L 8.640625 -1.78125 C 8.003906 -0.425781 6.816406 0.25 5.078125 0.25 Z M 6.109375 -2.1875 C 6.867188 -2.1875 7.472656 -2.441406 7.921875 -2.953125 C 8.378906 -3.460938 8.609375 -4.171875 8.609375 -5.078125 L 8.609375 -6.390625 L 8.375 -6.4375 C 8.175781 -6.28125 7.914062 -6.148438 7.59375 -6.046875 C 7.28125 -5.941406 6.828125 -5.835938 6.234375 -5.734375 C 5.523438 -5.617188 5.015625 -5.414062 4.703125 -5.125 C 4.390625 -4.84375 4.234375 -4.4375 4.234375 -3.90625 C 4.234375 -3.34375 4.398438 -2.914062 4.734375 -2.625 C 5.066406 -2.332031 5.523438 -2.1875 6.109375 -2.1875 Z M 6.109375 -2.1875 "/></g></g></g><g fill="#ffffff" fill-opacity="1"><g transform="translate(200.304387, 145.438571)"><g><path d="M 9.09375 0.25 C 7.4375 0.25 6.203125 -0.367188 5.390625 -1.609375 L 5.140625 -1.5625 L 5.140625 0 L 1.875 0 L 1.875 -18.25 L 5.140625 -18.25 L 5.140625 -11.484375 L 5.390625 -11.4375 C 5.835938 -12.0625 6.363281 -12.519531 6.96875 -12.8125 C 7.582031 -13.113281 8.316406 -13.265625 9.171875 -13.265625 C 10.222656 -13.265625 11.140625 -13.015625 11.921875 -12.515625 C 12.710938 -12.023438 13.328125 -11.273438 13.765625 -10.265625 C 14.210938 -9.253906 14.4375 -8 14.4375 -6.5 C 14.4375 -5.019531 14.207031 -3.773438 13.75 -2.765625 C 13.289062 -1.753906 12.660156 -1 11.859375 -0.5 C 11.054688 0 10.132812 0.25 9.09375 0.25 Z M 8.109375 -2.53125 C 9.066406 -2.53125 9.796875 -2.847656 10.296875 -3.484375 C 10.804688 -4.128906 11.0625 -5.132812 11.0625 -6.5 C 11.0625 -7.875 10.804688 -8.882812 10.296875 -9.53125 C 9.796875 -10.175781 9.066406 -10.5 8.109375 -10.5 C 7.191406 -10.5 6.460938 -10.164062 5.921875 -9.5 C 5.378906 -8.84375 5.109375 -7.84375 5.109375 -6.5 C 5.109375 -5.164062 5.378906 -4.171875 5.921875 -3.515625 C 6.460938 -2.859375 7.191406 -2.53125 8.109375 -2.53125 Z M 8.109375 -2.53125 "/></g></g></g><g fill="#ffffff" fill-opacity="1"><g transform="translate(215.899141, 145.438571)"><g><path d="M 3.5 -14.578125 C 2.914062 -14.578125 2.4375 -14.753906 2.0625 -15.109375 C 1.695312 -15.472656 1.515625 -15.9375 1.515625 -16.5 C 1.515625 -17.0625 1.695312 -17.519531 2.0625 -17.875 C 2.4375 -18.226562 2.914062 -18.40625 3.5 -18.40625 C 3.894531 -18.40625 4.242188 -18.320312 4.546875 -18.15625 C 4.859375 -18 5.097656 -17.773438 5.265625 -17.484375 C 5.441406 -17.203125 5.53125 -16.875 5.53125 -16.5 C 5.53125 -16.132812 5.441406 -15.804688 5.265625 -15.515625 C 5.097656 -15.222656 4.859375 -14.992188 4.546875 -14.828125 C 4.242188 -14.660156 3.894531 -14.578125 3.5 -14.578125 Z M 1.875 0 L 1.875 -13.015625 L 5.140625 -13.015625 L 5.140625 0 Z M 1.875 0 "/></g></g></g><g fill="#ffffff" fill-opacity="1"><g transform="translate(222.911473, 145.438571)"><g><path d="M 5.40625 0.25 C 4.226562 0.25 3.332031 -0.0664062 2.71875 -0.703125 C 2.101562 -1.335938 1.796875 -2.300781 1.796875 -3.59375 L 1.796875 -18.25 L 5.0625 -18.25 L 5.0625 -3.71875 C 5.0625 -2.925781 5.394531 -2.53125 6.0625 -2.53125 C 6.25 -2.53125 6.445312 -2.5625 6.65625 -2.625 L 6.828125 -2.578125 L 7.109375 -0.0625 C 6.929688 0.03125 6.691406 0.101562 6.390625 0.15625 C 6.097656 0.21875 5.769531 0.25 5.40625 0.25 Z M 5.40625 0.25 "/></g></g></g><g fill="#ffffff" fill-opacity="1"><g transform="translate(230.396002, 145.438571)"><g><path d="M 3.5 -14.578125 C 2.914062 -14.578125 2.4375 -14.753906 2.0625 -15.109375 C 1.695312 -15.472656 1.515625 -15.9375 1.515625 -16.5 C 1.515625 -17.0625 1.695312 -17.519531 2.0625 -17.875 C 2.4375 -18.226562 2.914062 -18.40625 3.5 -18.40625 C 3.894531 -18.40625 4.242188 -18.320312 4.546875 -18.15625 C 4.859375 -18 5.097656 -17.773438 5.265625 -17.484375 C 5.441406 -17.203125 5.53125 -16.875 5.53125 -16.5 C 5.53125 -16.132812 5.441406 -15.804688 5.265625 -15.515625 C 5.097656 -15.222656 4.859375 -14.992188 4.546875 -14.828125 C 4.242188 -14.660156 3.894531 -14.578125 3.5 -14.578125 Z M 1.875 0 L 1.875 -13.015625 L 5.140625 -13.015625 L 5.140625 0 Z M 1.875 0 "/></g></g></g><g fill="#ffffff" fill-opacity="1"><g transform="translate(237.40832, 145.438571)"><g><path d="M 8.984375 -3.109375 L 9.828125 -0.6875 C 9.472656 -0.394531 9.03125 -0.164062 8.5 0 C 7.96875 0.164062 7.363281 0.25 6.6875 0.25 C 5.269531 0.25 4.195312 -0.128906 3.46875 -0.890625 C 2.738281 -1.660156 2.375 -2.78125 2.375 -4.25 L 2.375 -10.4375 L 0.390625 -10.4375 L 0.390625 -13.03125 L 2.375 -13.03125 L 2.375 -15.5625 L 5.640625 -16.09375 L 5.640625 -13.03125 L 9.328125 -13.03125 L 9.328125 -10.4375 L 5.640625 -10.4375 L 5.640625 -4.484375 C 5.640625 -3.835938 5.769531 -3.363281 6.03125 -3.0625 C 6.300781 -2.769531 6.695312 -2.625 7.21875 -2.625 C 7.789062 -2.625 8.296875 -2.785156 8.734375 -3.109375 Z M 8.984375 -3.109375 "/></g></g></g><g fill="#ffffff" fill-opacity="1"><g transform="translate(247.52544, 145.438571)"><g><path d="M 2.875 5.53125 C 2.320312 5.53125 1.816406 5.484375 1.359375 5.390625 C 0.910156 5.304688 0.546875 5.191406 0.265625 5.046875 L 0.78125 2.40625 L 0.984375 2.34375 C 1.179688 2.4375 1.425781 2.515625 1.71875 2.578125 C 2.007812 2.640625 2.3125 2.671875 2.625 2.671875 C 3.144531 2.671875 3.582031 2.601562 3.9375 2.46875 C 4.289062 2.332031 4.585938 2.101562 4.828125 1.78125 C 5.066406 1.46875 5.28125 1.023438 5.46875 0.453125 L 0.28125 -13.015625 L 3.703125 -13.015625 L 6.9375 -3.96875 L 7.21875 -3.96875 L 10.375 -13.015625 L 13.703125 -13.015625 L 8.46875 0.8125 C 8.050781 1.925781 7.59375 2.820312 7.09375 3.5 C 6.59375 4.1875 6.003906 4.695312 5.328125 5.03125 C 4.648438 5.363281 3.832031 5.53125 2.875 5.53125 Z M 2.875 5.53125 "/></g></g></g><g fill="#ffffff" fill-opacity="1"><g transform="translate(124.556394, 174.634661)"><g><path d="M 4.359375 0 L 2.34375 0 L 0.25 -9.140625 L 2.046875 -9.140625 L 3.4375 -2.71875 L 3.59375 -2.71875 L 5.21875 -9.140625 L 6.765625 -9.140625 L 8.4375 -2.71875 L 8.59375 -2.71875 L 9.984375 -9.140625 L 11.71875 -9.140625 L 9.625 0 L 7.609375 0 L 6 -5.890625 L 5.875 -5.890625 Z M 4.359375 0 "/></g></g></g><g fill="#ffffff" fill-opacity="1"><g transform="translate(136.516513, 174.634661)"><g><path d="M 6.8125 -3.0625 L 2.375 -3.0625 C 2.425781 -2.457031 2.597656 -2.019531 2.890625 -1.75 C 3.179688 -1.476562 3.582031 -1.34375 4.09375 -1.34375 C 4.488281 -1.34375 4.804688 -1.414062 5.046875 -1.5625 C 5.296875 -1.707031 5.492188 -1.929688 5.640625 -2.234375 L 5.78125 -2.234375 L 6.921875 -1.5 C 6.691406 -1.007812 6.347656 -0.613281 5.890625 -0.3125 C 5.441406 -0.0195312 4.84375 0.125 4.09375 0.125 C 3.375 0.125 2.753906 -0.0078125 2.234375 -0.28125 C 1.722656 -0.550781 1.328125 -0.953125 1.046875 -1.484375 C 0.765625 -2.015625 0.625 -2.664062 0.625 -3.4375 C 0.625 -4.226562 0.769531 -4.890625 1.0625 -5.421875 C 1.351562 -5.960938 1.75 -6.363281 2.25 -6.625 C 2.757812 -6.882812 3.332031 -7.015625 3.96875 -7.015625 C 4.9375 -7.015625 5.679688 -6.753906 6.203125 -6.234375 C 6.722656 -5.722656 6.984375 -4.96875 6.984375 -3.96875 C 6.984375 -3.613281 6.96875 -3.332031 6.9375 -3.125 Z M 5.328125 -4.171875 C 5.304688 -4.703125 5.179688 -5.085938 4.953125 -5.328125 C 4.734375 -5.566406 4.40625 -5.6875 3.96875 -5.6875 C 3.09375 -5.6875 2.578125 -5.179688 2.421875 -4.171875 Z M 5.328125 -4.171875 "/></g></g></g><g fill="#ffffff" fill-opacity="1"><g transform="translate(144.008775, 174.634661)"><g/></g></g><g fill="#ffffff" fill-opacity="1"><g transform="translate(147.026927, 174.634661)"><g><path d="M 3.21875 0.125 C 2.75 0.125 2.316406 0.0703125 1.921875 -0.03125 C 1.535156 -0.144531 1.203125 -0.296875 0.921875 -0.484375 C 0.648438 -0.679688 0.445312 -0.90625 0.3125 -1.15625 L 1.28125 -2.1875 L 1.40625 -2.1875 C 1.632812 -1.882812 1.90625 -1.65625 2.21875 -1.5 C 2.53125 -1.34375 2.867188 -1.265625 3.234375 -1.265625 C 3.578125 -1.265625 3.832031 -1.320312 4 -1.4375 C 4.164062 -1.5625 4.25 -1.738281 4.25 -1.96875 C 4.25 -2.144531 4.1875 -2.289062 4.0625 -2.40625 C 3.945312 -2.53125 3.75 -2.625 3.46875 -2.6875 L 2.5625 -2.90625 C 1.875 -3.070312 1.375 -3.320312 1.0625 -3.65625 C 0.75 -3.988281 0.59375 -4.414062 0.59375 -4.9375 C 0.59375 -5.363281 0.703125 -5.734375 0.921875 -6.046875 C 1.140625 -6.359375 1.445312 -6.597656 1.84375 -6.765625 C 2.238281 -6.929688 2.703125 -7.015625 3.234375 -7.015625 C 3.859375 -7.015625 4.375 -6.925781 4.78125 -6.75 C 5.1875 -6.570312 5.503906 -6.332031 5.734375 -6.03125 L 4.8125 -5.03125 L 4.6875 -5.03125 C 4.5 -5.25 4.285156 -5.40625 4.046875 -5.5 C 3.804688 -5.601562 3.535156 -5.65625 3.234375 -5.65625 C 2.554688 -5.65625 2.21875 -5.445312 2.21875 -5.03125 C 2.21875 -4.84375 2.28125 -4.691406 2.40625 -4.578125 C 2.53125 -4.472656 2.753906 -4.382812 3.078125 -4.3125 L 3.921875 -4.125 C 4.617188 -3.976562 5.128906 -3.738281 5.453125 -3.40625 C 5.773438 -3.070312 5.9375 -2.625 5.9375 -2.0625 C 5.9375 -1.625 5.828125 -1.238281 5.609375 -0.90625 C 5.398438 -0.570312 5.085938 -0.316406 4.671875 -0.140625 C 4.265625 0.0351562 3.78125 0.125 3.21875 0.125 Z M 3.21875 0.125 "/></g></g></g><g fill="#ffffff" fill-opacity="1"><g transform="translate(153.381915, 174.634661)"><g><path d="M 4.75 -1.640625 L 5.203125 -0.359375 C 5.015625 -0.203125 4.78125 -0.0820312 4.5 0 C 4.21875 0.0820312 3.894531 0.125 3.53125 0.125 C 2.789062 0.125 2.222656 -0.078125 1.828125 -0.484375 C 1.441406 -0.890625 1.25 -1.476562 1.25 -2.25 L 1.25 -5.53125 L 0.203125 -5.53125 L 0.203125 -6.890625 L 1.25 -6.890625 L 1.25 -8.234375 L 2.984375 -8.515625 L 2.984375 -6.890625 L 4.9375 -6.890625 L 4.9375 -5.53125 L 2.984375 -5.53125 L 2.984375 -2.375 C 2.984375 -2.03125 3.050781 -1.78125 3.1875 -1.625 C 3.332031 -1.46875 3.539062 -1.390625 3.8125 -1.390625 C 4.125 -1.390625 4.394531 -1.472656 4.625 -1.640625 Z M 4.75 -1.640625 "/></g></g></g><g fill="#ffffff" fill-opacity="1"><g transform="translate(158.737103, 174.634661)"><g><path d="M 1 0 L 1 -6.890625 L 2.671875 -6.890625 L 2.671875 -5.875 L 2.8125 -5.84375 C 2.976562 -6.226562 3.195312 -6.507812 3.46875 -6.6875 C 3.738281 -6.863281 4.066406 -6.953125 4.453125 -6.953125 C 4.835938 -6.953125 5.132812 -6.882812 5.34375 -6.75 L 5.046875 -5.265625 L 4.921875 -5.234375 C 4.804688 -5.285156 4.695312 -5.320312 4.59375 -5.34375 C 4.488281 -5.363281 4.363281 -5.375 4.21875 -5.375 C 3.726562 -5.375 3.351562 -5.203125 3.09375 -4.859375 C 2.84375 -4.515625 2.71875 -3.96875 2.71875 -3.21875 L 2.71875 0 Z M 1 0 "/></g></g></g><g fill="#ffffff" fill-opacity="1"><g transform="translate(164.14228, 174.634661)"><g><path d="M 1.859375 -7.71875 C 1.546875 -7.71875 1.289062 -7.8125 1.09375 -8 C 0.894531 -8.1875 0.796875 -8.429688 0.796875 -8.734375 C 0.796875 -9.023438 0.894531 -9.265625 1.09375 -9.453125 C 1.289062 -9.648438 1.546875 -9.75 1.859375 -9.75 C 2.066406 -9.75 2.25 -9.703125 2.40625 -9.609375 C 2.570312 -9.523438 2.695312 -9.40625 2.78125 -9.25 C 2.875 -9.101562 2.921875 -8.929688 2.921875 -8.734375 C 2.921875 -8.535156 2.875 -8.359375 2.78125 -8.203125 C 2.695312 -8.054688 2.570312 -7.9375 2.40625 -7.84375 C 2.25 -7.757812 2.066406 -7.71875 1.859375 -7.71875 Z M 1 0 L 1 -6.890625 L 2.71875 -6.890625 L 2.71875 0 Z M 1 0 "/></g></g></g><g fill="#ffffff" fill-opacity="1"><g transform="translate(167.854041, 174.634661)"><g><path d="M 4.75 0 L 2.6875 0 L 0.125 -6.890625 L 1.9375 -6.890625 L 3.65625 -1.984375 L 3.796875 -1.984375 L 5.515625 -6.890625 L 7.28125 -6.890625 Z M 4.75 0 "/></g></g></g><g fill="#ffffff" fill-opacity="1"><g transform="translate(175.265066, 174.634661)"><g><path d="M 6.8125 -3.0625 L 2.375 -3.0625 C 2.425781 -2.457031 2.597656 -2.019531 2.890625 -1.75 C 3.179688 -1.476562 3.582031 -1.34375 4.09375 -1.34375 C 4.488281 -1.34375 4.804688 -1.414062 5.046875 -1.5625 C 5.296875 -1.707031 5.492188 -1.929688 5.640625 -2.234375 L 5.78125 -2.234375 L 6.921875 -1.5 C 6.691406 -1.007812 6.347656 -0.613281 5.890625 -0.3125 C 5.441406 -0.0195312 4.84375 0.125 4.09375 0.125 C 3.375 0.125 2.753906 -0.0078125 2.234375 -0.28125 C 1.722656 -0.550781 1.328125 -0.953125 1.046875 -1.484375 C 0.765625 -2.015625 0.625 -2.664062 0.625 -3.4375 C 0.625 -4.226562 0.769531 -4.890625 1.0625 -5.421875 C 1.351562 -5.960938 1.75 -6.363281 2.25 -6.625 C 2.757812 -6.882812 3.332031 -7.015625 3.96875 -7.015625 C 4.9375 -7.015625 5.679688 -6.753906 6.203125 -6.234375 C 6.722656 -5.722656 6.984375 -4.96875 6.984375 -3.96875 C 6.984375 -3.613281 6.96875 -3.332031 6.9375 -3.125 Z M 5.328125 -4.171875 C 5.304688 -4.703125 5.179688 -5.085938 4.953125 -5.328125 C 4.734375 -5.566406 4.40625 -5.6875 3.96875 -5.6875 C 3.09375 -5.6875 2.578125 -5.179688 2.421875 -4.171875 Z M 5.328125 -4.171875 "/></g></g></g><g fill="#ffffff" fill-opacity="1"><g transform="translate(182.757328, 174.634661)"><g/></g></g><g fill="#ffffff" fill-opacity="1"><g transform="translate(185.77548, 174.634661)"><g><path d="M 4.75 -1.640625 L 5.203125 -0.359375 C 5.015625 -0.203125 4.78125 -0.0820312 4.5 0 C 4.21875 0.0820312 3.894531 0.125 3.53125 0.125 C 2.789062 0.125 2.222656 -0.078125 1.828125 -0.484375 C 1.441406 -0.890625 1.25 -1.476562 1.25 -2.25 L 1.25 -5.53125 L 0.203125 -5.53125 L 0.203125 -6.890625 L 1.25 -6.890625 L 1.25 -8.234375 L 2.984375 -8.515625 L 2.984375 -6.890625 L 4.9375 -6.890625 L 4.9375 -5.53125 L 2.984375 -5.53125 L 2.984375 -2.375 C 2.984375 -2.03125 3.050781 -1.78125 3.1875 -1.625 C 3.332031 -1.46875 3.539062 -1.390625 3.8125 -1.390625 C 4.125 -1.390625 4.394531 -1.472656 4.625 -1.640625 Z M 4.75 -1.640625 "/></g></g></g><g fill="#ffffff" fill-opacity="1"><g transform="translate(191.130667, 174.634661)"><g><path d="M 4 0.125 C 3.332031 0.125 2.742188 -0.0078125 2.234375 -0.28125 C 1.722656 -0.5625 1.328125 -0.96875 1.046875 -1.5 C 0.765625 -2.039062 0.625 -2.6875 0.625 -3.4375 C 0.625 -4.195312 0.765625 -4.84375 1.046875 -5.375 C 1.328125 -5.914062 1.722656 -6.320312 2.234375 -6.59375 C 2.742188 -6.875 3.332031 -7.015625 4 -7.015625 C 4.675781 -7.015625 5.269531 -6.875 5.78125 -6.59375 C 6.289062 -6.320312 6.6875 -5.914062 6.96875 -5.375 C 7.25 -4.84375 7.390625 -4.195312 7.390625 -3.4375 C 7.390625 -2.6875 7.25 -2.039062 6.96875 -1.5 C 6.6875 -0.96875 6.289062 -0.5625 5.78125 -0.28125 C 5.269531 -0.0078125 4.675781 0.125 4 0.125 Z M 4 -1.34375 C 5.070312 -1.34375 5.609375 -2.039062 5.609375 -3.4375 C 5.609375 -4.164062 5.46875 -4.703125 5.1875 -5.046875 C 4.914062 -5.390625 4.519531 -5.5625 4 -5.5625 C 2.9375 -5.5625 2.40625 -4.851562 2.40625 -3.4375 C 2.40625 -2.039062 2.9375 -1.34375 4 -1.34375 Z M 4 -1.34375 "/></g></g></g><g fill="#ffffff" fill-opacity="1"><g transform="translate(199.141573, 174.634661)"><g/></g></g><g fill="#ffffff" fill-opacity="1"><g transform="translate(202.159725, 174.634661)"><g><path d="M 4.8125 0.125 C 3.9375 0.125 3.285156 -0.203125 2.859375 -0.859375 L 2.71875 -0.828125 L 2.71875 0 L 1 0 L 1 -9.65625 L 2.71875 -9.65625 L 2.71875 -6.078125 L 2.859375 -6.0625 C 3.097656 -6.382812 3.378906 -6.625 3.703125 -6.78125 C 4.023438 -6.9375 4.410156 -7.015625 4.859375 -7.015625 C 5.410156 -7.015625 5.894531 -6.882812 6.3125 -6.625 C 6.726562 -6.363281 7.050781 -5.960938 7.28125 -5.421875 C 7.519531 -4.890625 7.640625 -4.226562 7.640625 -3.4375 C 7.640625 -2.65625 7.519531 -1.992188 7.28125 -1.453125 C 7.039062 -0.921875 6.707031 -0.523438 6.28125 -0.265625 C 5.851562 -0.00390625 5.363281 0.125 4.8125 0.125 Z M 4.296875 -1.34375 C 4.804688 -1.34375 5.191406 -1.507812 5.453125 -1.84375 C 5.722656 -2.1875 5.859375 -2.71875 5.859375 -3.4375 C 5.859375 -4.164062 5.722656 -4.703125 5.453125 -5.046875 C 5.191406 -5.390625 4.804688 -5.5625 4.296875 -5.5625 C 3.804688 -5.5625 3.414062 -5.382812 3.125 -5.03125 C 2.84375 -4.675781 2.703125 -4.144531 2.703125 -3.4375 C 2.703125 -2.726562 2.84375 -2.203125 3.125 -1.859375 C 3.414062 -1.515625 3.804688 -1.34375 4.296875 -1.34375 Z M 4.296875 -1.34375 "/></g></g></g><g fill="#ffffff" fill-opacity="1"><g transform="translate(210.414335, 174.634661)"><g><path d="M 3.15625 0.125 C 2.382812 0.125 1.8125 -0.0820312 1.4375 -0.5 C 1.070312 -0.925781 0.890625 -1.535156 0.890625 -2.328125 L 0.890625 -6.890625 L 2.625 -6.890625 L 2.625 -2.546875 C 2.625 -2.117188 2.710938 -1.804688 2.890625 -1.609375 C 3.066406 -1.421875 3.347656 -1.328125 3.734375 -1.328125 C 4.210938 -1.328125 4.582031 -1.484375 4.84375 -1.796875 C 5.113281 -2.117188 5.25 -2.613281 5.25 -3.28125 L 5.25 -6.890625 L 6.984375 -6.890625 L 6.984375 0 L 5.3125 0 L 5.3125 -1.015625 L 5.1875 -1.046875 C 4.96875 -0.648438 4.695312 -0.351562 4.375 -0.15625 C 4.0625 0.03125 3.65625 0.125 3.15625 0.125 Z M 3.15625 0.125 "/></g></g></g><g fill="#ffffff" fill-opacity="1"><g transform="translate(218.387748, 174.634661)"><g><path d="M 1.859375 -7.71875 C 1.546875 -7.71875 1.289062 -7.8125 1.09375 -8 C 0.894531 -8.1875 0.796875 -8.429688 0.796875 -8.734375 C 0.796875 -9.023438 0.894531 -9.265625 1.09375 -9.453125 C 1.289062 -9.648438 1.546875 -9.75 1.859375 -9.75 C 2.066406 -9.75 2.25 -9.703125 2.40625 -9.609375 C 2.570312 -9.523438 2.695312 -9.40625 2.78125 -9.25 C 2.875 -9.101562 2.921875 -8.929688 2.921875 -8.734375 C 2.921875 -8.535156 2.875 -8.359375 2.78125 -8.203125 C 2.695312 -8.054688 2.570312 -7.9375 2.40625 -7.84375 C 2.25 -7.757812 2.066406 -7.71875 1.859375 -7.71875 Z M 1 0 L 1 -6.890625 L 2.71875 -6.890625 L 2.71875 0 Z M 1 0 "/></g></g></g><g fill="#ffffff" fill-opacity="1"><g transform="translate(222.099509, 174.634661)"><g><path d="M 2.859375 0.125 C 2.242188 0.125 1.769531 -0.0390625 1.4375 -0.375 C 1.113281 -0.707031 0.953125 -1.21875 0.953125 -1.90625 L 0.953125 -9.65625 L 2.6875 -9.65625 L 2.6875 -1.96875 C 2.6875 -1.550781 2.859375 -1.34375 3.203125 -1.34375 C 3.304688 -1.34375 3.414062 -1.359375 3.53125 -1.390625 L 3.609375 -1.359375 L 3.765625 -0.03125 C 3.671875 0.0195312 3.546875 0.0546875 3.390625 0.078125 C 3.234375 0.109375 3.054688 0.125 2.859375 0.125 Z M 2.859375 0.125 "/></g></g></g><g fill="#ffffff" fill-opacity="1"><g transform="translate(226.061221, 174.634661)"><g><path d="M 3.40625 0.125 C 2.863281 0.125 2.378906 -0.00390625 1.953125 -0.265625 C 1.535156 -0.523438 1.207031 -0.921875 0.96875 -1.453125 C 0.738281 -1.992188 0.625 -2.65625 0.625 -3.4375 C 0.625 -4.226562 0.742188 -4.890625 0.984375 -5.421875 C 1.222656 -5.960938 1.554688 -6.363281 1.984375 -6.625 C 2.421875 -6.882812 2.925781 -7.015625 3.5 -7.015625 C 3.925781 -7.015625 4.296875 -6.941406 4.609375 -6.796875 C 4.921875 -6.648438 5.1875 -6.421875 5.40625 -6.109375 L 5.53125 -6.140625 L 5.53125 -9.65625 L 7.265625 -9.65625 L 7.265625 0 L 5.53125 0 L 5.53125 -0.890625 L 5.40625 -0.921875 C 5.21875 -0.597656 4.957031 -0.34375 4.625 -0.15625 C 4.289062 0.03125 3.882812 0.125 3.40625 0.125 Z M 3.96875 -1.34375 C 4.457031 -1.34375 4.84375 -1.515625 5.125 -1.859375 C 5.40625 -2.203125 5.546875 -2.726562 5.546875 -3.4375 C 5.546875 -4.144531 5.40625 -4.675781 5.125 -5.03125 C 4.84375 -5.382812 4.457031 -5.5625 3.96875 -5.5625 C 3.457031 -5.5625 3.066406 -5.390625 2.796875 -5.046875 C 2.535156 -4.703125 2.40625 -4.164062 2.40625 -3.4375 C 2.40625 -2.71875 2.535156 -2.1875 2.796875 -1.84375 C 3.066406 -1.507812 3.457031 -1.34375 3.96875 -1.34375 Z M 3.96875 -1.34375 "/></g></g></g><g fill="#ffffff" fill-opacity="1"><g transform="translate(102.834133, 192.525186)"><g><path d="M 1 0 L 1 -6.890625 L 2.671875 -6.890625 L 2.671875 -5.875 L 2.8125 -5.84375 C 2.976562 -6.226562 3.195312 -6.507812 3.46875 -6.6875 C 3.738281 -6.863281 4.066406 -6.953125 4.453125 -6.953125 C 4.835938 -6.953125 5.132812 -6.882812 5.34375 -6.75 L 5.046875 -5.265625 L 4.921875 -5.234375 C 4.804688 -5.285156 4.695312 -5.320312 4.59375 -5.34375 C 4.488281 -5.363281 4.363281 -5.375 4.21875 -5.375 C 3.726562 -5.375 3.351562 -5.203125 3.09375 -4.859375 C 2.84375 -4.515625 2.71875 -3.96875 2.71875 -3.21875 L 2.71875 0 Z M 1 0 "/></g></g></g><g fill="#ffffff" fill-opacity="1"><g transform="translate(108.23931, 192.525186)"><g><path d="M 6.8125 -3.0625 L 2.375 -3.0625 C 2.425781 -2.457031 2.597656 -2.019531 2.890625 -1.75 C 3.179688 -1.476562 3.582031 -1.34375 4.09375 -1.34375 C 4.488281 -1.34375 4.804688 -1.414062 5.046875 -1.5625 C 5.296875 -1.707031 5.492188 -1.929688 5.640625 -2.234375 L 5.78125 -2.234375 L 6.921875 -1.5 C 6.691406 -1.007812 6.347656 -0.613281 5.890625 -0.3125 C 5.441406 -0.0195312 4.84375 0.125 4.09375 0.125 C 3.375 0.125 2.753906 -0.0078125 2.234375 -0.28125 C 1.722656 -0.550781 1.328125 -0.953125 1.046875 -1.484375 C 0.765625 -2.015625 0.625 -2.664062 0.625 -3.4375 C 0.625 -4.226562 0.769531 -4.890625 1.0625 -5.421875 C 1.351562 -5.960938 1.75 -6.363281 2.25 -6.625 C 2.757812 -6.882812 3.332031 -7.015625 3.96875 -7.015625 C 4.9375 -7.015625 5.679688 -6.753906 6.203125 -6.234375 C 6.722656 -5.722656 6.984375 -4.96875 6.984375 -3.96875 C 6.984375 -3.613281 6.96875 -3.332031 6.9375 -3.125 Z M 5.328125 -4.171875 C 5.304688 -4.703125 5.179688 -5.085938 4.953125 -5.328125 C 4.734375 -5.566406 4.40625 -5.6875 3.96875 -5.6875 C 3.09375 -5.6875 2.578125 -5.179688 2.421875 -4.171875 Z M 5.328125 -4.171875 "/></g></g></g><g fill="#ffffff" fill-opacity="1"><g transform="translate(115.731572, 192.525186)"><g><path d="M 3.21875 0.125 C 2.75 0.125 2.316406 0.0703125 1.921875 -0.03125 C 1.535156 -0.144531 1.203125 -0.296875 0.921875 -0.484375 C 0.648438 -0.679688 0.445312 -0.90625 0.3125 -1.15625 L 1.28125 -2.1875 L 1.40625 -2.1875 C 1.632812 -1.882812 1.90625 -1.65625 2.21875 -1.5 C 2.53125 -1.34375 2.867188 -1.265625 3.234375 -1.265625 C 3.578125 -1.265625 3.832031 -1.320312 4 -1.4375 C 4.164062 -1.5625 4.25 -1.738281 4.25 -1.96875 C 4.25 -2.144531 4.1875 -2.289062 4.0625 -2.40625 C 3.945312 -2.53125 3.75 -2.625 3.46875 -2.6875 L 2.5625 -2.90625 C 1.875 -3.070312 1.375 -3.320312 1.0625 -3.65625 C 0.75 -3.988281 0.59375 -4.414062 0.59375 -4.9375 C 0.59375 -5.363281 0.703125 -5.734375 0.921875 -6.046875 C 1.140625 -6.359375 1.445312 -6.597656 1.84375 -6.765625 C 2.238281 -6.929688 2.703125 -7.015625 3.234375 -7.015625 C 3.859375 -7.015625 4.375 -6.925781 4.78125 -6.75 C 5.1875 -6.570312 5.503906 -6.332031 5.734375 -6.03125 L 4.8125 -5.03125 L 4.6875 -5.03125 C 4.5 -5.25 4.285156 -5.40625 4.046875 -5.5 C 3.804688 -5.601562 3.535156 -5.65625 3.234375 -5.65625 C 2.554688 -5.65625 2.21875 -5.445312 2.21875 -5.03125 C 2.21875 -4.84375 2.28125 -4.691406 2.40625 -4.578125 C 2.53125 -4.472656 2.753906 -4.382812 3.078125 -4.3125 L 3.921875 -4.125 C 4.617188 -3.976562 5.128906 -3.738281 5.453125 -3.40625 C 5.773438 -3.070312 5.9375 -2.625 5.9375 -2.0625 C 5.9375 -1.625 5.828125 -1.238281 5.609375 -0.90625 C 5.398438 -0.570312 5.085938 -0.316406 4.671875 -0.140625 C 4.265625 0.0351562 3.78125 0.125 3.21875 0.125 Z M 3.21875 0.125 "/></g></g></g><g fill="#ffffff" fill-opacity="1"><g transform="translate(122.08656, 192.525186)"><g><path d="M 1 2.796875 L 1 -6.890625 L 2.71875 -6.890625 L 2.71875 -6 L 2.859375 -5.96875 C 3.054688 -6.3125 3.328125 -6.570312 3.671875 -6.75 C 4.015625 -6.925781 4.414062 -7.015625 4.875 -7.015625 C 5.425781 -7.015625 5.910156 -6.882812 6.328125 -6.625 C 6.742188 -6.363281 7.066406 -5.960938 7.296875 -5.421875 C 7.523438 -4.890625 7.640625 -4.226562 7.640625 -3.4375 C 7.640625 -2.65625 7.515625 -1.992188 7.265625 -1.453125 C 7.023438 -0.921875 6.6875 -0.523438 6.25 -0.265625 C 5.820312 -0.00390625 5.328125 0.125 4.765625 0.125 C 4.335938 0.125 3.96875 0.0546875 3.65625 -0.078125 C 3.34375 -0.222656 3.078125 -0.445312 2.859375 -0.75 L 2.71875 -0.734375 L 2.71875 2.796875 Z M 4.28125 -1.34375 C 4.800781 -1.34375 5.191406 -1.507812 5.453125 -1.84375 C 5.722656 -2.175781 5.859375 -2.707031 5.859375 -3.4375 C 5.859375 -4.164062 5.722656 -4.703125 5.453125 -5.046875 C 5.191406 -5.390625 4.800781 -5.5625 4.28125 -5.5625 C 3.800781 -5.5625 3.414062 -5.382812 3.125 -5.03125 C 2.84375 -4.675781 2.703125 -4.144531 2.703125 -3.4375 C 2.703125 -2.738281 2.84375 -2.210938 3.125 -1.859375 C 3.414062 -1.515625 3.800781 -1.34375 4.28125 -1.34375 Z M 4.28125 -1.34375 "/></g></g></g><g fill="#ffffff" fill-opacity="1"><g transform="translate(130.34117, 192.525186)"><g><path d="M 4 0.125 C 3.332031 0.125 2.742188 -0.0078125 2.234375 -0.28125 C 1.722656 -0.5625 1.328125 -0.96875 1.046875 -1.5 C 0.765625 -2.039062 0.625 -2.6875 0.625 -3.4375 C 0.625 -4.195312 0.765625 -4.84375 1.046875 -5.375 C 1.328125 -5.914062 1.722656 -6.320312 2.234375 -6.59375 C 2.742188 -6.875 3.332031 -7.015625 4 -7.015625 C 4.675781 -7.015625 5.269531 -6.875 5.78125 -6.59375 C 6.289062 -6.320312 6.6875 -5.914062 6.96875 -5.375 C 7.25 -4.84375 7.390625 -4.195312 7.390625 -3.4375 C 7.390625 -2.6875 7.25 -2.039062 6.96875 -1.5 C 6.6875 -0.96875 6.289062 -0.5625 5.78125 -0.28125 C 5.269531 -0.0078125 4.675781 0.125 4 0.125 Z M 4 -1.34375 C 5.070312 -1.34375 5.609375 -2.039062 5.609375 -3.4375 C 5.609375 -4.164062 5.46875 -4.703125 5.1875 -5.046875 C 4.914062 -5.390625 4.519531 -5.5625 4 -5.5625 C 2.9375 -5.5625 2.40625 -4.851562 2.40625 -3.4375 C 2.40625 -2.039062 2.9375 -1.34375 4 -1.34375 Z M 4 -1.34375 "/></g></g></g><g fill="#ffffff" fill-opacity="1"><g transform="translate(138.352076, 192.525186)"><g><path d="M 1 0 L 1 -6.890625 L 2.65625 -6.890625 L 2.65625 -5.875 L 2.78125 -5.84375 C 3.21875 -6.625 3.914062 -7.015625 4.875 -7.015625 C 5.664062 -7.015625 6.25 -6.796875 6.625 -6.359375 C 7 -5.929688 7.1875 -5.304688 7.1875 -4.484375 L 7.1875 0 L 5.453125 0 L 5.453125 -4.265625 C 5.453125 -4.722656 5.359375 -5.050781 5.171875 -5.25 C 4.992188 -5.457031 4.703125 -5.5625 4.296875 -5.5625 C 3.804688 -5.5625 3.421875 -5.398438 3.140625 -5.078125 C 2.859375 -4.753906 2.71875 -4.25 2.71875 -3.5625 L 2.71875 0 Z M 1 0 "/></g></g></g><g fill="#ffffff" fill-opacity="1"><g transform="translate(146.425469, 192.525186)"><g><path d="M 3.21875 0.125 C 2.75 0.125 2.316406 0.0703125 1.921875 -0.03125 C 1.535156 -0.144531 1.203125 -0.296875 0.921875 -0.484375 C 0.648438 -0.679688 0.445312 -0.90625 0.3125 -1.15625 L 1.28125 -2.1875 L 1.40625 -2.1875 C 1.632812 -1.882812 1.90625 -1.65625 2.21875 -1.5 C 2.53125 -1.34375 2.867188 -1.265625 3.234375 -1.265625 C 3.578125 -1.265625 3.832031 -1.320312 4 -1.4375 C 4.164062 -1.5625 4.25 -1.738281 4.25 -1.96875 C 4.25 -2.144531 4.1875 -2.289062 4.0625 -2.40625 C 3.945312 -2.53125 3.75 -2.625 3.46875 -2.6875 L 2.5625 -2.90625 C 1.875 -3.070312 1.375 -3.320312 1.0625 -3.65625 C 0.75 -3.988281 0.59375 -4.414062 0.59375 -4.9375 C 0.59375 -5.363281 0.703125 -5.734375 0.921875 -6.046875 C 1.140625 -6.359375 1.445312 -6.597656 1.84375 -6.765625 C 2.238281 -6.929688 2.703125 -7.015625 3.234375 -7.015625 C 3.859375 -7.015625 4.375 -6.925781 4.78125 -6.75 C 5.1875 -6.570312 5.503906 -6.332031 5.734375 -6.03125 L 4.8125 -5.03125 L 4.6875 -5.03125 C 4.5 -5.25 4.285156 -5.40625 4.046875 -5.5 C 3.804688 -5.601562 3.535156 -5.65625 3.234375 -5.65625 C 2.554688 -5.65625 2.21875 -5.445312 2.21875 -5.03125 C 2.21875 -4.84375 2.28125 -4.691406 2.40625 -4.578125 C 2.53125 -4.472656 2.753906 -4.382812 3.078125 -4.3125 L 3.921875 -4.125 C 4.617188 -3.976562 5.128906 -3.738281 5.453125 -3.40625 C 5.773438 -3.070312 5.9375 -2.625 5.9375 -2.0625 C 5.9375 -1.625 5.828125 -1.238281 5.609375 -0.90625 C 5.398438 -0.570312 5.085938 -0.316406 4.671875 -0.140625 C 4.265625 0.0351562 3.78125 0.125 3.21875 0.125 Z M 3.21875 0.125 "/></g></g></g><g fill="#ffffff" fill-opacity="1"><g transform="translate(152.780457, 192.525186)"><g><path d="M 1.859375 -7.71875 C 1.546875 -7.71875 1.289062 -7.8125 1.09375 -8 C 0.894531 -8.1875 0.796875 -8.429688 0.796875 -8.734375 C 0.796875 -9.023438 0.894531 -9.265625 1.09375 -9.453125 C 1.289062 -9.648438 1.546875 -9.75 1.859375 -9.75 C 2.066406 -9.75 2.25 -9.703125 2.40625 -9.609375 C 2.570312 -9.523438 2.695312 -9.40625 2.78125 -9.25 C 2.875 -9.101562 2.921875 -8.929688 2.921875 -8.734375 C 2.921875 -8.535156 2.875 -8.359375 2.78125 -8.203125 C 2.695312 -8.054688 2.570312 -7.9375 2.40625 -7.84375 C 2.25 -7.757812 2.066406 -7.71875 1.859375 -7.71875 Z M 1 0 L 1 -6.890625 L 2.71875 -6.890625 L 2.71875 0 Z M 1 0 "/></g></g></g><g fill="#ffffff" fill-opacity="1"><g transform="translate(156.492218, 192.525186)"><g><path d="M 4.8125 0.125 C 3.9375 0.125 3.285156 -0.203125 2.859375 -0.859375 L 2.71875 -0.828125 L 2.71875 0 L 1 0 L 1 -9.65625 L 2.71875 -9.65625 L 2.71875 -6.078125 L 2.859375 -6.0625 C 3.097656 -6.382812 3.378906 -6.625 3.703125 -6.78125 C 4.023438 -6.9375 4.410156 -7.015625 4.859375 -7.015625 C 5.410156 -7.015625 5.894531 -6.882812 6.3125 -6.625 C 6.726562 -6.363281 7.050781 -5.960938 7.28125 -5.421875 C 7.519531 -4.890625 7.640625 -4.226562 7.640625 -3.4375 C 7.640625 -2.65625 7.519531 -1.992188 7.28125 -1.453125 C 7.039062 -0.921875 6.707031 -0.523438 6.28125 -0.265625 C 5.851562 -0.00390625 5.363281 0.125 4.8125 0.125 Z M 4.296875 -1.34375 C 4.804688 -1.34375 5.191406 -1.507812 5.453125 -1.84375 C 5.722656 -2.1875 5.859375 -2.71875 5.859375 -3.4375 C 5.859375 -4.164062 5.722656 -4.703125 5.453125 -5.046875 C 5.191406 -5.390625 4.804688 -5.5625 4.296875 -5.5625 C 3.804688 -5.5625 3.414062 -5.382812 3.125 -5.03125 C 2.84375 -4.675781 2.703125 -4.144531 2.703125 -3.4375 C 2.703125 -2.726562 2.84375 -2.203125 3.125 -1.859375 C 3.414062 -1.515625 3.804688 -1.34375 4.296875 -1.34375 Z M 4.296875 -1.34375 "/></g></g></g><g fill="#ffffff" fill-opacity="1"><g transform="translate(164.746828, 192.525186)"><g><path d="M 2.859375 0.125 C 2.242188 0.125 1.769531 -0.0390625 1.4375 -0.375 C 1.113281 -0.707031 0.953125 -1.21875 0.953125 -1.90625 L 0.953125 -9.65625 L 2.6875 -9.65625 L 2.6875 -1.96875 C 2.6875 -1.550781 2.859375 -1.34375 3.203125 -1.34375 C 3.304688 -1.34375 3.414062 -1.359375 3.53125 -1.390625 L 3.609375 -1.359375 L 3.765625 -0.03125 C 3.671875 0.0195312 3.546875 0.0546875 3.390625 0.078125 C 3.234375 0.109375 3.054688 0.125 2.859375 0.125 Z M 2.859375 0.125 "/></g></g></g><g fill="#ffffff" fill-opacity="1"><g transform="translate(168.70854, 192.525186)"><g><path d="M 1.53125 2.921875 C 1.226562 2.921875 0.957031 2.894531 0.71875 2.84375 C 0.476562 2.800781 0.285156 2.742188 0.140625 2.671875 L 0.40625 1.28125 L 0.53125 1.234375 C 0.632812 1.285156 0.757812 1.328125 0.90625 1.359375 C 1.0625 1.398438 1.222656 1.421875 1.390625 1.421875 C 1.671875 1.421875 1.898438 1.382812 2.078125 1.3125 C 2.265625 1.238281 2.421875 1.113281 2.546875 0.9375 C 2.679688 0.769531 2.800781 0.539062 2.90625 0.25 L 0.15625 -6.890625 L 1.96875 -6.890625 L 3.671875 -2.09375 L 3.828125 -2.09375 L 5.5 -6.890625 L 7.25 -6.890625 L 4.484375 0.4375 C 4.265625 1.019531 4.019531 1.492188 3.75 1.859375 C 3.488281 2.222656 3.175781 2.488281 2.8125 2.65625 C 2.457031 2.832031 2.03125 2.921875 1.53125 2.921875 Z M 1.53125 2.921875 "/></g></g></g><g fill="#ffffff" fill-opacity="1"><g transform="translate(176.107067, 192.525186)"><g><path d="M 0.25 1.84375 C 0.613281 1.613281 0.941406 1.335938 1.234375 1.015625 C 1.523438 0.703125 1.679688 0.378906 1.703125 0.046875 C 1.378906 0.046875 1.125 -0.046875 0.9375 -0.234375 C 0.75 -0.429688 0.65625 -0.6875 0.65625 -1 C 0.65625 -1.1875 0.695312 -1.359375 0.78125 -1.515625 C 0.875 -1.679688 1.003906 -1.8125 1.171875 -1.90625 C 1.335938 -2 1.53125 -2.046875 1.75 -2.046875 C 2.101562 -2.046875 2.382812 -1.929688 2.59375 -1.703125 C 2.800781 -1.472656 2.90625 -1.144531 2.90625 -0.71875 C 2.90625 0.03125 2.710938 0.679688 2.328125 1.234375 C 1.953125 1.785156 1.453125 2.25 0.828125 2.625 Z M 0.25 1.84375 "/></g></g></g><g fill="#ffffff" fill-opacity="1"><g transform="translate(179.662612, 192.525186)"><g/></g></g><g fill="#ffffff" fill-opacity="1"><g transform="translate(182.680765, 192.525186)"><g><path d="M 4.015625 0.125 C 3.347656 0.125 2.757812 -0.0078125 2.25 -0.28125 C 1.738281 -0.5625 1.335938 -0.96875 1.046875 -1.5 C 0.765625 -2.039062 0.625 -2.6875 0.625 -3.4375 C 0.625 -4.195312 0.765625 -4.84375 1.046875 -5.375 C 1.335938 -5.914062 1.734375 -6.320312 2.234375 -6.59375 C 2.742188 -6.875 3.328125 -7.015625 3.984375 -7.015625 C 5.441406 -7.015625 6.375 -6.488281 6.78125 -5.4375 L 5.59375 -4.59375 L 5.46875 -4.59375 C 5.320312 -4.914062 5.132812 -5.15625 4.90625 -5.3125 C 4.675781 -5.476562 4.367188 -5.5625 3.984375 -5.5625 C 3.484375 -5.5625 3.09375 -5.382812 2.8125 -5.03125 C 2.539062 -4.6875 2.40625 -4.15625 2.40625 -3.4375 C 2.40625 -2.726562 2.546875 -2.203125 2.828125 -1.859375 C 3.109375 -1.515625 3.503906 -1.34375 4.015625 -1.34375 C 4.390625 -1.34375 4.707031 -1.441406 4.96875 -1.640625 C 5.226562 -1.835938 5.414062 -2.128906 5.53125 -2.515625 L 5.65625 -2.53125 L 6.890625 -1.84375 C 6.710938 -1.257812 6.390625 -0.785156 5.921875 -0.421875 C 5.453125 -0.0546875 4.816406 0.125 4.015625 0.125 Z M 4.015625 0.125 "/></g></g></g><g fill="#ffffff" fill-opacity="1"><g transform="translate(189.785604, 192.525186)"><g><path d="M 4 0.125 C 3.332031 0.125 2.742188 -0.0078125 2.234375 -0.28125 C 1.722656 -0.5625 1.328125 -0.96875 1.046875 -1.5 C 0.765625 -2.039062 0.625 -2.6875 0.625 -3.4375 C 0.625 -4.195312 0.765625 -4.84375 1.046875 -5.375 C 1.328125 -5.914062 1.722656 -6.320312 2.234375 -6.59375 C 2.742188 -6.875 3.332031 -7.015625 4 -7.015625 C 4.675781 -7.015625 5.269531 -6.875 5.78125 -6.59375 C 6.289062 -6.320312 6.6875 -5.914062 6.96875 -5.375 C 7.25 -4.84375 7.390625 -4.195312 7.390625 -3.4375 C 7.390625 -2.6875 7.25 -2.039062 6.96875 -1.5 C 6.6875 -0.96875 6.289062 -0.5625 5.78125 -0.28125 C 5.269531 -0.0078125 4.675781 0.125 4 0.125 Z M 4 -1.34375 C 5.070312 -1.34375 5.609375 -2.039062 5.609375 -3.4375 C 5.609375 -4.164062 5.46875 -4.703125 5.1875 -5.046875 C 4.914062 -5.390625 4.519531 -5.5625 4 -5.5625 C 2.9375 -5.5625 2.40625 -4.851562 2.40625 -3.4375 C 2.40625 -2.039062 2.9375 -1.34375 4 -1.34375 Z M 4 -1.34375 "/></g></g></g><g fill="#ffffff" fill-opacity="1"><g transform="translate(197.796509, 192.525186)"><g><path d="M 1 0 L 1 -6.890625 L 2.65625 -6.890625 L 2.65625 -5.875 L 2.78125 -5.84375 C 3.21875 -6.625 3.914062 -7.015625 4.875 -7.015625 C 5.664062 -7.015625 6.25 -6.796875 6.625 -6.359375 C 7 -5.929688 7.1875 -5.304688 7.1875 -4.484375 L 7.1875 0 L 5.453125 0 L 5.453125 -4.265625 C 5.453125 -4.722656 5.359375 -5.050781 5.171875 -5.25 C 4.992188 -5.457031 4.703125 -5.5625 4.296875 -5.5625 C 3.804688 -5.5625 3.421875 -5.398438 3.140625 -5.078125 C 2.859375 -4.753906 2.71875 -4.25 2.71875 -3.5625 L 2.71875 0 Z M 1 0 "/></g></g></g><g fill="#ffffff" fill-opacity="1"><g transform="translate(205.869902, 192.525186)"><g><path d="M 3.21875 0.125 C 2.75 0.125 2.316406 0.0703125 1.921875 -0.03125 C 1.535156 -0.144531 1.203125 -0.296875 0.921875 -0.484375 C 0.648438 -0.679688 0.445312 -0.90625 0.3125 -1.15625 L 1.28125 -2.1875 L 1.40625 -2.1875 C 1.632812 -1.882812 1.90625 -1.65625 2.21875 -1.5 C 2.53125 -1.34375 2.867188 -1.265625 3.234375 -1.265625 C 3.578125 -1.265625 3.832031 -1.320312 4 -1.4375 C 4.164062 -1.5625 4.25 -1.738281 4.25 -1.96875 C 4.25 -2.144531 4.1875 -2.289062 4.0625 -2.40625 C 3.945312 -2.53125 3.75 -2.625 3.46875 -2.6875 L 2.5625 -2.90625 C 1.875 -3.070312 1.375 -3.320312 1.0625 -3.65625 C 0.75 -3.988281 0.59375 -4.414062 0.59375 -4.9375 C 0.59375 -5.363281 0.703125 -5.734375 0.921875 -6.046875 C 1.140625 -6.359375 1.445312 -6.597656 1.84375 -6.765625 C 2.238281 -6.929688 2.703125 -7.015625 3.234375 -7.015625 C 3.859375 -7.015625 4.375 -6.925781 4.78125 -6.75 C 5.1875 -6.570312 5.503906 -6.332031 5.734375 -6.03125 L 4.8125 -5.03125 L 4.6875 -5.03125 C 4.5 -5.25 4.285156 -5.40625 4.046875 -5.5 C 3.804688 -5.601562 3.535156 -5.65625 3.234375 -5.65625 C 2.554688 -5.65625 2.21875 -5.445312 2.21875 -5.03125 C 2.21875 -4.84375 2.28125 -4.691406 2.40625 -4.578125 C 2.53125 -4.472656 2.753906 -4.382812 3.078125 -4.3125 L 3.921875 -4.125 C 4.617188 -3.976562 5.128906 -3.738281 5.453125 -3.40625 C 5.773438 -3.070312 5.9375 -2.625 5.9375 -2.0625 C 5.9375 -1.625 5.828125 -1.238281 5.609375 -0.90625 C 5.398438 -0.570312 5.085938 -0.316406 4.671875 -0.140625 C 4.265625 0.0351562 3.78125 0.125 3.21875 0.125 Z M 3.21875 0.125 "/></g></g></g><g fill="#ffffff" fill-opacity="1"><g transform="translate(212.22489, 192.525186)"><g><path d="M 1.859375 -7.71875 C 1.546875 -7.71875 1.289062 -7.8125 1.09375 -8 C 0.894531 -8.1875 0.796875 -8.429688 0.796875 -8.734375 C 0.796875 -9.023438 0.894531 -9.265625 1.09375 -9.453125 C 1.289062 -9.648438 1.546875 -9.75 1.859375 -9.75 C 2.066406 -9.75 2.25 -9.703125 2.40625 -9.609375 C 2.570312 -9.523438 2.695312 -9.40625 2.78125 -9.25 C 2.875 -9.101562 2.921875 -8.929688 2.921875 -8.734375 C 2.921875 -8.535156 2.875 -8.359375 2.78125 -8.203125 C 2.695312 -8.054688 2.570312 -7.9375 2.40625 -7.84375 C 2.25 -7.757812 2.066406 -7.71875 1.859375 -7.71875 Z M 1 0 L 1 -6.890625 L 2.71875 -6.890625 L 2.71875 0 Z M 1 0 "/></g></g></g><g fill="#ffffff" fill-opacity="1"><g transform="translate(215.936658, 192.525186)"><g><path d="M 3.40625 0.125 C 2.863281 0.125 2.378906 -0.00390625 1.953125 -0.265625 C 1.535156 -0.523438 1.207031 -0.921875 0.96875 -1.453125 C 0.738281 -1.992188 0.625 -2.65625 0.625 -3.4375 C 0.625 -4.226562 0.742188 -4.890625 0.984375 -5.421875 C 1.222656 -5.960938 1.554688 -6.363281 1.984375 -6.625 C 2.421875 -6.882812 2.925781 -7.015625 3.5 -7.015625 C 3.925781 -7.015625 4.296875 -6.941406 4.609375 -6.796875 C 4.921875 -6.648438 5.1875 -6.421875 5.40625 -6.109375 L 5.53125 -6.140625 L 5.53125 -9.65625 L 7.265625 -9.65625 L 7.265625 0 L 5.53125 0 L 5.53125 -0.890625 L 5.40625 -0.921875 C 5.21875 -0.597656 4.957031 -0.34375 4.625 -0.15625 C 4.289062 0.03125 3.882812 0.125 3.40625 0.125 Z M 3.96875 -1.34375 C 4.457031 -1.34375 4.84375 -1.515625 5.125 -1.859375 C 5.40625 -2.203125 5.546875 -2.726562 5.546875 -3.4375 C 5.546875 -4.144531 5.40625 -4.675781 5.125 -5.03125 C 4.84375 -5.382812 4.457031 -5.5625 3.96875 -5.5625 C 3.457031 -5.5625 3.066406 -5.390625 2.796875 -5.046875 C 2.535156 -4.703125 2.40625 -4.164062 2.40625 -3.4375 C 2.40625 -2.71875 2.535156 -2.1875 2.796875 -1.84375 C 3.066406 -1.507812 3.457031 -1.34375 3.96875 -1.34375 Z M 3.96875 -1.34375 "/></g></g></g><g fill="#ffffff" fill-opacity="1"><g transform="translate(224.197507, 192.525186)"><g><path d="M 6.8125 -3.0625 L 2.375 -3.0625 C 2.425781 -2.457031 2.597656 -2.019531 2.890625 -1.75 C 3.179688 -1.476562 3.582031 -1.34375 4.09375 -1.34375 C 4.488281 -1.34375 4.804688 -1.414062 5.046875 -1.5625 C 5.296875 -1.707031 5.492188 -1.929688 5.640625 -2.234375 L 5.78125 -2.234375 L 6.921875 -1.5 C 6.691406 -1.007812 6.347656 -0.613281 5.890625 -0.3125 C 5.441406 -0.0195312 4.84375 0.125 4.09375 0.125 C 3.375 0.125 2.753906 -0.0078125 2.234375 -0.28125 C 1.722656 -0.550781 1.328125 -0.953125 1.046875 -1.484375 C 0.765625 -2.015625 0.625 -2.664062 0.625 -3.4375 C 0.625 -4.226562 0.769531 -4.890625 1.0625 -5.421875 C 1.351562 -5.960938 1.75 -6.363281 2.25 -6.625 C 2.757812 -6.882812 3.332031 -7.015625 3.96875 -7.015625 C 4.9375 -7.015625 5.679688 -6.753906 6.203125 -6.234375 C 6.722656 -5.722656 6.984375 -4.96875 6.984375 -3.96875 C 6.984375 -3.613281 6.96875 -3.332031 6.9375 -3.125 Z M 5.328125 -4.171875 C 5.304688 -4.703125 5.179688 -5.085938 4.953125 -5.328125 C 4.734375 -5.566406 4.40625 -5.6875 3.96875 -5.6875 C 3.09375 -5.6875 2.578125 -5.179688 2.421875 -4.171875 Z M 5.328125 -4.171875 "/></g></g></g><g fill="#ffffff" fill-opacity="1"><g transform="translate(231.689769, 192.525186)"><g><path d="M 1 0 L 1 -6.890625 L 2.671875 -6.890625 L 2.671875 -5.875 L 2.8125 -5.84375 C 2.976562 -6.226562 3.195312 -6.507812 3.46875 -6.6875 C 3.738281 -6.863281 4.066406 -6.953125 4.453125 -6.953125 C 4.835938 -6.953125 5.132812 -6.882812 5.34375 -6.75 L 5.046875 -5.265625 L 4.921875 -5.234375 C 4.804688 -5.285156 4.695312 -5.320312 4.59375 -5.34375 C 4.488281 -5.363281 4.363281 -5.375 4.21875 -5.375 C 3.726562 -5.375 3.351562 -5.203125 3.09375 -4.859375 C 2.84375 -4.515625 2.71875 -3.96875 2.71875 -3.21875 L 2.71875 0 Z M 1 0 "/></g></g></g><g fill="#ffffff" fill-opacity="1"><g transform="translate(237.09494, 192.525186)"><g><path d="M 1.859375 -7.71875 C 1.546875 -7.71875 1.289062 -7.8125 1.09375 -8 C 0.894531 -8.1875 0.796875 -8.429688 0.796875 -8.734375 C 0.796875 -9.023438 0.894531 -9.265625 1.09375 -9.453125 C 1.289062 -9.648438 1.546875 -9.75 1.859375 -9.75 C 2.066406 -9.75 2.25 -9.703125 2.40625 -9.609375 C 2.570312 -9.523438 2.695312 -9.40625 2.78125 -9.25 C 2.875 -9.101562 2.921875 -8.929688 2.921875 -8.734375 C 2.921875 -8.535156 2.875 -8.359375 2.78125 -8.203125 C 2.695312 -8.054688 2.570312 -7.9375 2.40625 -7.84375 C 2.25 -7.757812 2.066406 -7.71875 1.859375 -7.71875 Z M 1 0 L 1 -6.890625 L 2.71875 -6.890625 L 2.71875 0 Z M 1 0 "/></g></g></g><g fill="#ffffff" fill-opacity="1"><g transform="translate(240.806694, 192.525186)"><g><path d="M 1 0 L 1 -6.890625 L 2.65625 -6.890625 L 2.65625 -5.875 L 2.78125 -5.84375 C 3.21875 -6.625 3.914062 -7.015625 4.875 -7.015625 C 5.664062 -7.015625 6.25 -6.796875 6.625 -6.359375 C 7 -5.929688 7.1875 -5.304688 7.1875 -4.484375 L 7.1875 0 L 5.453125 0 L 5.453125 -4.265625 C 5.453125 -4.722656 5.359375 -5.050781 5.171875 -5.25 C 4.992188 -5.457031 4.703125 -5.5625 4.296875 -5.5625 C 3.804688 -5.5625 3.421875 -5.398438 3.140625 -5.078125 C 2.859375 -4.753906 2.71875 -4.25 2.71875 -3.5625 L 2.71875 0 Z M 1 0 "/></g></g></g><g fill="#ffffff" fill-opacity="1"><g transform="translate(248.880087, 192.525186)"><g><path d="M 3.578125 2.921875 C 2.441406 2.921875 1.601562 2.753906 1.0625 2.421875 C 0.519531 2.085938 0.25 1.625 0.25 1.03125 C 0.25 0.664062 0.363281 0.367188 0.59375 0.140625 C 0.820312 -0.0859375 1.15625 -0.242188 1.59375 -0.328125 L 1.59375 -0.453125 C 1.351562 -0.597656 1.179688 -0.753906 1.078125 -0.921875 C 0.984375 -1.097656 0.9375 -1.300781 0.9375 -1.53125 C 0.9375 -2.082031 1.296875 -2.457031 2.015625 -2.65625 L 2.015625 -2.78125 C 1.640625 -2.988281 1.359375 -3.25 1.171875 -3.5625 C 0.984375 -3.882812 0.890625 -4.269531 0.890625 -4.71875 C 0.890625 -5.175781 0.992188 -5.578125 1.203125 -5.921875 C 1.421875 -6.265625 1.734375 -6.53125 2.140625 -6.71875 C 2.546875 -6.914062 3.03125 -7.015625 3.59375 -7.015625 C 4.164062 -7.015625 4.625 -6.914062 4.96875 -6.71875 C 5.175781 -7.03125 5.300781 -7.390625 5.34375 -7.796875 L 5.46875 -7.875 L 6.703125 -7.5625 C 6.671875 -7.238281 6.578125 -6.960938 6.421875 -6.734375 C 6.265625 -6.515625 6.023438 -6.316406 5.703125 -6.140625 L 5.703125 -6 C 6.085938 -5.664062 6.28125 -5.191406 6.28125 -4.578125 C 6.28125 -4.148438 6.175781 -3.765625 5.96875 -3.421875 C 5.757812 -3.085938 5.453125 -2.820312 5.046875 -2.625 C 4.640625 -2.4375 4.15625 -2.34375 3.59375 -2.34375 L 3.328125 -2.34375 C 3.160156 -2.351562 3.046875 -2.359375 2.984375 -2.359375 C 2.828125 -2.359375 2.703125 -2.3125 2.609375 -2.21875 C 2.515625 -2.132812 2.46875 -2.03125 2.46875 -1.90625 C 2.46875 -1.757812 2.523438 -1.644531 2.640625 -1.5625 C 2.765625 -1.476562 2.9375 -1.429688 3.15625 -1.421875 L 4.703125 -1.375 C 6.222656 -1.320312 6.984375 -0.664062 6.984375 0.59375 C 6.984375 1.039062 6.867188 1.4375 6.640625 1.78125 C 6.421875 2.132812 6.054688 2.410156 5.546875 2.609375 C 5.035156 2.816406 4.378906 2.921875 3.578125 2.921875 Z M 3.59375 -3.546875 C 3.925781 -3.546875 4.1875 -3.644531 4.375 -3.84375 C 4.5625 -4.039062 4.65625 -4.320312 4.65625 -4.6875 C 4.65625 -5.039062 4.5625 -5.316406 4.375 -5.515625 C 4.1875 -5.710938 3.925781 -5.8125 3.59375 -5.8125 C 3.257812 -5.8125 3 -5.710938 2.8125 -5.515625 C 2.625 -5.316406 2.53125 -5.039062 2.53125 -4.6875 C 2.53125 -4.3125 2.625 -4.023438 2.8125 -3.828125 C 3 -3.640625 3.257812 -3.546875 3.59375 -3.546875 Z M 3.578125 1.671875 C 4.171875 1.671875 4.597656 1.585938 4.859375 1.421875 C 5.128906 1.253906 5.265625 1.035156 5.265625 0.765625 C 5.265625 0.546875 5.195312 0.382812 5.0625 0.28125 C 4.925781 0.1875 4.707031 0.132812 4.40625 0.125 L 3.046875 0.0625 C 2.992188 0.0625 2.945312 0.0546875 2.90625 0.046875 C 2.875 0.046875 2.835938 0.046875 2.796875 0.046875 C 2.503906 0.046875 2.28125 0.109375 2.125 0.234375 C 1.976562 0.359375 1.90625 0.53125 1.90625 0.75 C 1.90625 1.039062 2.046875 1.265625 2.328125 1.421875 C 2.609375 1.585938 3.023438 1.671875 3.578125 1.671875 Z M 3.578125 1.671875 "/></g></g></g><g fill="#ffffff" fill-opacity="1"><g transform="translate(96.684265, 210.415711)"><g><path d="M 6.8125 -3.0625 L 2.375 -3.0625 C 2.425781 -2.457031 2.597656 -2.019531 2.890625 -1.75 C 3.179688 -1.476562 3.582031 -1.34375 4.09375 -1.34375 C 4.488281 -1.34375 4.804688 -1.414062 5.046875 -1.5625 C 5.296875 -1.707031 5.492188 -1.929688 5.640625 -2.234375 L 5.78125 -2.234375 L 6.921875 -1.5 C 6.691406 -1.007812 6.347656 -0.613281 5.890625 -0.3125 C 5.441406 -0.0195312 4.84375 0.125 4.09375 0.125 C 3.375 0.125 2.753906 -0.0078125 2.234375 -0.28125 C 1.722656 -0.550781 1.328125 -0.953125 1.046875 -1.484375 C 0.765625 -2.015625 0.625 -2.664062 0.625 -3.4375 C 0.625 -4.226562 0.769531 -4.890625 1.0625 -5.421875 C 1.351562 -5.960938 1.75 -6.363281 2.25 -6.625 C 2.757812 -6.882812 3.332031 -7.015625 3.96875 -7.015625 C 4.9375 -7.015625 5.679688 -6.753906 6.203125 -6.234375 C 6.722656 -5.722656 6.984375 -4.96875 6.984375 -3.96875 C 6.984375 -3.613281 6.96875 -3.332031 6.9375 -3.125 Z M 5.328125 -4.171875 C 5.304688 -4.703125 5.179688 -5.085938 4.953125 -5.328125 C 4.734375 -5.566406 4.40625 -5.6875 3.96875 -5.6875 C 3.09375 -5.6875 2.578125 -5.179688 2.421875 -4.171875 Z M 5.328125 -4.171875 "/></g></g></g><g fill="#ffffff" fill-opacity="1"><g transform="translate(104.176527, 210.415711)"><g><path d="M 1 0 L 1 -6.890625 L 2.65625 -6.890625 L 2.65625 -5.875 L 2.78125 -5.84375 C 3.21875 -6.625 3.914062 -7.015625 4.875 -7.015625 C 5.664062 -7.015625 6.25 -6.796875 6.625 -6.359375 C 7 -5.929688 7.1875 -5.304688 7.1875 -4.484375 L 7.1875 0 L 5.453125 0 L 5.453125 -4.265625 C 5.453125 -4.722656 5.359375 -5.050781 5.171875 -5.25 C 4.992188 -5.457031 4.703125 -5.5625 4.296875 -5.5625 C 3.804688 -5.5625 3.421875 -5.398438 3.140625 -5.078125 C 2.859375 -4.753906 2.71875 -4.25 2.71875 -3.5625 L 2.71875 0 Z M 1 0 "/></g></g></g><g fill="#ffffff" fill-opacity="1"><g transform="translate(112.24992, 210.415711)"><g><path d="M 4.75 0 L 2.6875 0 L 0.125 -6.890625 L 1.9375 -6.890625 L 3.65625 -1.984375 L 3.796875 -1.984375 L 5.515625 -6.890625 L 7.28125 -6.890625 Z M 4.75 0 "/></g></g></g><g fill="#ffffff" fill-opacity="1"><g transform="translate(119.660944, 210.415711)"><g><path d="M 1.859375 -7.71875 C 1.546875 -7.71875 1.289062 -7.8125 1.09375 -8 C 0.894531 -8.1875 0.796875 -8.429688 0.796875 -8.734375 C 0.796875 -9.023438 0.894531 -9.265625 1.09375 -9.453125 C 1.289062 -9.648438 1.546875 -9.75 1.859375 -9.75 C 2.066406 -9.75 2.25 -9.703125 2.40625 -9.609375 C 2.570312 -9.523438 2.695312 -9.40625 2.78125 -9.25 C 2.875 -9.101562 2.921875 -8.929688 2.921875 -8.734375 C 2.921875 -8.535156 2.875 -8.359375 2.78125 -8.203125 C 2.695312 -8.054688 2.570312 -7.9375 2.40625 -7.84375 C 2.25 -7.757812 2.066406 -7.71875 1.859375 -7.71875 Z M 1 0 L 1 -6.890625 L 2.71875 -6.890625 L 2.71875 0 Z M 1 0 "/></g></g></g><g fill="#ffffff" fill-opacity="1"><g transform="translate(123.372706, 210.415711)"><g><path d="M 1 0 L 1 -6.890625 L 2.671875 -6.890625 L 2.671875 -5.875 L 2.8125 -5.84375 C 2.976562 -6.226562 3.195312 -6.507812 3.46875 -6.6875 C 3.738281 -6.863281 4.066406 -6.953125 4.453125 -6.953125 C 4.835938 -6.953125 5.132812 -6.882812 5.34375 -6.75 L 5.046875 -5.265625 L 4.921875 -5.234375 C 4.804688 -5.285156 4.695312 -5.320312 4.59375 -5.34375 C 4.488281 -5.363281 4.363281 -5.375 4.21875 -5.375 C 3.726562 -5.375 3.351562 -5.203125 3.09375 -4.859375 C 2.84375 -4.515625 2.71875 -3.96875 2.71875 -3.21875 L 2.71875 0 Z M 1 0 "/></g></g></g><g fill="#ffffff" fill-opacity="1"><g transform="translate(128.777883, 210.415711)"><g><path d="M 4 0.125 C 3.332031 0.125 2.742188 -0.0078125 2.234375 -0.28125 C 1.722656 -0.5625 1.328125 -0.96875 1.046875 -1.5 C 0.765625 -2.039062 0.625 -2.6875 0.625 -3.4375 C 0.625 -4.195312 0.765625 -4.84375 1.046875 -5.375 C 1.328125 -5.914062 1.722656 -6.320312 2.234375 -6.59375 C 2.742188 -6.875 3.332031 -7.015625 4 -7.015625 C 4.675781 -7.015625 5.269531 -6.875 5.78125 -6.59375 C 6.289062 -6.320312 6.6875 -5.914062 6.96875 -5.375 C 7.25 -4.84375 7.390625 -4.195312 7.390625 -3.4375 C 7.390625 -2.6875 7.25 -2.039062 6.96875 -1.5 C 6.6875 -0.96875 6.289062 -0.5625 5.78125 -0.28125 C 5.269531 -0.0078125 4.675781 0.125 4 0.125 Z M 4 -1.34375 C 5.070312 -1.34375 5.609375 -2.039062 5.609375 -3.4375 C 5.609375 -4.164062 5.46875 -4.703125 5.1875 -5.046875 C 4.914062 -5.390625 4.519531 -5.5625 4 -5.5625 C 2.9375 -5.5625 2.40625 -4.851562 2.40625 -3.4375 C 2.40625 -2.039062 2.9375 -1.34375 4 -1.34375 Z M 4 -1.34375 "/></g></g></g><g fill="#ffffff" fill-opacity="1"><g transform="translate(136.788788, 210.415711)"><g><path d="M 1 0 L 1 -6.890625 L 2.65625 -6.890625 L 2.65625 -5.875 L 2.78125 -5.84375 C 3.21875 -6.625 3.914062 -7.015625 4.875 -7.015625 C 5.664062 -7.015625 6.25 -6.796875 6.625 -6.359375 C 7 -5.929688 7.1875 -5.304688 7.1875 -4.484375 L 7.1875 0 L 5.453125 0 L 5.453125 -4.265625 C 5.453125 -4.722656 5.359375 -5.050781 5.171875 -5.25 C 4.992188 -5.457031 4.703125 -5.5625 4.296875 -5.5625 C 3.804688 -5.5625 3.421875 -5.398438 3.140625 -5.078125 C 2.859375 -4.753906 2.71875 -4.25 2.71875 -3.5625 L 2.71875 0 Z M 1 0 "/></g></g></g><g fill="#ffffff" fill-opacity="1"><g transform="translate(144.862181, 210.415711)"><g><path d="M 1 0 L 1 -6.890625 L 2.65625 -6.890625 L 2.65625 -5.96875 L 2.78125 -5.9375 C 3.007812 -6.3125 3.273438 -6.582031 3.578125 -6.75 C 3.878906 -6.925781 4.265625 -7.015625 4.734375 -7.015625 C 5.253906 -7.015625 5.671875 -6.910156 5.984375 -6.703125 C 6.304688 -6.503906 6.539062 -6.207031 6.6875 -5.8125 L 6.8125 -5.8125 C 7.03125 -6.21875 7.304688 -6.519531 7.640625 -6.71875 C 7.972656 -6.914062 8.390625 -7.015625 8.890625 -7.015625 C 10.316406 -7.015625 11.03125 -6.222656 11.03125 -4.640625 L 11.03125 0 L 9.296875 0 L 9.296875 -4.421875 C 9.296875 -4.828125 9.21875 -5.117188 9.0625 -5.296875 C 8.90625 -5.472656 8.648438 -5.5625 8.296875 -5.5625 C 7.347656 -5.5625 6.875 -4.925781 6.875 -3.65625 L 6.875 0 L 5.15625 0 L 5.15625 -4.421875 C 5.15625 -4.828125 5.070312 -5.117188 4.90625 -5.296875 C 4.75 -5.472656 4.492188 -5.5625 4.140625 -5.5625 C 3.691406 -5.5625 3.34375 -5.410156 3.09375 -5.109375 C 2.84375 -4.816406 2.71875 -4.34375 2.71875 -3.6875 L 2.71875 0 Z M 1 0 "/></g></g></g><g fill="#ffffff" fill-opacity="1"><g transform="translate(156.784808, 210.415711)"><g><path d="M 6.8125 -3.0625 L 2.375 -3.0625 C 2.425781 -2.457031 2.597656 -2.019531 2.890625 -1.75 C 3.179688 -1.476562 3.582031 -1.34375 4.09375 -1.34375 C 4.488281 -1.34375 4.804688 -1.414062 5.046875 -1.5625 C 5.296875 -1.707031 5.492188 -1.929688 5.640625 -2.234375 L 5.78125 -2.234375 L 6.921875 -1.5 C 6.691406 -1.007812 6.347656 -0.613281 5.890625 -0.3125 C 5.441406 -0.0195312 4.84375 0.125 4.09375 0.125 C 3.375 0.125 2.753906 -0.0078125 2.234375 -0.28125 C 1.722656 -0.550781 1.328125 -0.953125 1.046875 -1.484375 C 0.765625 -2.015625 0.625 -2.664062 0.625 -3.4375 C 0.625 -4.226562 0.769531 -4.890625 1.0625 -5.421875 C 1.351562 -5.960938 1.75 -6.363281 2.25 -6.625 C 2.757812 -6.882812 3.332031 -7.015625 3.96875 -7.015625 C 4.9375 -7.015625 5.679688 -6.753906 6.203125 -6.234375 C 6.722656 -5.722656 6.984375 -4.96875 6.984375 -3.96875 C 6.984375 -3.613281 6.96875 -3.332031 6.9375 -3.125 Z M 5.328125 -4.171875 C 5.304688 -4.703125 5.179688 -5.085938 4.953125 -5.328125 C 4.734375 -5.566406 4.40625 -5.6875 3.96875 -5.6875 C 3.09375 -5.6875 2.578125 -5.179688 2.421875 -4.171875 Z M 5.328125 -4.171875 "/></g></g></g><g fill="#ffffff" fill-opacity="1"><g transform="translate(164.27707, 210.415711)"><g><path d="M 1 0 L 1 -6.890625 L 2.65625 -6.890625 L 2.65625 -5.875 L 2.78125 -5.84375 C 3.21875 -6.625 3.914062 -7.015625 4.875 -7.015625 C 5.664062 -7.015625 6.25 -6.796875 6.625 -6.359375 C 7 -5.929688 7.1875 -5.304688 7.1875 -4.484375 L 7.1875 0 L 5.453125 0 L 5.453125 -4.265625 C 5.453125 -4.722656 5.359375 -5.050781 5.171875 -5.25 C 4.992188 -5.457031 4.703125 -5.5625 4.296875 -5.5625 C 3.804688 -5.5625 3.421875 -5.398438 3.140625 -5.078125 C 2.859375 -4.753906 2.71875 -4.25 2.71875 -3.5625 L 2.71875 0 Z M 1 0 "/></g></g></g><g fill="#ffffff" fill-opacity="1"><g transform="translate(172.350463, 210.415711)"><g><path d="M 4.75 -1.640625 L 5.203125 -0.359375 C 5.015625 -0.203125 4.78125 -0.0820312 4.5 0 C 4.21875 0.0820312 3.894531 0.125 3.53125 0.125 C 2.789062 0.125 2.222656 -0.078125 1.828125 -0.484375 C 1.441406 -0.890625 1.25 -1.476562 1.25 -2.25 L 1.25 -5.53125 L 0.203125 -5.53125 L 0.203125 -6.890625 L 1.25 -6.890625 L 1.25 -8.234375 L 2.984375 -8.515625 L 2.984375 -6.890625 L 4.9375 -6.890625 L 4.9375 -5.53125 L 2.984375 -5.53125 L 2.984375 -2.375 C 2.984375 -2.03125 3.050781 -1.78125 3.1875 -1.625 C 3.332031 -1.46875 3.539062 -1.390625 3.8125 -1.390625 C 4.125 -1.390625 4.394531 -1.472656 4.625 -1.640625 Z M 4.75 -1.640625 "/></g></g></g><g fill="#ffffff" fill-opacity="1"><g transform="translate(177.70565, 210.415711)"><g><path d="M 2.6875 0.125 C 2.25 0.125 1.863281 0.046875 1.53125 -0.109375 C 1.207031 -0.273438 0.957031 -0.515625 0.78125 -0.828125 C 0.613281 -1.140625 0.53125 -1.519531 0.53125 -1.96875 C 0.53125 -2.375 0.613281 -2.710938 0.78125 -2.984375 C 0.957031 -3.265625 1.226562 -3.492188 1.59375 -3.671875 C 1.96875 -3.847656 2.445312 -3.984375 3.03125 -4.078125 C 3.445312 -4.148438 3.757812 -4.222656 3.96875 -4.296875 C 4.1875 -4.378906 4.332031 -4.46875 4.40625 -4.5625 C 4.488281 -4.664062 4.53125 -4.796875 4.53125 -4.953125 C 4.53125 -5.171875 4.453125 -5.335938 4.296875 -5.453125 C 4.140625 -5.566406 3.882812 -5.625 3.53125 -5.625 C 3.144531 -5.625 2.773438 -5.539062 2.421875 -5.375 C 2.078125 -5.207031 1.78125 -4.984375 1.53125 -4.703125 L 1.40625 -4.703125 L 0.6875 -5.796875 C 1.03125 -6.179688 1.453125 -6.476562 1.953125 -6.6875 C 2.460938 -6.90625 3.015625 -7.015625 3.609375 -7.015625 C 4.523438 -7.015625 5.1875 -6.820312 5.59375 -6.4375 C 6 -6.050781 6.203125 -5.503906 6.203125 -4.796875 L 6.203125 -1.796875 C 6.203125 -1.492188 6.335938 -1.34375 6.609375 -1.34375 C 6.710938 -1.34375 6.816406 -1.359375 6.921875 -1.390625 L 7 -1.375 L 7.125 -0.15625 C 7.03125 -0.09375 6.894531 -0.0390625 6.71875 0 C 6.550781 0.03125 6.367188 0.046875 6.171875 0.046875 C 5.753906 0.046875 5.429688 -0.03125 5.203125 -0.1875 C 4.972656 -0.34375 4.804688 -0.59375 4.703125 -0.9375 L 4.578125 -0.9375 C 4.234375 -0.226562 3.601562 0.125 2.6875 0.125 Z M 3.234375 -1.15625 C 3.640625 -1.15625 3.960938 -1.289062 4.203125 -1.5625 C 4.441406 -1.832031 4.5625 -2.207031 4.5625 -2.6875 L 4.5625 -3.390625 L 4.4375 -3.40625 C 4.332031 -3.320312 4.195312 -3.253906 4.03125 -3.203125 C 3.863281 -3.148438 3.617188 -3.09375 3.296875 -3.03125 C 2.921875 -2.96875 2.648438 -2.859375 2.484375 -2.703125 C 2.328125 -2.554688 2.25 -2.34375 2.25 -2.0625 C 2.25 -1.769531 2.332031 -1.546875 2.5 -1.390625 C 2.675781 -1.234375 2.921875 -1.15625 3.234375 -1.15625 Z M 3.234375 -1.15625 "/></g></g></g><g fill="#ffffff" fill-opacity="1"><g transform="translate(184.972957, 210.415711)"><g><path d="M 2.859375 0.125 C 2.242188 0.125 1.769531 -0.0390625 1.4375 -0.375 C 1.113281 -0.707031 0.953125 -1.21875 0.953125 -1.90625 L 0.953125 -9.65625 L 2.6875 -9.65625 L 2.6875 -1.96875 C 2.6875 -1.550781 2.859375 -1.34375 3.203125 -1.34375 C 3.304688 -1.34375 3.414062 -1.359375 3.53125 -1.390625 L 3.609375 -1.359375 L 3.765625 -0.03125 C 3.671875 0.0195312 3.546875 0.0546875 3.390625 0.078125 C 3.234375 0.109375 3.054688 0.125 2.859375 0.125 Z M 2.859375 0.125 "/></g></g></g><g fill="#ffffff" fill-opacity="1"><g transform="translate(188.934668, 210.415711)"><g/></g></g><g fill="#ffffff" fill-opacity="1"><g transform="translate(191.952821, 210.415711)"><g><path d="M 1.859375 -7.71875 C 1.546875 -7.71875 1.289062 -7.8125 1.09375 -8 C 0.894531 -8.1875 0.796875 -8.429688 0.796875 -8.734375 C 0.796875 -9.023438 0.894531 -9.265625 1.09375 -9.453125 C 1.289062 -9.648438 1.546875 -9.75 1.859375 -9.75 C 2.066406 -9.75 2.25 -9.703125 2.40625 -9.609375 C 2.570312 -9.523438 2.695312 -9.40625 2.78125 -9.25 C 2.875 -9.101562 2.921875 -8.929688 2.921875 -8.734375 C 2.921875 -8.535156 2.875 -8.359375 2.78125 -8.203125 C 2.695312 -8.054688 2.570312 -7.9375 2.40625 -7.84375 C 2.25 -7.757812 2.066406 -7.71875 1.859375 -7.71875 Z M 1 0 L 1 -6.890625 L 2.71875 -6.890625 L 2.71875 0 Z M 1 0 "/></g></g></g><g fill="#ffffff" fill-opacity="1"><g transform="translate(195.664582, 210.415711)"><g><path d="M 1 0 L 1 -6.890625 L 2.65625 -6.890625 L 2.65625 -5.96875 L 2.78125 -5.9375 C 3.007812 -6.3125 3.273438 -6.582031 3.578125 -6.75 C 3.878906 -6.925781 4.265625 -7.015625 4.734375 -7.015625 C 5.253906 -7.015625 5.671875 -6.910156 5.984375 -6.703125 C 6.304688 -6.503906 6.539062 -6.207031 6.6875 -5.8125 L 6.8125 -5.8125 C 7.03125 -6.21875 7.304688 -6.519531 7.640625 -6.71875 C 7.972656 -6.914062 8.390625 -7.015625 8.890625 -7.015625 C 10.316406 -7.015625 11.03125 -6.222656 11.03125 -4.640625 L 11.03125 0 L 9.296875 0 L 9.296875 -4.421875 C 9.296875 -4.828125 9.21875 -5.117188 9.0625 -5.296875 C 8.90625 -5.472656 8.648438 -5.5625 8.296875 -5.5625 C 7.347656 -5.5625 6.875 -4.925781 6.875 -3.65625 L 6.875 0 L 5.15625 0 L 5.15625 -4.421875 C 5.15625 -4.828125 5.070312 -5.117188 4.90625 -5.296875 C 4.75 -5.472656 4.492188 -5.5625 4.140625 -5.5625 C 3.691406 -5.5625 3.34375 -5.410156 3.09375 -5.109375 C 2.84375 -4.816406 2.71875 -4.34375 2.71875 -3.6875 L 2.71875 0 Z M 1 0 "/></g></g></g><g fill="#ffffff" fill-opacity="1"><g transform="translate(207.587209, 210.415711)"><g><path d="M 1 2.796875 L 1 -6.890625 L 2.71875 -6.890625 L 2.71875 -6 L 2.859375 -5.96875 C 3.054688 -6.3125 3.328125 -6.570312 3.671875 -6.75 C 4.015625 -6.925781 4.414062 -7.015625 4.875 -7.015625 C 5.425781 -7.015625 5.910156 -6.882812 6.328125 -6.625 C 6.742188 -6.363281 7.066406 -5.960938 7.296875 -5.421875 C 7.523438 -4.890625 7.640625 -4.226562 7.640625 -3.4375 C 7.640625 -2.65625 7.515625 -1.992188 7.265625 -1.453125 C 7.023438 -0.921875 6.6875 -0.523438 6.25 -0.265625 C 5.820312 -0.00390625 5.328125 0.125 4.765625 0.125 C 4.335938 0.125 3.96875 0.0546875 3.65625 -0.078125 C 3.34375 -0.222656 3.078125 -0.445312 2.859375 -0.75 L 2.71875 -0.734375 L 2.71875 2.796875 Z M 4.28125 -1.34375 C 4.800781 -1.34375 5.191406 -1.507812 5.453125 -1.84375 C 5.722656 -2.175781 5.859375 -2.707031 5.859375 -3.4375 C 5.859375 -4.164062 5.722656 -4.703125 5.453125 -5.046875 C 5.191406 -5.390625 4.800781 -5.5625 4.28125 -5.5625 C 3.800781 -5.5625 3.414062 -5.382812 3.125 -5.03125 C 2.84375 -4.675781 2.703125 -4.144531 2.703125 -3.4375 C 2.703125 -2.738281 2.84375 -2.210938 3.125 -1.859375 C 3.414062 -1.515625 3.800781 -1.34375 4.28125 -1.34375 Z M 4.28125 -1.34375 "/></g></g></g><g fill="#ffffff" fill-opacity="1"><g transform="translate(215.841819, 210.415711)"><g><path d="M 2.6875 0.125 C 2.25 0.125 1.863281 0.046875 1.53125 -0.109375 C 1.207031 -0.273438 0.957031 -0.515625 0.78125 -0.828125 C 0.613281 -1.140625 0.53125 -1.519531 0.53125 -1.96875 C 0.53125 -2.375 0.613281 -2.710938 0.78125 -2.984375 C 0.957031 -3.265625 1.226562 -3.492188 1.59375 -3.671875 C 1.96875 -3.847656 2.445312 -3.984375 3.03125 -4.078125 C 3.445312 -4.148438 3.757812 -4.222656 3.96875 -4.296875 C 4.1875 -4.378906 4.332031 -4.46875 4.40625 -4.5625 C 4.488281 -4.664062 4.53125 -4.796875 4.53125 -4.953125 C 4.53125 -5.171875 4.453125 -5.335938 4.296875 -5.453125 C 4.140625 -5.566406 3.882812 -5.625 3.53125 -5.625 C 3.144531 -5.625 2.773438 -5.539062 2.421875 -5.375 C 2.078125 -5.207031 1.78125 -4.984375 1.53125 -4.703125 L 1.40625 -4.703125 L 0.6875 -5.796875 C 1.03125 -6.179688 1.453125 -6.476562 1.953125 -6.6875 C 2.460938 -6.90625 3.015625 -7.015625 3.609375 -7.015625 C 4.523438 -7.015625 5.1875 -6.820312 5.59375 -6.4375 C 6 -6.050781 6.203125 -5.503906 6.203125 -4.796875 L 6.203125 -1.796875 C 6.203125 -1.492188 6.335938 -1.34375 6.609375 -1.34375 C 6.710938 -1.34375 6.816406 -1.359375 6.921875 -1.390625 L 7 -1.375 L 7.125 -0.15625 C 7.03125 -0.09375 6.894531 -0.0390625 6.71875 0 C 6.550781 0.03125 6.367188 0.046875 6.171875 0.046875 C 5.753906 0.046875 5.429688 -0.03125 5.203125 -0.1875 C 4.972656 -0.34375 4.804688 -0.59375 4.703125 -0.9375 L 4.578125 -0.9375 C 4.234375 -0.226562 3.601562 0.125 2.6875 0.125 Z M 3.234375 -1.15625 C 3.640625 -1.15625 3.960938 -1.289062 4.203125 -1.5625 C 4.441406 -1.832031 4.5625 -2.207031 4.5625 -2.6875 L 4.5625 -3.390625 L 4.4375 -3.40625 C 4.332031 -3.320312 4.195312 -3.253906 4.03125 -3.203125 C 3.863281 -3.148438 3.617188 -3.09375 3.296875 -3.03125 C 2.921875 -2.96875 2.648438 -2.859375 2.484375 -2.703125 C 2.328125 -2.554688 2.25 -2.34375 2.25 -2.0625 C 2.25 -1.769531 2.332031 -1.546875 2.5 -1.390625 C 2.675781 -1.234375 2.921875 -1.15625 3.234375 -1.15625 Z M 3.234375 -1.15625 "/></g></g></g><g fill="#ffffff" fill-opacity="1"><g transform="translate(223.109125, 210.415711)"><g><path d="M 4.015625 0.125 C 3.347656 0.125 2.757812 -0.0078125 2.25 -0.28125 C 1.738281 -0.5625 1.335938 -0.96875 1.046875 -1.5 C 0.765625 -2.039062 0.625 -2.6875 0.625 -3.4375 C 0.625 -4.195312 0.765625 -4.84375 1.046875 -5.375 C 1.335938 -5.914062 1.734375 -6.320312 2.234375 -6.59375 C 2.742188 -6.875 3.328125 -7.015625 3.984375 -7.015625 C 5.441406 -7.015625 6.375 -6.488281 6.78125 -5.4375 L 5.59375 -4.59375 L 5.46875 -4.59375 C 5.320312 -4.914062 5.132812 -5.15625 4.90625 -5.3125 C 4.675781 -5.476562 4.367188 -5.5625 3.984375 -5.5625 C 3.484375 -5.5625 3.09375 -5.382812 2.8125 -5.03125 C 2.539062 -4.6875 2.40625 -4.15625 2.40625 -3.4375 C 2.40625 -2.726562 2.546875 -2.203125 2.828125 -1.859375 C 3.109375 -1.515625 3.503906 -1.34375 4.015625 -1.34375 C 4.390625 -1.34375 4.707031 -1.441406 4.96875 -1.640625 C 5.226562 -1.835938 5.414062 -2.128906 5.53125 -2.515625 L 5.65625 -2.53125 L 6.890625 -1.84375 C 6.710938 -1.257812 6.390625 -0.785156 5.921875 -0.421875 C 5.453125 -0.0546875 4.816406 0.125 4.015625 0.125 Z M 4.015625 0.125 "/></g></g></g><g fill="#ffffff" fill-opacity="1"><g transform="translate(230.213971, 210.415711)"><g><path d="M 4.75 -1.640625 L 5.203125 -0.359375 C 5.015625 -0.203125 4.78125 -0.0820312 4.5 0 C 4.21875 0.0820312 3.894531 0.125 3.53125 0.125 C 2.789062 0.125 2.222656 -0.078125 1.828125 -0.484375 C 1.441406 -0.890625 1.25 -1.476562 1.25 -2.25 L 1.25 -5.53125 L 0.203125 -5.53125 L 0.203125 -6.890625 L 1.25 -6.890625 L 1.25 -8.234375 L 2.984375 -8.515625 L 2.984375 -6.890625 L 4.9375 -6.890625 L 4.9375 -5.53125 L 2.984375 -5.53125 L 2.984375 -2.375 C 2.984375 -2.03125 3.050781 -1.78125 3.1875 -1.625 C 3.332031 -1.46875 3.539062 -1.390625 3.8125 -1.390625 C 4.125 -1.390625 4.394531 -1.472656 4.625 -1.640625 Z M 4.75 -1.640625 "/></g></g></g><g fill="#ffffff" fill-opacity="1"><g transform="translate(235.569165, 210.415711)"><g/></g></g><g fill="#ffffff" fill-opacity="1"><g transform="translate(238.587317, 210.415711)"><g><path d="M 2.6875 0.125 C 2.25 0.125 1.863281 0.046875 1.53125 -0.109375 C 1.207031 -0.273438 0.957031 -0.515625 0.78125 -0.828125 C 0.613281 -1.140625 0.53125 -1.519531 0.53125 -1.96875 C 0.53125 -2.375 0.613281 -2.710938 0.78125 -2.984375 C 0.957031 -3.265625 1.226562 -3.492188 1.59375 -3.671875 C 1.96875 -3.847656 2.445312 -3.984375 3.03125 -4.078125 C 3.445312 -4.148438 3.757812 -4.222656 3.96875 -4.296875 C 4.1875 -4.378906 4.332031 -4.46875 4.40625 -4.5625 C 4.488281 -4.664062 4.53125 -4.796875 4.53125 -4.953125 C 4.53125 -5.171875 4.453125 -5.335938 4.296875 -5.453125 C 4.140625 -5.566406 3.882812 -5.625 3.53125 -5.625 C 3.144531 -5.625 2.773438 -5.539062 2.421875 -5.375 C 2.078125 -5.207031 1.78125 -4.984375 1.53125 -4.703125 L 1.40625 -4.703125 L 0.6875 -5.796875 C 1.03125 -6.179688 1.453125 -6.476562 1.953125 -6.6875 C 2.460938 -6.90625 3.015625 -7.015625 3.609375 -7.015625 C 4.523438 -7.015625 5.1875 -6.820312 5.59375 -6.4375 C 6 -6.050781 6.203125 -5.503906 6.203125 -4.796875 L 6.203125 -1.796875 C 6.203125 -1.492188 6.335938 -1.34375 6.609375 -1.34375 C 6.710938 -1.34375 6.816406 -1.359375 6.921875 -1.390625 L 7 -1.375 L 7.125 -0.15625 C 7.03125 -0.09375 6.894531 -0.0390625 6.71875 0 C 6.550781 0.03125 6.367188 0.046875 6.171875 0.046875 C 5.753906 0.046875 5.429688 -0.03125 5.203125 -0.1875 C 4.972656 -0.34375 4.804688 -0.59375 4.703125 -0.9375 L 4.578125 -0.9375 C 4.234375 -0.226562 3.601562 0.125 2.6875 0.125 Z M 3.234375 -1.15625 C 3.640625 -1.15625 3.960938 -1.289062 4.203125 -1.5625 C 4.441406 -1.832031 4.5625 -2.207031 4.5625 -2.6875 L 4.5625 -3.390625 L 4.4375 -3.40625 C 4.332031 -3.320312 4.195312 -3.253906 4.03125 -3.203125 C 3.863281 -3.148438 3.617188 -3.09375 3.296875 -3.03125 C 2.921875 -2.96875 2.648438 -2.859375 2.484375 -2.703125 C 2.328125 -2.554688 2.25 -2.34375 2.25 -2.0625 C 2.25 -1.769531 2.332031 -1.546875 2.5 -1.390625 C 2.675781 -1.234375 2.921875 -1.15625 3.234375 -1.15625 Z M 3.234375 -1.15625 "/></g></g></g><g fill="#ffffff" fill-opacity="1"><g transform="translate(245.854624, 210.415711)"><g><path d="M 1 0 L 1 -6.890625 L 2.65625 -6.890625 L 2.65625 -5.875 L 2.78125 -5.84375 C 3.21875 -6.625 3.914062 -7.015625 4.875 -7.015625 C 5.664062 -7.015625 6.25 -6.796875 6.625 -6.359375 C 7 -5.929688 7.1875 -5.304688 7.1875 -4.484375 L 7.1875 0 L 5.453125 0 L 5.453125 -4.265625 C 5.453125 -4.722656 5.359375 -5.050781 5.171875 -5.25 C 4.992188 -5.457031 4.703125 -5.5625 4.296875 -5.5625 C 3.804688 -5.5625 3.421875 -5.398438 3.140625 -5.078125 C 2.859375 -4.753906 2.71875 -4.25 2.71875 -3.5625 L 2.71875 0 Z M 1 0 "/></g></g></g><g fill="#ffffff" fill-opacity="1"><g transform="translate(253.928017, 210.415711)"><g><path d="M 3.40625 0.125 C 2.863281 0.125 2.378906 -0.00390625 1.953125 -0.265625 C 1.535156 -0.523438 1.207031 -0.921875 0.96875 -1.453125 C 0.738281 -1.992188 0.625 -2.65625 0.625 -3.4375 C 0.625 -4.226562 0.742188 -4.890625 0.984375 -5.421875 C 1.222656 -5.960938 1.554688 -6.363281 1.984375 -6.625 C 2.421875 -6.882812 2.925781 -7.015625 3.5 -7.015625 C 3.925781 -7.015625 4.296875 -6.941406 4.609375 -6.796875 C 4.921875 -6.648438 5.1875 -6.421875 5.40625 -6.109375 L 5.53125 -6.140625 L 5.53125 -9.65625 L 7.265625 -9.65625 L 7.265625 0 L 5.53125 0 L 5.53125 -0.890625 L 5.40625 -0.921875 C 5.21875 -0.597656 4.957031 -0.34375 4.625 -0.15625 C 4.289062 0.03125 3.882812 0.125 3.40625 0.125 Z M 3.96875 -1.34375 C 4.457031 -1.34375 4.84375 -1.515625 5.125 -1.859375 C 5.40625 -2.203125 5.546875 -2.726562 5.546875 -3.4375 C 5.546875 -4.144531 5.40625 -4.675781 5.125 -5.03125 C 4.84375 -5.382812 4.457031 -5.5625 3.96875 -5.5625 C 3.457031 -5.5625 3.066406 -5.390625 2.796875 -5.046875 C 2.535156 -4.703125 2.40625 -4.164062 2.40625 -3.4375 C 2.40625 -2.71875 2.535156 -2.1875 2.796875 -1.84375 C 3.066406 -1.507812 3.457031 -1.34375 3.96875 -1.34375 Z M 3.96875 -1.34375 "/></g></g></g><g fill="#ffffff" fill-opacity="1"><g transform="translate(123.233695, 228.306236)"><g><path d="M 2.859375 0.125 C 2.242188 0.125 1.769531 -0.0390625 1.4375 -0.375 C 1.113281 -0.707031 0.953125 -1.21875 0.953125 -1.90625 L 0.953125 -9.65625 L 2.6875 -9.65625 L 2.6875 -1.96875 C 2.6875 -1.550781 2.859375 -1.34375 3.203125 -1.34375 C 3.304688 -1.34375 3.414062 -1.359375 3.53125 -1.390625 L 3.609375 -1.359375 L 3.765625 -0.03125 C 3.671875 0.0195312 3.546875 0.0546875 3.390625 0.078125 C 3.234375 0.109375 3.054688 0.125 2.859375 0.125 Z M 2.859375 0.125 "/></g></g></g><g fill="#ffffff" fill-opacity="1"><g transform="translate(127.195406, 228.306236)"><g><path d="M 4 0.125 C 3.332031 0.125 2.742188 -0.0078125 2.234375 -0.28125 C 1.722656 -0.5625 1.328125 -0.96875 1.046875 -1.5 C 0.765625 -2.039062 0.625 -2.6875 0.625 -3.4375 C 0.625 -4.195312 0.765625 -4.84375 1.046875 -5.375 C 1.328125 -5.914062 1.722656 -6.320312 2.234375 -6.59375 C 2.742188 -6.875 3.332031 -7.015625 4 -7.015625 C 4.675781 -7.015625 5.269531 -6.875 5.78125 -6.59375 C 6.289062 -6.320312 6.6875 -5.914062 6.96875 -5.375 C 7.25 -4.84375 7.390625 -4.195312 7.390625 -3.4375 C 7.390625 -2.6875 7.25 -2.039062 6.96875 -1.5 C 6.6875 -0.96875 6.289062 -0.5625 5.78125 -0.28125 C 5.269531 -0.0078125 4.675781 0.125 4 0.125 Z M 4 -1.34375 C 5.070312 -1.34375 5.609375 -2.039062 5.609375 -3.4375 C 5.609375 -4.164062 5.46875 -4.703125 5.1875 -5.046875 C 4.914062 -5.390625 4.519531 -5.5625 4 -5.5625 C 2.9375 -5.5625 2.40625 -4.851562 2.40625 -3.4375 C 2.40625 -2.039062 2.9375 -1.34375 4 -1.34375 Z M 4 -1.34375 "/></g></g></g><g fill="#ffffff" fill-opacity="1"><g transform="translate(135.206312, 228.306236)"><g><path d="M 1 0 L 1 -6.890625 L 2.65625 -6.890625 L 2.65625 -5.875 L 2.78125 -5.84375 C 3.21875 -6.625 3.914062 -7.015625 4.875 -7.015625 C 5.664062 -7.015625 6.25 -6.796875 6.625 -6.359375 C 7 -5.929688 7.1875 -5.304688 7.1875 -4.484375 L 7.1875 0 L 5.453125 0 L 5.453125 -4.265625 C 5.453125 -4.722656 5.359375 -5.050781 5.171875 -5.25 C 4.992188 -5.457031 4.703125 -5.5625 4.296875 -5.5625 C 3.804688 -5.5625 3.421875 -5.398438 3.140625 -5.078125 C 2.859375 -4.753906 2.71875 -4.25 2.71875 -3.5625 L 2.71875 0 Z M 1 0 "/></g></g></g><g fill="#ffffff" fill-opacity="1"><g transform="translate(143.279705, 228.306236)"><g><path d="M 3.578125 2.921875 C 2.441406 2.921875 1.601562 2.753906 1.0625 2.421875 C 0.519531 2.085938 0.25 1.625 0.25 1.03125 C 0.25 0.664062 0.363281 0.367188 0.59375 0.140625 C 0.820312 -0.0859375 1.15625 -0.242188 1.59375 -0.328125 L 1.59375 -0.453125 C 1.351562 -0.597656 1.179688 -0.753906 1.078125 -0.921875 C 0.984375 -1.097656 0.9375 -1.300781 0.9375 -1.53125 C 0.9375 -2.082031 1.296875 -2.457031 2.015625 -2.65625 L 2.015625 -2.78125 C 1.640625 -2.988281 1.359375 -3.25 1.171875 -3.5625 C 0.984375 -3.882812 0.890625 -4.269531 0.890625 -4.71875 C 0.890625 -5.175781 0.992188 -5.578125 1.203125 -5.921875 C 1.421875 -6.265625 1.734375 -6.53125 2.140625 -6.71875 C 2.546875 -6.914062 3.03125 -7.015625 3.59375 -7.015625 C 4.164062 -7.015625 4.625 -6.914062 4.96875 -6.71875 C 5.175781 -7.03125 5.300781 -7.390625 5.34375 -7.796875 L 5.46875 -7.875 L 6.703125 -7.5625 C 6.671875 -7.238281 6.578125 -6.960938 6.421875 -6.734375 C 6.265625 -6.515625 6.023438 -6.316406 5.703125 -6.140625 L 5.703125 -6 C 6.085938 -5.664062 6.28125 -5.191406 6.28125 -4.578125 C 6.28125 -4.148438 6.175781 -3.765625 5.96875 -3.421875 C 5.757812 -3.085938 5.453125 -2.820312 5.046875 -2.625 C 4.640625 -2.4375 4.15625 -2.34375 3.59375 -2.34375 L 3.328125 -2.34375 C 3.160156 -2.351562 3.046875 -2.359375 2.984375 -2.359375 C 2.828125 -2.359375 2.703125 -2.3125 2.609375 -2.21875 C 2.515625 -2.132812 2.46875 -2.03125 2.46875 -1.90625 C 2.46875 -1.757812 2.523438 -1.644531 2.640625 -1.5625 C 2.765625 -1.476562 2.9375 -1.429688 3.15625 -1.421875 L 4.703125 -1.375 C 6.222656 -1.320312 6.984375 -0.664062 6.984375 0.59375 C 6.984375 1.039062 6.867188 1.4375 6.640625 1.78125 C 6.421875 2.132812 6.054688 2.410156 5.546875 2.609375 C 5.035156 2.816406 4.378906 2.921875 3.578125 2.921875 Z M 3.59375 -3.546875 C 3.925781 -3.546875 4.1875 -3.644531 4.375 -3.84375 C 4.5625 -4.039062 4.65625 -4.320312 4.65625 -4.6875 C 4.65625 -5.039062 4.5625 -5.316406 4.375 -5.515625 C 4.1875 -5.710938 3.925781 -5.8125 3.59375 -5.8125 C 3.257812 -5.8125 3 -5.710938 2.8125 -5.515625 C 2.625 -5.316406 2.53125 -5.039062 2.53125 -4.6875 C 2.53125 -4.3125 2.625 -4.023438 2.8125 -3.828125 C 3 -3.640625 3.257812 -3.546875 3.59375 -3.546875 Z M 3.578125 1.671875 C 4.171875 1.671875 4.597656 1.585938 4.859375 1.421875 C 5.128906 1.253906 5.265625 1.035156 5.265625 0.765625 C 5.265625 0.546875 5.195312 0.382812 5.0625 0.28125 C 4.925781 0.1875 4.707031 0.132812 4.40625 0.125 L 3.046875 0.0625 C 2.992188 0.0625 2.945312 0.0546875 2.90625 0.046875 C 2.875 0.046875 2.835938 0.046875 2.796875 0.046875 C 2.503906 0.046875 2.28125 0.109375 2.125 0.234375 C 1.976562 0.359375 1.90625 0.53125 1.90625 0.75 C 1.90625 1.039062 2.046875 1.265625 2.328125 1.421875 C 2.609375 1.585938 3.023438 1.671875 3.578125 1.671875 Z M 3.578125 1.671875 "/></g></g></g><g fill="#ffffff" fill-opacity="1"><g transform="translate(150.447031, 228.306236)"><g><path d="M 4.375 -3.671875 L 0.546875 -3.671875 L 0.546875 -5.203125 L 4.375 -5.203125 Z M 4.375 -3.671875 "/></g></g></g><g fill="#ffffff" fill-opacity="1"><g transform="translate(155.377303, 228.306236)"><g><path d="M 4.75 -1.640625 L 5.203125 -0.359375 C 5.015625 -0.203125 4.78125 -0.0820312 4.5 0 C 4.21875 0.0820312 3.894531 0.125 3.53125 0.125 C 2.789062 0.125 2.222656 -0.078125 1.828125 -0.484375 C 1.441406 -0.890625 1.25 -1.476562 1.25 -2.25 L 1.25 -5.53125 L 0.203125 -5.53125 L 0.203125 -6.890625 L 1.25 -6.890625 L 1.25 -8.234375 L 2.984375 -8.515625 L 2.984375 -6.890625 L 4.9375 -6.890625 L 4.9375 -5.53125 L 2.984375 -5.53125 L 2.984375 -2.375 C 2.984375 -2.03125 3.050781 -1.78125 3.1875 -1.625 C 3.332031 -1.46875 3.539062 -1.390625 3.8125 -1.390625 C 4.125 -1.390625 4.394531 -1.472656 4.625 -1.640625 Z M 4.75 -1.640625 "/></g></g></g><g fill="#ffffff" fill-opacity="1"><g transform="translate(160.73249, 228.306236)"><g><path d="M 6.8125 -3.0625 L 2.375 -3.0625 C 2.425781 -2.457031 2.597656 -2.019531 2.890625 -1.75 C 3.179688 -1.476562 3.582031 -1.34375 4.09375 -1.34375 C 4.488281 -1.34375 4.804688 -1.414062 5.046875 -1.5625 C 5.296875 -1.707031 5.492188 -1.929688 5.640625 -2.234375 L 5.78125 -2.234375 L 6.921875 -1.5 C 6.691406 -1.007812 6.347656 -0.613281 5.890625 -0.3125 C 5.441406 -0.0195312 4.84375 0.125 4.09375 0.125 C 3.375 0.125 2.753906 -0.0078125 2.234375 -0.28125 C 1.722656 -0.550781 1.328125 -0.953125 1.046875 -1.484375 C 0.765625 -2.015625 0.625 -2.664062 0.625 -3.4375 C 0.625 -4.226562 0.769531 -4.890625 1.0625 -5.421875 C 1.351562 -5.960938 1.75 -6.363281 2.25 -6.625 C 2.757812 -6.882812 3.332031 -7.015625 3.96875 -7.015625 C 4.9375 -7.015625 5.679688 -6.753906 6.203125 -6.234375 C 6.722656 -5.722656 6.984375 -4.96875 6.984375 -3.96875 C 6.984375 -3.613281 6.96875 -3.332031 6.9375 -3.125 Z M 5.328125 -4.171875 C 5.304688 -4.703125 5.179688 -5.085938 4.953125 -5.328125 C 4.734375 -5.566406 4.40625 -5.6875 3.96875 -5.6875 C 3.09375 -5.6875 2.578125 -5.179688 2.421875 -4.171875 Z M 5.328125 -4.171875 "/></g></g></g><g fill="#ffffff" fill-opacity="1"><g transform="translate(168.224752, 228.306236)"><g><path d="M 1 0 L 1 -6.890625 L 2.671875 -6.890625 L 2.671875 -5.875 L 2.8125 -5.84375 C 2.976562 -6.226562 3.195312 -6.507812 3.46875 -6.6875 C 3.738281 -6.863281 4.066406 -6.953125 4.453125 -6.953125 C 4.835938 -6.953125 5.132812 -6.882812 5.34375 -6.75 L 5.046875 -5.265625 L 4.921875 -5.234375 C 4.804688 -5.285156 4.695312 -5.320312 4.59375 -5.34375 C 4.488281 -5.363281 4.363281 -5.375 4.21875 -5.375 C 3.726562 -5.375 3.351562 -5.203125 3.09375 -4.859375 C 2.84375 -4.515625 2.71875 -3.96875 2.71875 -3.21875 L 2.71875 0 Z M 1 0 "/></g></g></g><g fill="#ffffff" fill-opacity="1"><g transform="translate(173.629929, 228.306236)"><g><path d="M 1 0 L 1 -6.890625 L 2.65625 -6.890625 L 2.65625 -5.96875 L 2.78125 -5.9375 C 3.007812 -6.3125 3.273438 -6.582031 3.578125 -6.75 C 3.878906 -6.925781 4.265625 -7.015625 4.734375 -7.015625 C 5.253906 -7.015625 5.671875 -6.910156 5.984375 -6.703125 C 6.304688 -6.503906 6.539062 -6.207031 6.6875 -5.8125 L 6.8125 -5.8125 C 7.03125 -6.21875 7.304688 -6.519531 7.640625 -6.71875 C 7.972656 -6.914062 8.390625 -7.015625 8.890625 -7.015625 C 10.316406 -7.015625 11.03125 -6.222656 11.03125 -4.640625 L 11.03125 0 L 9.296875 0 L 9.296875 -4.421875 C 9.296875 -4.828125 9.21875 -5.117188 9.0625 -5.296875 C 8.90625 -5.472656 8.648438 -5.5625 8.296875 -5.5625 C 7.347656 -5.5625 6.875 -4.925781 6.875 -3.65625 L 6.875 0 L 5.15625 0 L 5.15625 -4.421875 C 5.15625 -4.828125 5.070312 -5.117188 4.90625 -5.296875 C 4.75 -5.472656 4.492188 -5.5625 4.140625 -5.5625 C 3.691406 -5.5625 3.34375 -5.410156 3.09375 -5.109375 C 2.84375 -4.816406 2.71875 -4.34375 2.71875 -3.6875 L 2.71875 0 Z M 1 0 "/></g></g></g><g fill="#ffffff" fill-opacity="1"><g transform="translate(185.552556, 228.306236)"><g/></g></g><g fill="#ffffff" fill-opacity="1"><g transform="translate(188.570709, 228.306236)"><g><path d="M 4.75 0 L 2.6875 0 L 0.125 -6.890625 L 1.9375 -6.890625 L 3.65625 -1.984375 L 3.796875 -1.984375 L 5.515625 -6.890625 L 7.28125 -6.890625 Z M 4.75 0 "/></g></g></g><g fill="#ffffff" fill-opacity="1"><g transform="translate(195.981733, 228.306236)"><g><path d="M 1.859375 -7.71875 C 1.546875 -7.71875 1.289062 -7.8125 1.09375 -8 C 0.894531 -8.1875 0.796875 -8.429688 0.796875 -8.734375 C 0.796875 -9.023438 0.894531 -9.265625 1.09375 -9.453125 C 1.289062 -9.648438 1.546875 -9.75 1.859375 -9.75 C 2.066406 -9.75 2.25 -9.703125 2.40625 -9.609375 C 2.570312 -9.523438 2.695312 -9.40625 2.78125 -9.25 C 2.875 -9.101562 2.921875 -8.929688 2.921875 -8.734375 C 2.921875 -8.535156 2.875 -8.359375 2.78125 -8.203125 C 2.695312 -8.054688 2.570312 -7.9375 2.40625 -7.84375 C 2.25 -7.757812 2.066406 -7.71875 1.859375 -7.71875 Z M 1 0 L 1 -6.890625 L 2.71875 -6.890625 L 2.71875 0 Z M 1 0 "/></g></g></g><g fill="#ffffff" fill-opacity="1"><g transform="translate(199.693495, 228.306236)"><g><path d="M 2.6875 0.125 C 2.25 0.125 1.863281 0.046875 1.53125 -0.109375 C 1.207031 -0.273438 0.957031 -0.515625 0.78125 -0.828125 C 0.613281 -1.140625 0.53125 -1.519531 0.53125 -1.96875 C 0.53125 -2.375 0.613281 -2.710938 0.78125 -2.984375 C 0.957031 -3.265625 1.226562 -3.492188 1.59375 -3.671875 C 1.96875 -3.847656 2.445312 -3.984375 3.03125 -4.078125 C 3.445312 -4.148438 3.757812 -4.222656 3.96875 -4.296875 C 4.1875 -4.378906 4.332031 -4.46875 4.40625 -4.5625 C 4.488281 -4.664062 4.53125 -4.796875 4.53125 -4.953125 C 4.53125 -5.171875 4.453125 -5.335938 4.296875 -5.453125 C 4.140625 -5.566406 3.882812 -5.625 3.53125 -5.625 C 3.144531 -5.625 2.773438 -5.539062 2.421875 -5.375 C 2.078125 -5.207031 1.78125 -4.984375 1.53125 -4.703125 L 1.40625 -4.703125 L 0.6875 -5.796875 C 1.03125 -6.179688 1.453125 -6.476562 1.953125 -6.6875 C 2.460938 -6.90625 3.015625 -7.015625 3.609375 -7.015625 C 4.523438 -7.015625 5.1875 -6.820312 5.59375 -6.4375 C 6 -6.050781 6.203125 -5.503906 6.203125 -4.796875 L 6.203125 -1.796875 C 6.203125 -1.492188 6.335938 -1.34375 6.609375 -1.34375 C 6.710938 -1.34375 6.816406 -1.359375 6.921875 -1.390625 L 7 -1.375 L 7.125 -0.15625 C 7.03125 -0.09375 6.894531 -0.0390625 6.71875 0 C 6.550781 0.03125 6.367188 0.046875 6.171875 0.046875 C 5.753906 0.046875 5.429688 -0.03125 5.203125 -0.1875 C 4.972656 -0.34375 4.804688 -0.59375 4.703125 -0.9375 L 4.578125 -0.9375 C 4.234375 -0.226562 3.601562 0.125 2.6875 0.125 Z M 3.234375 -1.15625 C 3.640625 -1.15625 3.960938 -1.289062 4.203125 -1.5625 C 4.441406 -1.832031 4.5625 -2.207031 4.5625 -2.6875 L 4.5625 -3.390625 L 4.4375 -3.40625 C 4.332031 -3.320312 4.195312 -3.253906 4.03125 -3.203125 C 3.863281 -3.148438 3.617188 -3.09375 3.296875 -3.03125 C 2.921875 -2.96875 2.648438 -2.859375 2.484375 -2.703125 C 2.328125 -2.554688 2.25 -2.34375 2.25 -2.0625 C 2.25 -1.769531 2.332031 -1.546875 2.5 -1.390625 C 2.675781 -1.234375 2.921875 -1.15625 3.234375 -1.15625 Z M 3.234375 -1.15625 "/></g></g></g><g fill="#ffffff" fill-opacity="1"><g transform="translate(206.960801, 228.306236)"><g><path d="M 4.8125 0.125 C 3.9375 0.125 3.285156 -0.203125 2.859375 -0.859375 L 2.71875 -0.828125 L 2.71875 0 L 1 0 L 1 -9.65625 L 2.71875 -9.65625 L 2.71875 -6.078125 L 2.859375 -6.0625 C 3.097656 -6.382812 3.378906 -6.625 3.703125 -6.78125 C 4.023438 -6.9375 4.410156 -7.015625 4.859375 -7.015625 C 5.410156 -7.015625 5.894531 -6.882812 6.3125 -6.625 C 6.726562 -6.363281 7.050781 -5.960938 7.28125 -5.421875 C 7.519531 -4.890625 7.640625 -4.226562 7.640625 -3.4375 C 7.640625 -2.65625 7.519531 -1.992188 7.28125 -1.453125 C 7.039062 -0.921875 6.707031 -0.523438 6.28125 -0.265625 C 5.851562 -0.00390625 5.363281 0.125 4.8125 0.125 Z M 4.296875 -1.34375 C 4.804688 -1.34375 5.191406 -1.507812 5.453125 -1.84375 C 5.722656 -2.1875 5.859375 -2.71875 5.859375 -3.4375 C 5.859375 -4.164062 5.722656 -4.703125 5.453125 -5.046875 C 5.191406 -5.390625 4.804688 -5.5625 4.296875 -5.5625 C 3.804688 -5.5625 3.414062 -5.382812 3.125 -5.03125 C 2.84375 -4.675781 2.703125 -4.144531 2.703125 -3.4375 C 2.703125 -2.726562 2.84375 -2.203125 3.125 -1.859375 C 3.414062 -1.515625 3.804688 -1.34375 4.296875 -1.34375 Z M 4.296875 -1.34375 "/></g></g></g><g fill="#ffffff" fill-opacity="1"><g transform="translate(215.215411, 228.306236)"><g><path d="M 1.859375 -7.71875 C 1.546875 -7.71875 1.289062 -7.8125 1.09375 -8 C 0.894531 -8.1875 0.796875 -8.429688 0.796875 -8.734375 C 0.796875 -9.023438 0.894531 -9.265625 1.09375 -9.453125 C 1.289062 -9.648438 1.546875 -9.75 1.859375 -9.75 C 2.066406 -9.75 2.25 -9.703125 2.40625 -9.609375 C 2.570312 -9.523438 2.695312 -9.40625 2.78125 -9.25 C 2.875 -9.101562 2.921875 -8.929688 2.921875 -8.734375 C 2.921875 -8.535156 2.875 -8.359375 2.78125 -8.203125 C 2.695312 -8.054688 2.570312 -7.9375 2.40625 -7.84375 C 2.25 -7.757812 2.066406 -7.71875 1.859375 -7.71875 Z M 1 0 L 1 -6.890625 L 2.71875 -6.890625 L 2.71875 0 Z M 1 0 "/></g></g></g><g fill="#ffffff" fill-opacity="1"><g transform="translate(218.927173, 228.306236)"><g><path d="M 2.859375 0.125 C 2.242188 0.125 1.769531 -0.0390625 1.4375 -0.375 C 1.113281 -0.707031 0.953125 -1.21875 0.953125 -1.90625 L 0.953125 -9.65625 L 2.6875 -9.65625 L 2.6875 -1.96875 C 2.6875 -1.550781 2.859375 -1.34375 3.203125 -1.34375 C 3.304688 -1.34375 3.414062 -1.359375 3.53125 -1.390625 L 3.609375 -1.359375 L 3.765625 -0.03125 C 3.671875 0.0195312 3.546875 0.0546875 3.390625 0.078125 C 3.234375 0.109375 3.054688 0.125 2.859375 0.125 Z M 2.859375 0.125 "/></g></g></g><g fill="#ffffff" fill-opacity="1"><g transform="translate(222.888884, 228.306236)"><g><path d="M 4.75 -1.640625 L 5.203125 -0.359375 C 5.015625 -0.203125 4.78125 -0.0820312 4.5 0 C 4.21875 0.0820312 3.894531 0.125 3.53125 0.125 C 2.789062 0.125 2.222656 -0.078125 1.828125 -0.484375 C 1.441406 -0.890625 1.25 -1.476562 1.25 -2.25 L 1.25 -5.53125 L 0.203125 -5.53125 L 0.203125 -6.890625 L 1.25 -6.890625 L 1.25 -8.234375 L 2.984375 -8.515625 L 2.984375 -6.890625 L 4.9375 -6.890625 L 4.9375 -5.53125 L 2.984375 -5.53125 L 2.984375 -2.375 C 2.984375 -2.03125 3.050781 -1.78125 3.1875 -1.625 C 3.332031 -1.46875 3.539062 -1.390625 3.8125 -1.390625 C 4.125 -1.390625 4.394531 -1.472656 4.625 -1.640625 Z M 4.75 -1.640625 "/></g></g></g><g fill="#ffffff" fill-opacity="1"><g transform="translate(228.244071, 228.306236)"><g><path d="M 1.53125 2.921875 C 1.226562 2.921875 0.957031 2.894531 0.71875 2.84375 C 0.476562 2.800781 0.285156 2.742188 0.140625 2.671875 L 0.40625 1.28125 L 0.53125 1.234375 C 0.632812 1.285156 0.757812 1.328125 0.90625 1.359375 C 1.0625 1.398438 1.222656 1.421875 1.390625 1.421875 C 1.671875 1.421875 1.898438 1.382812 2.078125 1.3125 C 2.265625 1.238281 2.421875 1.113281 2.546875 0.9375 C 2.679688 0.769531 2.800781 0.539062 2.90625 0.25 L 0.15625 -6.890625 L 1.96875 -6.890625 L 3.671875 -2.09375 L 3.828125 -2.09375 L 5.5 -6.890625 L 7.25 -6.890625 L 4.484375 0.4375 C 4.265625 1.019531 4.019531 1.492188 3.75 1.859375 C 3.488281 2.222656 3.175781 2.488281 2.8125 2.65625 C 2.457031 2.832031 2.03125 2.921875 1.53125 2.921875 Z M 1.53125 2.921875 "/></g></g></g></svg>